/* XPM */
static char *result[] = {
/* columns rows colors chars-per-pixel */
"50 50 210 2 ",
"   c #030000",
".  c #0C0200",
"X  c #130C05",
"o  c #160B04",
"O  c #1D1107",
"+  c #1D1209",
"@  c #16110E",
"#  c #171410",
"$  c #191612",
"%  c #1D1A15",
"&  c #1E1C1A",
"*  c #2D1A03",
"=  c #231509",
"-  c #26190D",
";  c #2C1B0C",
":  c #271502",
">  c #331C01",
",  c #311E0D",
"<  c #231C15",
"1  c #2B1F13",
"2  c #231F1A",
"3  c #281F18",
"4  c #250500",
"5  c #35210E",
"6  c #3A240E",
"7  c #2C2015",
"8  c #25211D",
"9  c #2B241C",
"0  c #332312",
"q  c #3C2611",
"w  c #3F2913",
"e  c #33261B",
"r  c #32291F",
"t  c #3B2A1B",
"y  c #2A2722",
"u  c #2D2923",
"i  c #2A2927",
"p  c #342D23",
"a  c #3B2C21",
"s  c #342E29",
"d  c #373026",
"f  c #393126",
"g  c #35312C",
"h  c #3C352A",
"j  c #3E382D",
"k  c #363432",
"l  c #3A3733",
"z  c #3D3934",
"x  c #3C3A38",
"c  c #40270E",
"v  c #5A3501",
"b  c #533307",
"n  c #402710",
"m  c #442B13",
"M  c #4A2E14",
"N  c #442D1A",
"B  c #482F1A",
"V  c #4D3115",
"C  c #4C321A",
"Z  c #44301D",
"A  c #523316",
"S  c #5B3916",
"D  c #543619",
"F  c #583718",
"G  c #56391B",
"H  c #5C3B1B",
"J  c #593817",
"K  c #663C02",
"L  c #6A3E00",
"P  c #623E1C",
"I  c #603C16",
"U  c #412F20",
"Y  c #423325",
"T  c #4C3623",
"R  c #41362B",
"E  c #433A2E",
"W  c #4A3B2C",
"Q  c #4E3927",
"!  c #543E2C",
"~  c #553B24",
"^  c #443D32",
"/  c #493F32",
"(  c #423E3A",
")  c #5E401F",
"_  c #65411D",
"`  c #6C441E",
"'  c #674016",
"]  c #714612",
"[  c #70471F",
"{  c #72481F",
"}  c #734813",
"|  c #5C432D",
" . c #4B4235",
".. c #46423C",
"X. c #4C453B",
"o. c #4F493E",
"O. c #514639",
"+. c #534A3C",
"@. c #594E3E",
"#. c #564637",
"$. c #5A503F",
"%. c #6C4620",
"&. c #6F4922",
"*. c #644425",
"=. c #744B22",
"-. c #7A4E23",
";. c #7C5126",
":. c #7D5328",
">. c #634A37",
",. c #494642",
"<. c #4E4943",
"1. c #4D4B4A",
"2. c #444442",
"3. c #534D43",
"4. c #594E42",
"5. c #504E4C",
"6. c #5C5242",
"7. c #56514B",
"8. c #5A544B",
"9. c #575147",
"0. c #555452",
"q. c #5A5754",
"w. c #5D5953",
"e. c #5C5A59",
"r. c #615645",
"t. c #635847",
"y. c #61564B",
"u. c #655B4B",
"i. c #6A5D4C",
"p. c #635D54",
"a. c #6C5E52",
"s. c #615F5D",
"d. c #6C604E",
"f. c #6D6353",
"g. c #67625A",
"h. c #716553",
"j. c #756956",
"k. c #74655A",
"l. c #766B5A",
"z. c #7A6E5B",
"x. c #7D715E",
"c. c #646261",
"v. c #6B6662",
"b. c #6D6D6C",
"n. c #6C6966",
"m. c #746C62",
"M. c #7A6F66",
"N. c #7E7363",
"B. c #7A736C",
"V. c #7C7A76",
"C. c #787673",
"Z. c #827563",
"A. c #857A67",
"S. c #857B6A",
"D. c #8B7E6B",
"F. c #847967",
"G. c #857C71",
"H. c #8B7E74",
"J. c #8E816C",
"K. c #90836E",
"L. c #8D8272",
"P. c #8D8379",
"I. c #928675",
"U. c #958974",
"Y. c #948A7A",
"T. c #998E7B",
"R. c #958779",
"E. c #9C907E",
"W. c #8B8985",
"Q. c #8E8C89",
"!. c #928E86",
"~. c #9D9383",
"^. c #97928B",
"/. c #9B9996",
"(. c #A29684",
"). c #A49885",
"_. c #A49A8A",
"`. c #A79C89",
"'. c #A09E9B",
"]. c #ADA18E",
"[. c #ADA393",
"{. c #AEA89E",
"}. c #B5AB9B",
"|. c #B1A695",
" X c #BBB09E",
".X c #BCB3A3",
"XX c #A6A4A1",
"oX c #C2B9AB",
"OX c #C0B7A8",
"+X c #C8BFB1",
"@X c #CAC2B5",
"#X c #CDC5BA",
"$X c #CBC4B9",
"%X c #D0C9BC",
"&X c #D4CDC3",
"*X c #D6D0C6",
"=X c #D8D1C6",
"-X c #DAD4CB",
";X c #DDD8CE",
":X c #D6D0C9",
">X c #DED9D1",
",X c #DCD7D0",
"<X c #E1DDD5",
"1X c #E6E2DC",
"2X c #E9E4DE",
"3X c #E9E6E1",
"4X c #EDEAE6",
"5X c #F1EFEB",
"6X c #F4F2EE",
"7X c None",
/* pixels */
"7X7X7X7X7X7X7X7X7X7X7X7X7X7X7X7X7X7X7X7X7X-X1X1X;X@XE.x.d.7X7X7X7X7X7X7X7X7X7X7X7X7X7X7X7X7X7X7X7X7X",
"7X7X7X7X7X7X7X7X7X7X7X7X7X7X7X7X7X7X7X7X<X4X5X3X2X-X.XU.f.E 7X7X7X7X7X7X7X7X7X7X7X7X7X7X7X7X7X7X7X7X",
"7X7X7X7X7X7X7X7X7X7X7X7X7X7X7X7X7X7X7X;X4X6X5X3X<X#X|.J.u. .f 7X7X7X7X7X7X7X7X7X7X7X7X7X7X7X7X7X7X7X",
"7X7X7X7X7X7X7X7X7X7X7X.X-X1X1X-X@X.X.X*X1X3X<X:X#XoX|.K.x.d. .+.h.Z.K.U.U.N.u.7X7X7X7X7X7X7X7X7X7X7X",
"7X7X7X7X7X7X7X7X7X7X@X1X5X6X5X4X1X*X@X@XOX[.E.I.J.J.x.l.j.x.j.d.U.].].].E.J.j.$.7X7X7X7X7X7X7X7X7X7X",
"7X7X=X%X7X7X7X7X7X.X;X5X6X4X2X1X,X-X@X|.J.d.6.j.x.j.u.O.$.d.h.S.|. X X[.E.J.x.d.+.7X7X7X7X7X*X#X7X7X",
"7X=X2X;X.X7X7X7X.X*X>X;X@X[.`.~.T.Y.L.N.6.h h d.x.h. .r j $.d.h.z.N.x.x.x.x.J.j.+.h 7X7X7X=X2X-X7X7X",
"7X-X1X-X(.7X7XT..X*X.X^.L.f.6.$.@.+.@.o.X. . .l.S.u.h h  . .O.+. . . . .+.d.l.j.$.h 9 7X7X;X2X*XE.7X",
"1X&X;X#XL.f.r.E.}.}.E.h.@.+.4.8.a.N.I.!.R.L.L.T.U.h.u.j.J.I.Y.L.u. .j h h ^ $.d.$. .d 3..X=X;X@XF.h.",
"1XoX.X`.t. .6.U.).T.l.$.d.h.l.T.}.[._.(.E.T.(.T.J.j.j.S.J.I.T.T.Y.U.Z.u.t.+. .O.6.d.j m.*X.X.X~.9. .",
"1X_.N.d.h j r.T.I.J.d.J.`.}.[.`.(.T.Z.f.i.u.a.u.6.$.$.6.6.8.f.N.J.J.K.T.T.J.d.o.$.$.O.B.&X~.z.d.f j ",
"3X_.4.^  . .+.L.S.J.z.J.U.E.E.J.f.+.h p 9 9 9 9 9 9 7 9 9 9 d j $.d.l.x.z.j.d.6.t.$.o.G.:X~.X. . . .",
"3X#X[._.~.N.o.Z.d.6.h.J.F.l.d. .r - = = - - ^ k . l x * ; + + = 7 f  . .$.d.8. .j  .+.S.;X%X].].E.N.",
":X.X].E.L.h. .h.9.z.Y.F.d.O.p - + ; 5 6 q m W f * h W m m 5 5 , ; - - 9  .$.d.h. . .6.l..XOX|.E.I.f.",
"oX].E.J.l.6.E t.j.T.I.f. .7 = , ; m V C A A G B 0 C G J G m V w q q 0 - r O.6.j.d.+.6.h.E.].T.J.l.$.",
" X).U.J.l.6.j $.I.I.j. .7 + 5 m m D H P H H H V 0 A S ) H J H J V V w = - f O.t.h.j.u.h.].E.U.J.x.$.",
"L.F.U.J.6.E f $.J.z. .1 + ; m G V H ` ` P H >. .5 #.>.P H H ` _ ) ) G 5 + % f $.d.Z.d.t.B.J.U.J.6. .",
"X.@.J.J. .8 j u.x.r.r = - m F _ H _ [ ` H G #.^ , ^ #.H H P ` _ ` { _ m = = 1  .$.x.h.$. .9.J.J.j 9 ",
"<.h u.u.d l E d.h./ < - , G P ` H _ [ ` H G ~ N 5 Y ~ S G P ` ` ` =.{ D , - + h d.d.h.r.7.j u.u.u z ",
"B.$.6. .g q...i.u.f < 7 w H ` { _ _ [ [ H G G M 0 C G G G P ` ` ` ;.=.) 5 r d  .j.u.d.h.Y.$.$.X.g q.",
"^.f.l.u.j g.X.i.r.d < 0 m *.` { H ` ` ` H G J m 0 M F H G H ` ` ` -.=.` q t d  .j.r.u.l.{.f.x.d.j g.",
"~.P.f.$.w.7...d.r.p - 0 V ` [ =.H [ ` _ H G i.3.: 9.i.I G S P ` ` =.-.&.m w 1 E h.r.u.l.{.P.h.6.w.7.",
"Y.T.l.g.g.j R d.6.p - m A ` ` &.) &.` _ H S t.+.> 4.t.I H G P ` &.=.=.=.V V , E d.t.t.d.~.~.B.g.g.g ",
"u.f.g.8...9 f i.6.p - M G ` { =.H ` [ _ H ) H V m V G P H F _ ` &.:.=.&.m V 5 R d.$.t.$.f.l.m.8.j 2 ",
"u 9.o. .f % h d.6.p - M A ` &.{ P P { P H H I M m A S P P H P &.&.-.-.-.M M ; E h.6.r.O.g 3.+.^ h $ ",
"z z.$.o. .2 h d.r.d - C G ` =.-.%.` { ` P P a.4.> y.a.P H F ` [ &.:.-.:.M C 5  .x.+.+.+.j l.@.+. .% ",
"j j.j h j % h d.u.a - M D ` =.:.*.` { ` P J k.p.: p.k.P H H [ ` &.:.-.-.M V ; W d. . . .^ j.h f f $ ",
"h d.d d h % f d.r.f - M S ' ] } v v K K v b ! W > W ! v v v K K K ] ] [ C A ; R u.X. ...f t.9 r f $ ",
"d 6.a d f % d d.6.p < Y #.a.F.H.H.P.R.R.H.M.a.O.g +.a.M.G.H.H.H.P.R.H.k.@.W 7 j d. . . .d 6.r p d $ ",
"p 6.f h h % d t.4.r % x ,.s.W.^.Q.Q.XX'.W.V.C.e.s v.V.V.W./.'.^.W.^.Q.n.1.x g d r. . .E d 6.d f d # ",
"r 6.f  .h % p $.4.p $ s 3 + 5.z . . s.0.+ . 0.5.  0.q.    ,.0.. . g <.% @ 8 g 9 $.R E g u 6.f E g # ",
"d 6.h  .h % d $.4.u - q m V M A n n M M m c c 5 - , c m n m M N M V M M 6 0 ; a $. . .h d 6.h E f $ ",
"f 6.E  .j < f u.$.d 0 S _ =.{ =.P F ` [ P F ~ V n C ~ P H P %.P %.=.[ P D H N W i.4.r. .f r.h E g % ",
"d 6.j h f % j d.r.d r D H [ ;.-.~ F P ` P D a.y.> y.a.F P P P P P -.=.=.D *.<.#.N.@.@.O.f r.h E f $ ",
"h 6.E j f < h d.r.f a T H [ ;.-.P F P ` P V M.v.4 n.M.A H P %.I P =.=.[ A >.8. .h.X.O. .h 6.j R f # ",
"d 6.E  .h % f h.t.f 0 J H ` ;.=.F P ` ` H C ~ C q D G A H P P ` P { -.P V P B R r.O. . .f 6.E ^ d # ",
"p 6.E ^ h % d u.6.f 0 V J _ -.=.F P ` _ F C F B q C F A D H P P P -.=._ V H m W d.X. . .p 6.h E d # ",
"p 6.f E f % d i.6.d 0 m C _ [ { P P _ _ F A ! T , Q ! A A F P P P -.=.P B F U R u. . .E p 6.f R d # ",
"9 @.d f f % p r.6.d 7 N C S ` [ F F P P D M 4.X.> o.4.M C F P F P =.=.P M T R Y @.E  .E u 6.p f d # ",
"9 ^ d p p % p r.$.p 7 M m J _ _ A F F P A M ! Y , W ! M M A P G I P %.F n B a R 6.E ^ h 9  .g a d $ ",
"8 9 d s % 8 g 6.$.j 1 6 m A H G B C D D B U U q 1 m B N B C T D D H H D w w , h 6.j E j 8 9 d u % $ ",
"j g u 9 9 h ..6.6.X.y y 9 3 ( l s s 1...s a 2.x < ( 2.s s ( ( p s l ..9 8 8 i z h.E X.7.^ l d u 8 % ",
"g.8.7.,...i h <.o.y y 2.s < s.1.2 @ b.s.8 @ c.e.  s.c.X @ 0.c.$ # 1.n.8 % k ,.9 X.z j h w.w.q.3...i ",
"s.e.e.q.0.2.g X.o.d % 7 1 0 a t 1 0 Y U 7 0 U e = p a , 0 e a , 0 t a 0 - 7 7 r o.d u ..e.e.e.e.0.2.",
"d.9...z h g l +.4.O.a n B G F A m M A M m M M 6 ; q M M m m A A V S S A w m 5  .u.g j 7.<.<.o.<.x % ",
"f.8.X...z 2 ^ 9.9.s - n m A A A n m M M n n N q ; t m m n 6 M M M D J A 5 m 0 h 3...x j 8.8.7.3...& ",
"7.3.X. .k 2 9 @./ p 3 0 q M M M 6 n m n 6 6 R s : s R n , 6 m c M M M M ; t d f o.d u j 8.8.<.o...$ ",
"3.X...x z k s O.^ ( 9 ; , n n 6 ; 6 6 6 , , e 3 O 3 e , , , 6 6 , c m 6 ; 1 7  .h.j ^ 9.7.,.2.X...y ",
"b.b.b.b.b.0.,.7.7.i O - ; 5 6 5 ; , 5 * ; - ; = + = ; ; - ; , , , 6 , , ; ; + R p.9.<...b.b.b.b.b.0.",
"z z x z k & & 9 9 % X X + = = = O + = + + O O O o O + = O O = = = : ; = O O o 3 E u 9 u ......( k & "
};
