/* XPM */
static char *f49e780dbe3f4936c29c1f14253130d2abIcTQPEIrKvX7Jf[] = {
/* columns rows colors chars-per-pixel */
"38 50 195 2 ",
"   c None",
".  c #1A1819",
"X  c #34150A",
"o  c #39130A",
"O  c #35180D",
"+  c #341811",
"@  c #222424",
"#  c #383A39",
"$  c #2A3233",
"%  c #4C1A06",
"&  c #591E04",
"*  c #5C2105",
"=  c #5C2F1E",
"-  c #4D2719",
";  c #652405",
":  c #6C2605",
">  c #6C2807",
",  c #67260B",
"<  c #6D2708",
"1  c #6D2809",
"2  c #752B09",
"3  c #79300F",
"4  c #622C1A",
"5  c #7D3514",
"6  c #7C3C1F",
"7  c #69301B",
"8  c #453837",
"9  c #5D3228",
"0  c #763A20",
"q  c #3A4A4E",
"w  c #374649",
"e  c #395557",
"r  c #287E7F",
"t  c #3B6B6E",
"y  c #4A4848",
"u  c #475658",
"i  c #5C5E5E",
"p  c #454E53",
"a  c #5D605F",
"s  c #6D605C",
"d  c #465C61",
"f  c #615F61",
"g  c #466267",
"h  c #466369",
"j  c #4A656A",
"k  c #576669",
"l  c #457273",
"z  c #427A7D",
"x  c #55767A",
"c  c #597879",
"v  c #466D73",
"b  c #6B6865",
"n  c #7A6662",
"m  c #647C7C",
"M  c #803613",
"N  c #843C1C",
"B  c #893E1D",
"V  c #873A16",
"C  c #903F1B",
"Z  c #883E21",
"A  c #87401F",
"S  c #8B401F",
"D  c #95431E",
"F  c #854023",
"G  c #8D4222",
"H  c #934423",
"J  c #9B4724",
"K  c #964927",
"L  c #9B4A24",
"P  c #974D2C",
"I  c #9A4D2D",
"U  c #954629",
"Y  c #99502F",
"T  c #A04B24",
"R  c #A64F2B",
"E  c #A84F2E",
"W  c #A75225",
"Q  c #A95125",
"!  c #A6502B",
"~  c #A9512D",
"^  c #AD5D3A",
"/  c #A85533",
"(  c #B75E3A",
")  c #AF603D",
"_  c #B8613C",
"`  c #C8632F",
"'  c #C7622E",
"]  c #C76231",
"[  c #C86331",
"{  c #CD6935",
"}  c #C2633D",
"|  c #CC693D",
" . c #DA703D",
".. c #E4783F",
"X. c #845744",
"o. c #835E55",
"O. c #99624A",
"+. c #876659",
"@. c #916151",
"#. c #A96243",
"$. c #BB6743",
"%. c #BC6845",
"&. c #BA6848",
"*. c #B7694A",
"=. c #B96E52",
"-. c #836D66",
";. c #B57A64",
":. c #B57C6B",
">. c #C36A44",
",. c #CB6D45",
"<. c #CF6F48",
"1. c #C26946",
"2. c #D26E45",
"3. c #CD7045",
"4. c #DA7443",
"5. c #D47245",
"6. c #E37741",
"7. c #E57A44",
"8. c #EC7C46",
"9. c #E67E4D",
"0. c #EA7D49",
"q. c #F37E43",
"w. c #B3826E",
"e. c #EC804D",
"r. c #E8865A",
"t. c #E28B64",
"y. c #E98A60",
"u. c #5D7C83",
"i. c #3F898C",
"p. c #3B9898",
"a. c #33A29D",
"s. c #32A5A3",
"d. c #39B4AF",
"f. c #4B888B",
"g. c #468B8B",
"h. c #5A8889",
"j. c #489B9B",
"k. c #519293",
"l. c #678C93",
"z. c #718C94",
"x. c #6D959D",
"c. c #73939A",
"v. c #6D868A",
"b. c #6AA09F",
"n. c #6B96A0",
"m. c #699CA4",
"M. c #669CA1",
"N. c #46A6A7",
"B. c #55A6A5",
"V. c #5BAFB2",
"C. c #4BB5B5",
"Z. c #65A6AA",
"A. c #6BA3AA",
"S. c #67A9AE",
"D. c #69A4A6",
"F. c #69AEB4",
"G. c #67AFB4",
"H. c #65B5BB",
"J. c #68B3B9",
"K. c #64BABD",
"L. c #67B1B7",
"P. c #46BFC0",
"I. c #5DBEC3",
"U. c #65BEC3",
"Y. c #3EC2C2",
"T. c #41C2C2",
"R. c #43CAC9",
"E. c #4FC0C0",
"W. c #5DCBCC",
"Q. c #58C7C9",
"!. c #5ECDD1",
"~. c #5CD4D5",
"^. c #5BD6D9",
"/. c #56DCDB",
"(. c #5BDBDD",
"). c #51D1D1",
"_. c #44D4D4",
"`. c #63C0C5",
"'. c #61C5CA",
"]. c #61CACE",
"[. c #62CBD0",
"{. c #60D4D7",
"}. c #5BE0DE",
"|. c #5CDEE1",
" X c #54E3E4",
".X c #5BE5E5",
"XX c #55E9E7",
"oX c #55EDED",
"OX c #5AEBEB",
"+X c #59E7E7",
"@X c #57F0EF",
"#X c #57F2F1",
"$X c #47E3E2",
"%X c #83888A",
"&X c #989798",
/* pixels */
"                                                                            ",
"                                                                            ",
"                                B.s.s.s.s.s.c                               ",
"                          b R.R.XXU.U.U.`.|._.R.B.#                         ",
"                      v P./.A.A.Z.(.x.x.J.W.m.A.`. Xl m                     ",
"                  g.s.(.(.W.x.x.x.C.x c k.V.x.n.F.^.}.C.p.                  ",
"                l.$X[.x.c.H.Q.u e * * * * y e k.W.D.x.S.oXC.&X              ",
"              m Q.A.^.M.l.p y : > B 5 5 5 3 ; 9 w u.l.].H.L.V.              ",
"            g.Q.n.x.n.N.% ; 5 L 5 8.$.$.$.P W H 2 % u V.x.c.Q.N.            ",
"            C. Xn.x.k * 2 Y ^ >.G 8.$.$.$.P ..| ^ 5 2 y l.x.H.OX.           ",
"          f.Q.S.~.k 4 T  .%.$.,.D 8.$.$.$.P ..,.,.} ( : 8 S.].Z.Q.i         ",
"          N.U.x.u.% G ! 0.>.%.2.C 8.$.1.$.P ..>.,.2.} D 5 w x.x.).h.        ",
"        k (.x.x.p ; ) W 6.3.1.,.Z 8.1.2.$.P .._ ,.2._ ] D 8 c x.G.d.        ",
"      i ].`.XXm.o Y ) W 4.,.1.,.Z 8.,.2.$.P ..$.,.2.^ ` ,.; k ~./.Q.h.      ",
"      . /.n.n.w 5 ^ $.W 4.,.,.>.Z 8.,.2.$.P ..%.&.,.^ ` 3.Z % h.x.!.r       ",
"      # /.x.x.w G $.$.W 4.%.,.%.Z 8.,.2.$.P .._ &.,._ ] 3.^ % u.x.!.r       ",
"      C.I.b.x = H $.$.Q 4.%.,.%.Z 8.,.1.,.P 6.$.%.,.} [ 3.^ > # M.S.).#     ",
"      Y.XX.Xp.> 0.$.$.Q 4.$.$.%.Z q.<.1.,.P 6.$.%.,.} [ 3.%.Y + }..X@X@     ",
"      Y.G.c.h > 7.&.%.Q 4.$.$.%.Z q.1.$.3.Y .._ $.>._ [ ,.&.I O c.x..X@     ",
"      Y.G.c.s > K B N M H B B B 3 J C Z S M D A N A N V H B M , c.c..X@     ",
"      T.`.x.{ e.8.r.e.e.0.0.r.e.8.8.8.y.0.e.8.8.r.e.e.8.8.r.e.0.b J.OX@     ",
"      T.}.Z.{ | $.;.=._ %.&.w.%.$.1.%.w.$.%.%.%.;.=._ %.&.w.$.$.b [.OX@     ",
"      Y.G.z.+.S A A A A A A B Z Z N Z A A A A A G A N A A A A F v.x..X@     ",
"      Y.G.c.j : D A A 5 H B N N 2 J Z N N M H N N A N V S A 5 O n.c..X@     ",
"      T./.!.g.1 8.&.$.W 6.,.$.%.B q.>.$.>.~ ..%.$.$.) ' 3.,.I O [.[.oX@     ",
"      Y.'.H.z 1 7.&.$.W 4.2.%.%.A e.3.%.>.~ .._ $.$.) ' 4.5.R O J.H.OX@     ",
"      Y.G.x.h > 6.+.O.W 4.,.1.&.B q.,.>.3.! ..%.%.%.) ' 4.1.~ o x.x..X@     ",
"      Y.F.x.h < 4.%Xk W 4.,.,.&.B 8.>.,.3.P ..%.,.} ) ' 6.&.E o x.x..X@     ",
"      Y.+X Xp.< 6.n @.W 4.$.2.>.Z q.%.2.,.P 6._ ,.>.^ ` 7.1.E + |..XoX@     ",
"      Y.J.m.j < 0.X.#.Q 4.&.>.,.Z 8.&.,.,.P ..%.,.>.^ ` 4.<.E o m.m..X@     ",
"      Y.G.x.h 1 7.X.) R 4.$.>.,.Z 8.%.,.,.P 6._ ,.1.^ [ 5.2.I X x.x..X@     ",
"      Y.F.x.g 1 7.X.#.Q 4.$.>.2.Z 8.&.2.3.Y 6._ ,.1.^ ] <.,.P O x.x..X@     ",
"      Y.oX Xp.1 7.o.O.Q  .%.%.,.H 0.&.,.,.I ..1.2.,.^ ` <.5.~ O .X X#X@     ",
"      Y.F.x.h < 3.%Xi W 4.%.$.,.C 8.&.2.,.I ..>.2.2.^ ` ,.5.E X x.x.+X@     ",
"      Y.F.c.g < 6.-.@.R 4.$.$.>.H 0.&.1.1.P 6.>.,.2.^ ` <.,.P X x.x.+X@     ",
"      T.U.A.v < 9.*.$.W  .$.$.,.C 8.%.$.&.P 6.2.>.,.^ ' 3.%.I X A.A..X@     ",
"      Y..X|.p.: e.%._ W 4.%.%.>.C 0.$.$.$.P 7.2.%.,._ ] 3.$.I O (.(.oX@     ",
"      Y.F.x.g > 7.%._ W 4.%.>.>.Z q.$.$.$.P ..3.>.>.} [ 3.$.Y X x.x..X@     ",
"      Y.F.x.n M L D S S L G H D V T H H H B L D D H D D K U B 5 z.x..X@     ",
"      Y.[.m.{ 0.e.r.e.e.7...t.e.8.7.7.t.7.8.7.7.r.9.6.7.6.t...7.b U.OX@     ",
"      Y.~.Z.{ >._ w.=.$.$.*.:.$.$.$.$.w.%.&.%.$.;.=.$.$.&.:.%.%.b ].oX@     ",
"      T.F.x.+.A A 5 V 6 6 V N N N N 5 N N N 5 N N N N N N N N 0 z.c..X@     ",
"      Y.F.x.h , W K G V L G K G 3 ! U K F M T U H U Z H U G M O c.x..X@     ",
"      Y.}.^.i.> 0.,.>.W 4.$.,.%.Z 8.1.3.>.P 6.>.,.,.^ [ 3.%.P O {.^.@X@     ",
"      T.`.J.l 1 8.>.%.W 4.%.,.&.Z 8.>.>.,.P ..%.,.,.^ ` 3.$.P O G.J.+X@     ",
"      T.G.x.h > 8.>.2.Q 4.<.%.%.Z q.,.1.,.I ..$.1.$.^ ` 3.$.I O c.x.+X@     ",
"      Y.G.x.h 1 8.*.1.R 7.>.$.%.Z q.,.%.,.~ 6.$.&.&.^ ` 3.%.P X x.x.+X@     ",
"      v.e q $ + U Z Z = U F F F - L F F F 7 F Z Z Z 0 6 G F 4 . q q t       ",
"                                                                            ",
"                                                                            "
};
