/* XPM */
static char *e9db0c39cb3144d3e1ff4be35c3930b7a3kUHb5mpgYwdzJy[] = {
/* columns rows colors chars-per-pixel */
"47 50 213 2 ",
"   c #48475C",
".  c #4C4C64",
"X  c #524E65",
"o  c #54546B",
"O  c #5A5B6D",
"+  c #555869",
"@  c #5E5F70",
"#  c #5F6377",
"$  c #626373",
"%  c #666C76",
"&  c #636678",
"*  c #696D7D",
"=  c #646878",
"-  c #746D7E",
";  c #6D727D",
":  c #66707E",
">  c #74737E",
",  c #75787F",
"<  c #68666D",
"1  c #686E85",
"2  c #6D7384",
"3  c #6E758B",
"4  c #737583",
"5  c #7B7683",
"6  c #747A83",
"7  c #7B7B84",
"8  c #72768B",
"9  c #7E768B",
"0  c #757A8A",
"q  c #7C7D8B",
"w  c #757A92",
"e  c #7B7E93",
"r  c #817C8E",
"t  c #827D93",
"y  c #8A7F94",
"u  c #7D818B",
"i  c #7D8293",
"p  c #7D8599",
"a  c #798599",
"s  c #7B88A0",
"d  c #82838C",
"f  c #82888F",
"g  c #838593",
"h  c #868993",
"j  c #898D96",
"k  c #83859B",
"l  c #8A849A",
"z  c #848B9B",
"x  c #8B8B9B",
"c  c #8B8491",
"v  c #918799",
"b  c #8D919D",
"n  c #86909C",
"m  c #93969D",
"M  c #969A9E",
"N  c #99929F",
"B  c #8C87A1",
"V  c #838BA2",
"C  c #8B8EA2",
"Z  c #818AAA",
"A  c #978FA4",
"S  c #8C92A3",
"D  c #8D93AB",
"F  c #9394A3",
"G  c #9A93A5",
"H  c #969AA2",
"J  c #9A9DA4",
"K  c #9497A9",
"L  c #9D95AA",
"P  c #959BAB",
"I  c #9A9DAC",
"U  c #8D95B2",
"Y  c #939BB1",
"T  c #9A9EB3",
"R  c #A29BA6",
"E  c #A396AB",
"W  c #A39BAC",
"Q  c #A196A4",
"!  c #A89FB3",
"~  c #9AA0A6",
"^  c #9EA2AB",
"/  c #9DA3B3",
"(  c #9AA1BD",
")  c #A2A5AC",
"_  c #A9A1AE",
"`  c #A9ABAE",
"'  c #A3A5B3",
"]  c #ACA3B4",
"[  c #A4A9B4",
"{  c #ABABB5",
"}  c #A3A6B9",
"|  c #A5AABB",
" . c #ACACBD",
".. c #B0A9B6",
"X. c #B1A7BC",
"o. c #B4ADBA",
"O. c #B9AFBD",
"+. c #ADB3BD",
"@. c #AAB3BB",
"#. c #B3B5BC",
"$. c #B8B1BC",
"%. c #BABCBD",
"&. c #9DA7C3",
"*. c #A6AEC1",
"=. c #ACADC2",
"-. c #ABADC8",
";. c #B3AFC5",
":. c #A5B0C5",
">. c #ACB3C3",
",. c #ABB5CA",
"<. c #AFBACB",
"1. c #AFBAC4",
"2. c #B2B5C2",
"3. c #BCB6C3",
"4. c #B3BBC5",
"5. c #BDBAC6",
"6. c #B5BCCB",
"7. c #BCBFCD",
"8. c #B1B7C8",
"9. c #B2BDD1",
"0. c #BDBED3",
"q. c #C0B7C4",
"w. c #C2B9C6",
"e. c #C2BCCB",
"r. c #C5BFD1",
"t. c #BAC2CC",
"y. c #BCC3D2",
"u. c #B9C3D9",
"i. c #B9C6DA",
"p. c #BBC5E3",
"a. c #C1C0C4",
"s. c #C4C4CB",
"d. c #C8C0CF",
"f. c #CCCBCD",
"g. c #C2C8CC",
"h. c #D1D2CC",
"j. c #C3C7D3",
"k. c #C9C6D2",
"l. c #C4CBD3",
"z. c #CCCBD4",
"x. c #C5C3DD",
"c. c #C4CBD9",
"v. c #CCCCDB",
"b. c #D0CFD6",
"n. c #D2CEDC",
"m. c #CCD3DC",
"M. c #C9D3D9",
"N. c #D3D3D5",
"B. c #D8D8D6",
"V. c #D4D3DB",
"C. c #DBDBDD",
"Z. c #D8D6DE",
"A. c #CCC9E1",
"S. c #CBC8E6",
"D. c #D1CDE4",
"F. c #D9CFE0",
"G. c #CAD3E3",
"H. c #CAD5E9",
"J. c #D3D3E2",
"K. c #DDDDE2",
"L. c #D2D3EB",
"P. c #DBD7EB",
"I. c #D5DBEC",
"U. c #DDDBEA",
"Y. c #D7DAE2",
"T. c #E0DFE6",
"R. c #E1DFEB",
"E. c #E1DEF1",
"W. c #D6E1EE",
"Q. c #D7E5F0",
"!. c #E3E3E4",
"~. c #E4E3EC",
"^. c #E8E7EF",
"/. c #EEEEEE",
"(. c #F3F3EF",
"). c #E5E3F3",
"_. c #E8E6F1",
"`. c #E7EDF3",
"'. c #EAEAF5",
"]. c #EDEBF5",
"[. c #EDECF4",
"{. c #EEEDF6",
"}. c #ECEBF3",
"|. c #EEEEF9",
" X c #F0EFF7",
".X c #F0EEF7",
"XX c #F0EFF7",
"oX c #F0EEFA",
"OX c #F1F1F1",
"+X c #F3F3F3",
"@X c #F3F3F2",
"#X c #F2F1F3",
"$X c #F4F4F4",
"%X c gray96",
"&X c #F5F5F4",
"*X c gray97",
"=X c #F6F6F6",
"-X c #F6F6F6",
";X c #F4F4F4",
":X c #F8F8F7",
">X c #F2F1F9",
",X c #F8F8F8",
"<X c #F9F9F9",
"1X c #F8F8F9",
"2X c gray98",
"3X c #FDFDFD",
"4X c #FCFCFD",
"5X c #FEFEFE",
"6X c white",
"7X c #FFFFFE",
"8X c #FEFEFD",
"9X c #FCFCFC",
"0X c #F8F7FA",
/* pixels */
"<X5X5X<X/././.5X5X5X%X/./.+X5X5X5X/././.<X5X5X<X/././.5X5X5X;X/./.+X5X5X5X/./.[.:X5X5X<X/././.",
"<X5X5X<X/././.5X5X5X+X/./.+X5X5X5X/././.<X5X5X<X/././.5X5X5X+X/./.+X5X5X5X/././.2X5X5X<X/././.",
"<X5X5X<X/././.5X5X5X%X/./.%X5X5X5X/.+X/.<X5X5X:X+X/./.5X5X5X%X/./.+X5X5X5X/././.<X5X5X<X/././.",
"%X+X%X%X<X<X<X%X+X%X%X<X<X%X+X+X+X<X<X<X%X@X@X&X<X<X<X+X%X+X,X<X<X%X+X+X%X<X<X<X%X&X@X%X5X<X<X",
"+X/./.+X5X5X5X/././.<X5X5X<X/././.5X5X5X@X/./.+X5X5X8X/././.<X5X5X<X/././.5X5X5X+X/./.+X5X5X5X",
"+X/./.+X5X5X5X/././.1X5X5X1X/././.5X5X5X@X/./.+X5X5X8X/././.<X5X5X<X/././.5X5X5X+X/./.+X5X5X5X",
"%X%X%X%X<X%X<X%X%X;X%X<X1X%X;X$X%X<X<X,X/.~.!.C./.[.&X+X+X(.%X<X%X<X&X%X&X:X:X:X%X%X+X%X<X<X<X",
"<X5X5X<X/././.5X5X5X+X/./.;X5X5X/.N.w.V.z.~.].k.^.~.!.C.s.!.^././.+X5X5X5X/././.<X5X5X<X/././.",
"<X5X5X<X/././.5X5X5X+X/./.+X+XC.!._.b.K.~.}..XV.[.}.}..XZ..X!.V.!.&X5X5X5X/././.<X5X5X<X/././.",
"%X5X5X<X+X/./.8X8X5X&X/.[.C.T.].|.].K.Z..X.X.XV._.}.}.T.T.].}._.K.K.<X5X5X+X[./.:X5X5X:X[.+X+X",
"%X/./.%X5X5X8X[.+X/.:X5XN.3.~.'.'.{.{.k.[.}.}.z.}.|.{.k._._..X.X~.e.C..X/.5X5X5X%X/./.&X8X8X5X",
"+X/./.+X5X5X8X/././.%X!.~._.s.}.'.|._...X.' E v L W ] _ ~.'.].;Xf.}.~.~./.5X5X5X+X/./.&X5X5X5X",
"+X/./.+X5X5X5X/././.@X!.[.{.V.K.).5.E l y l e 4 e t 9 y L 3.~.~.V..X}.K./.5X5X5X+X/./.;X5X5X5X",
"%X<X<X<X+X+X+X<X<X%X!.}.}.[..Xq.E G x K C K *.C -.D V A i F L 3.}.}..X}.B.+X+X%X%X<X<X%X+X%X+X",
"<X5X5X<X/././.5X5X<Xf._.^.[.^.E y x | [ *.m b.S e.h I I | z l L K..XoX.Xz./././.<X5X5X<X/././.",
"<X5X5X<X/././.5X5X%Xa.Z._.[.3.G S } =.c.P W ' ,.G K V 0.o./ S G #.[..XC.%.!././.<X5X5X<X/././.",
"%X<X<X%X%X$X&X<X<X!._.!.V.F.G i  .8.} y.l.~ l.t.y.S t.4.P +.+.b G n.b.~.~.C.$X+X:X<X<X%X%X%X:X",
"%X/./.+X5X5X5X/./.b.Y..X{...q / >.I P 4.m.M.2.t.>.c.c.| P H 2.@.r $./.].~.T.5X5X+X/./.+X5X5X5X",
"+X/./.+X5X5X5X/./.V.].oX>Xs.r | ^ | 2 2 c.m.2.l.>.c.M.3 8 >.[ #.l e.}.]..X!.5X5X+X/./.+X5X5X5X",
"+X/./.+X5X5X5X/./.C.].>XoXw.6 { / z 2 1 ^ l.4.m.,.l.P 1 3 z [ 2.q w.}.}.}.!.5X5X+X/./.+X8X8X5X",
"<X5X5X<X/././.5X5XK.f.b.Z...* [ } 8 &.U s M.4.m.:.g.s U ( w ) ` 4 o.Z.V.z.N././.<X5X5X<X/././.",
"<X5X5X<X/././.5X8X!.}.].}.{ u #.Y D p.p.s 6.t.m.1.>.Z i.p.( / %.g o.>X.X>XC././.<X5X5X<X/././.",
"<X5X5X<X/././.5X8X!.}.}.'.3.6 @.k y.H.H.:.4.y.Y.1.>.:.W.W.y.D +.0 q.$X.X.XC././.<X5X5X<X/..X/.",
"%X+X%X%X<X<X:X&X(.B.[.{.;X{ 2 [ n G.Q.Q.i.y.t.m.y.y.y.`.`.Y./ 2.0 q.}.~.~.T.<X<X$X$X$X%X<X<X2X",
"+X/./.+X5X5X5X/./.Z.^.{._.3.3 ^ V y.M.M.8.6.:.p.<.t.t.B.m.g./ @.q 3.^.~.T.C.9X5X+X/./.+X5X5X5X",
"+X/./.+X5X5X5X/./.Z.N.V.Z.R # / C k.M.M.t.:.,.u.t.u.t.l.t.t./ +.* W V.V.b.C.9X5X+X/./.+X5X5X5X",
"%X+X%X%X%X<X<X+X&XC.{.{.;X$.2 ^ Z V D s p ,.*.u.<.<.s U D S D @.i $..X.X.X!.<X<X%X+X%X%X<X<X<X",
"<X5X5X<X/././.5X5X~.].}.'.o.; / V l.G.M.y.&.,.9.,.*.t.H.G.c.V @.g $.>X>X.XB././.<X5X5X<X/././.",
"<X5X5X<X/././.5X5X!.~.]._.$.% ^ p s.v.z.6.} >.y.>.,.6.Z.Y.c.V | * O.>X>X;XC././.<X5X5X<X/././.",
"<X5X5X<X+X/./.5X8XC.s.b.z.G ; ^ 0 I F ~ F } | <.|  .D P n b z [ 8 W n.k.s.z././.%X5X5X<X+X+X/.",
"%X/./.+X5X5X5X/./.B.oXoX>X{ % J e e i k i [ [ 8.} | p D z k k ) 2 ] P.U._.C.5X5X%X/./.%X5X5X5X",
"+X/./.+X5X5X5X/./.C.{.oXoXO.# F i 9.y.y.*.Y / +./ / -.x.0.r.k J = X.E._._.!.5X5X+X/./.+X5X5X5X",
"+X/./.+X5X5X5X/./.K.]..X>Xo.* m e  .2.>.[ I P | K } } 8.+.=.l I : o.~.~._.~.5X8X+X/./.+X5X5X5X",
"%X<X<X%X+X+X+X<X:XK.z.Z.Z.R = x 4 4 e w a P S } F I z p p e q J * Q b.b.k.N.&X&X*X:X<X:X+X+X+X",
"<X5X5X<X/././.5X5X!.K.U.~._ O d k l h d h J x W z H u u d g x j $ ] ^.~.!.V././.<X5X5X<X/././.",
"<X5X5X<X/././.5X5X!.).).)...O q u g g g l d q Y g g h j h h d f & ' ).~.T.Z././.<X5X5X<X/././.",
"<X<X1X%X%X%X+X<X:XK.).E.E.Q + m ) { ) #.' [ t K g ) ) #.` ` ) M @ X.U.R.~.Z.&X+X%X<X<X%X%X%X%X",
"+X/./.+X5X5X5X/./.N.e.k.3.5 + m J ` J { ) ) u k q M J ) M ` m ~ @ c 7.r.5.N.8X5X%X/./.+X5X5X5X",
"+X/./.+X5X5X5X/./.B.D.J.P.G o q , d d u d d 0 e 0 q u , u d 7 f O Q P.P.U.!.8X5X+X/./.+X5X5X5X",
"+X/./.+X5X5X5X/./.B.V.A.D.K . B ~ J M M ) [ q 8 8 ) J J M ~ ) m . E L.L.L.T.2X8X+X/./.+X5X5X5X",
"<X5X5X<X/././.5X8X!.A.A.D.A . x ^ ~ ~ ~ ^ [ e 8 0 ^ ) J J ) ) S o A D.D.n.N././.<X5X5X<X/././.",
"<X5X5X<X/././.5X8XK.=.;.;.9 . r J J J ~ ~ ~ 8 3 2 H J M H ~ J l X r -.;. .N././.<X5X5X<X/././.",
"<X5X5X<X/././.5X8X!.v.A.A.v   > u h h h j 6 a 3 u 6 f u f f d 4 . v S.A.v.N././.<X5X5X<X/.+X/.",
"%X+X+X%X<X<X<X%X(.C.r.x.x.B X @ 6 0 0 g u 0 w 3 0 3 4 0 0 0 0 & o B r.S.x.K.<X:X%X+X%X%X<X<X<X",
"+X/./.;X5X5X5X/./.h._ {  .r < , > 5 > > , q r > d u , 5 5 7 d d - d ] } ' C.8X5X+X/./.+X5X5X5X",
"+X/./.+X5X5X5X/././.%X8X5X:X/././.8X5X8X(././.+X5X5X8X/././.%X5X5X:X/././.8X5X5X+X/./.+X5X5X5X",
"%X%X%X%X%X<X<X$X%X$X%X:X:X:X(.&X%X<X:X:X&X+X+X%X:X:X:X&X%X+X%X%X<X%X+X$X%X<X%X<X%X;X+X%X<X<X<X",
"<X5X5X<X/././.5X5X5X+X/./.&X5X5X5X/././.:X5X5X<X/././.5X5X5X%X/./.+X5X5X5X/././.<X5X5X<X/././.",
"<X5X5X<X/././.5X5X5X+X/./.+X5X5X5X/././.<X5X5X<X/././.5X5X5X+X/./.+X5X5X5X/././.<X5X5X<X/././.",
"%X5X5X<X+X+X+X<X5X5X%X+X+X+X<X5X5X+X/.+X%X5X5X<X+X+X/.5X5X5X%X+X+X+X9X5X5X.X/./.<X5X5X<X+X+X/."
};
