/* XPM */
static char *result[] = {
/* columns rows colors chars-per-pixel */
"50 50 158 2 ",
"   c #3F0918",
".  c #4E0719",
"X  c #420918",
"o  c #560017",
"O  c #5E0C16",
"+  c #55071B",
"@  c #5B041B",
"#  c #5E0A18",
"$  c #73010F",
"%  c #7D020D",
"&  c #600015",
"*  c #600D16",
"=  c #6C021E",
"-  c #61061B",
";  c #74011E",
":  c #7E051B",
">  c #790C18",
",  c #7A0E16",
"<  c #701014",
"1  c #7B1213",
"2  c #730020",
"3  c #09005A",
"4  c #260059",
"5  c #2C0059",
"6  c #330058",
"7  c #380058",
"8  c #3F1158",
"9  c #580052",
"0  c #411557",
"q  c #471D57",
"w  c #5E1753",
"e  c #4E2756",
"r  c #532C56",
"t  c #563056",
"y  c #5B3555",
"u  c #642352",
"i  c #623D54",
"p  c #6C3C52",
"a  c #664054",
"s  c #6E4152",
"d  c #734C52",
"f  c #8E0002",
"g  c #87000F",
"h  c #850206",
"j  c #930201",
"k  c #9B0C07",
"l  c #9E140E",
"z  c #84081A",
"x  c #8B0918",
"c  c #9D1111",
"v  c #A80001",
"b  c #A60B01",
"n  c #A60B0C",
"m  c #AB0A08",
"M  c #A10402",
"N  c #B50100",
"B  c #B60A01",
"V  c #B2000D",
"C  c #A4130D",
"Z  c #AA120A",
"A  c #BA1D03",
"S  c #B81502",
"D  c #A11310",
"F  c #BA2403",
"G  c #BC2B05",
"H  c #B42E07",
"J  c #BF3608",
"K  c #BE3C16",
"L  c #C03709",
"P  c #C13B0A",
"I  c #BF410E",
"U  c #BE4B24",
"Y  c #B14E37",
"T  c #B04C38",
"R  c #BB5430",
"E  c #C24C00",
"W  c #C5440D",
"Q  c #C74A0F",
"!  c #C84E0F",
"~  c #C75A01",
"^  c #C85C00",
"/  c #C44C12",
"(  c #C84E11",
")  c #CC5413",
"_  c #CB5817",
"`  c #D15D16",
"'  c #CB6501",
"]  c #D26B0E",
"[  c #D17301",
"{  c #D7760F",
"}  c #D47903",
"|  c #CE6313",
" . c #D26115",
".. c #D46913",
"X. c #D67211",
"o. c #D87612",
"O. c #DB7A13",
"+. c #C45728",
"@. c #830042",
"#. c #843549",
"$. c #82594F",
"%. c #805850",
"&. c #976C4A",
"*. c #9B6848",
"=. c #91664C",
"-. c #9F7048",
";. c #A57747",
":. c #A17448",
">. c #AA7A45",
",. c #BC8A3F",
"<. c #DA8403",
"1. c #DC810F",
"2. c #DF9002",
"3. c #DE8212",
"4. c #E59A03",
"5. c #EB9E0C",
"6. c #E18A11",
"7. c #E49110",
"8. c #EEA50B",
"9. c #F0A706",
"0. c #F1AC03",
"q. c #F1AB0A",
"w. c #F6B406",
"e. c #FBBD03",
"r. c #F5B30B",
"t. c #F7BA0F",
"y. c #F9BC0A",
"u. c #E8A81F",
"i. c #EDB21F",
"p. c #F6B912",
"a. c #FBBE14",
"s. c #F3B51C",
"d. c #F5BA1C",
"f. c #D5982F",
"g. c #C88835",
"h. c #C6923B",
"j. c #D19934",
"k. c #DDA52E",
"l. c #D7A031",
"z. c #E3AA28",
"x. c #EEB62A",
"c. c #E6B234",
"v. c #FEC101",
"b. c #FAC01D",
"n. c #FAC021",
"m. c #FAC32C",
"M. c #F8C83F",
"N. c #B88740",
"B. c #F7CB47",
"V. c #F8CA43",
"C. c #F7CC4A",
"Z. c #F7CE56",
"A. c #F7D05D",
"S. c #F7D369",
"D. c #F7D673",
"F. c #F7D778",
"G. c #F7D87B",
"H. c None",
/* pixels */
"H.H.H.H.H.H.H.H.H.H.H.H.H.H.H.H.H.H.H.H.H.H.H.H.H.H.H.H.H.H.H.H.H.H.H.H.H.H.H.H.H.H.H.H.H.H.H.H.H.H.",
"H.H.H.H.H.H.H.H.H.H.H.H.H.H.H.H.H.H.H.H.H.H.H.H.H.H.H.H.H.H.H.H.H.H.H.H.H.H.H.H.H.H.H.H.H.H.H.H.H.H.",
"H.H.H.H.H.H.H.H.H.H.H.H.H.H.H.H.H.H.H.H.H.H.H.H.H.H.H.H.H.H.H.H.H.H.H.H.H.H.H.H.H.H.H.H.H.H.H.H.H.H.",
"H.H.H.H.H.H.H.H.H.H.H.H.H.H.H.H.H.H.H.H.H.H.H.H.H.H.H.H.H.H.H.H.H.H.H.H.H.H.H.H.H.H.H.H.H.H.H.H.H.H.",
"H.H.H.H.H.H.H.H.H.H.H.H.H.H.H.H.H.H.H.H.H.H.H.H.H.H.H.H.H.H.H.H.H.H.H.H.H.H.H.H.H.H.H.H.H.H.H.H.H.H.",
"H.H.H.H.H.H.H.H.H.H.H.H.H.H.H.H.H.H.H.H.H.H.H.H.H.H.H.H.H.H.H.H.H.H.H.H.H.H.H.H.H.H.H.H.H.H.H.H.H.H.",
"H.H.H.H.H.H.H.H.H.H.H.H.H.H.H.H.H.H.H.H.H.H.H.H.H.H.H.H.H.H.H.H.H.H.H.H.H.H.H.H.H.H.H.H.H.H.H.H.H.H.",
"H.H.H.H.H.H.H.H.H.H.H.H.H.H.H.H.H.H.H.H.H.H.H.H.H.H.H.H.H.H.H.H.H.H.H.H.H.H.H.H.H.H.H.H.H.H.H.H.H.H.",
"H.H.H.H.H.H.H.H.H.H.H.H.H.H.H.H.H.H.H.H.H.H.H.H.H.H.H.H.H.H.H.H.H.H.H.H.H.H.H.H.H.H.H.H.H.H.H.H.H.H.",
"H.H.H.H.H.H.H.H.H.H.H.H.H.H.H.H.H.H.H.H.H.H.H.H.H.H.H.H. .H.H.H.H.H.H.N N H.H.H.H.H.H.H.H.H.H.H.H.H.",
"H.H.H.H.H.H.H.H.H.H.H.H.H.H.H.H.H.H.H.H.H.H.H.H.H.H.H.H.....H.H.H.H.N N N N H.H.H.H.H.H.H.H.H.H.H.H.",
"H.H.H.H.H.H.H.H.H.H.H.H.H.H.H.H.H.H.H.H.H.H.H.H.H.H.H.H.e.e.H.H.H.H.H.H.H.H.N H.H.H.H.H.H.H.H.H.H.H.",
"H.H.H.H.H.H.H.H.H.H.H.H.H.H.H.H.H.H.H.H.H.H.H.H.H.H.H.H.H.H.H.H.H.H.H.N H.H.H.H.H.H.H.H.H.H.H.H.H.H.",
"H.H.H.H.H.H.H.H.H.H.H.H.H.H.H.H.H.H.H.H.H.H.H.H.H.H.H.H.H.H.H.H.H.H.B B N H.H.H.H.H.H.H.H.H.H.H.H.H.",
"H.H.H.H.H.H.H.H.H.H.H.H.H.H.H.H.H.H.H.H.H.H.H.H.H.H.H.H.H.H.H.H.H.N 4.w.B N H.H.H.H.H.H.H.H.H.H.H.H.",
"H.H.H.H.H.H.H.H.H.H.H.H.H.H.H.H.H.H.H.H.H.H.H.H.H.H.H.H.H.H.H.H.H.[ 4.4.B H.H.H.H.H.H.H.H.H.H.H.H.H.",
"H.H.H.H.H.H.H.H.H.H.H.H.H.H.H.H.H.H.H.H.H.H.e.H.H.H.H.H.H.H.H.N E v.[ N H.H.H.H.H.H.H.H.H.H.H.H.H.H.",
"H.H.H.H.H.H.H.H.H.H.H.H.H.H.H.H.H.H.H.H.H.H.H.H.H.H.H.N H.H.N ) ) E H.H.H.H.H.H.H.H.H.H.H.H.H.H.H.H.",
"H.H.H.H.H.H.H.H.H.H.H.H.H.H.H.H.H.H.H.H.H.H.H.H.H.H.H.N H.H.G ..X.N H.H.H.H.H.H.H.H.H.H.H.H.H.H.H.H.",
"H.H.H.H.H.H.H.H.H.H.H.H.H.H.H.H.H.H.H.H.H.H.H.H.H.H.H.H.N G ` r.w.N H.H.H.H.H.H.H.H.H.H.H.H.H.H.H.H.",
"H.H.H.H.H.H.H.H.H.H.H.H.H.H.H.H.H.H.H.H.H.H.H.H.H.H.H.N ) { q.} ' H.H.H.H.H.H.H.H.H.H.H.H.H.H.H.H.H.",
"H.H.H.H.H.H.H.H.H.H.H.H.H.H.H.H.H.H.H.H.H.H.H.H.H.H.H.A ` 3.e.~ N H.H.H.H.H.H.H.H.H.H.H.H.H.H.H.H.H.",
"H.H.H.H.H.H.H.H.H.H.H.H.H.H.H.H.` H.H.H.H.H.H.N N N P ` ` 6.e.~ N H.H.H.H.H.H.H.H.H.H.H.H.H.H.H.H.H.",
"H.H.H.H.H.H.H.H.H.H.H.H.H.H.H.H.5.H.H.H.H.N N P / / o.5.5.8.v.~ N H.H.H.H.H.H.H.H.H.H.H.H.H.H.H.H.H.",
"H.H.H.H.H.H.H.H.H.H.H.H.H.H.H.H.e.H.H.H.B B B !  . .7.e.e.e.e.~ N H.H.H.H.H.H.H.H.H.H.H.H.H.H.H.H.H.",
"H.H.H.H.H.H.H.H.H.H.H.H.H.H.H.H.H.H.H.N ( ` ` 5.e.e.e.e.e.q. .G N H. .` ` H.H.H.H.H.H.H.H.H.H.H.H.H.",
"H.H.H.H.H.H.H.H.H.H.H.H.H.H.H.H.H.H.A P 3.7.7.q.e.e.e.e.y.q.` G N H.H...7.H.H.H.H.H.H.H.H.H.H.H.H.H.",
"H.H.H.H.H.H.H.H.H.H.H.H.H.H.H.H.H.N L ` q.e.e.e.e.e.e.e.e.q.` G N H.H.H.e.v.H.H.H.H.H.H.H.H.H.H.H.H.",
"H.H.H.H.H.H.H.H.H.H.H.H.H.H.H.H.N ) o.w.e.a.C.V.C.V.V.V.a.e.y.o.) N H.H.H.H.H.H.H.H.H.H.H.H.H.H.H.H.",
"H.H.H.H.H.H.H.H.H.H.H.H.H.H.H.G L o.7.e.d.m.C.C.C.C.C.C.m.d.e.O.` N H.H.H.H.H.H.H.H.H.H.H.H.H.H.H.H.",
"H.H.H.H.H.H.H.H.H.H.H.H.H.H.N P  .w.e.e.M.C.C.V.C.C.C.C.C.V.e.o.) N H.H.H.H.H.H.H.H.H.H.H.H.H.H.H.H.",
"H.H.H.H.H.H.H.H.H.H.H.H.H.H.N P ` w.b.M.C.C.D.D.D.D.D.D.C.C.V.d.8.) L N H.H.H.H.H.H.H.H.H.H.H.H.H.H.",
"H.H.H.H.H.H.H.H.H.H.H.H.H.H.N L ` u.x.V.B.C.D.F.G.G.F.D.C.C.B.b.r.+.K F H.H.H.H.H.H.H.H.H.H.H.H.H.H.",
"H.H.H.H.H.H.H.H.H.H.H.H.H.H.N L  .w $.v.V.C.C.S.G.G.S.C.B.M.e.e.i.3 T ` N H.H.H.H.H.H.H.H.H.H.H.H.H.",
"H.H.H.H.H.H.H.H.H.H.H.H.H.N ( { 9.s y -.c.m.C.Z.A.A.Z.C.m.m.v.N.&.4 g.8.( P N H.H.H.H.H.H.H.H.H.H.H.",
"H.H.H.H.H.H.H.H.H.H.H.H.N N ` 6.v.d 7 5 l.d.B.B.B.B.B.B.a.y.y.%.7 5 j.w. .W N H.H.H.H.H.H.H.H.H.H.H.",
"H.H.H.H.H.H.H.H.H.H.H.H.H.N ` 6.e.d 7 6 7 i e.e.e.e.v.e.v.k.4 7 7 5 Y  . .W N H.H.H.H.H.H.H.H.H.H.H.",
"H.H.H.H.H.H.H.H.H.H.H.H.H.N W ] 5.p 7 6 >.,.,.,.,.y.z.N.,.N.,.a 7 5 Y `  .W N H.H.H.H.H.H.H.H.H.H.H.",
"H.H.H.H.H.H.H.H.H.H.H.H.H.N N L  .u 7 4 k.s.5 6 q y.h.5 7 =.v.%.7 6 Y  .` W N H.H.H.H.H.H.H.H.H.H.H.",
"H.H.H.H.H.H.H.H.H.H.H.H.H.j N P  .` R 5 e r 5 h.p.e.y.p.i 0 t 8 9 V ( ` S b j H.H.H.H.H.H.H.H.H.H.H.",
"H.H.H.H.H.H.H.H.H.H.H.H.H.g v H ( ( U #.*.:.#.f.e.e.w.8.>.:.:.#.@.N I / B M j H.H.H.H.H.H.H.H.H.H.H.",
"H.H.H.H.H.H.H.H.H.H.H.H.H.; j k Z N G ` 0.e.` 5.e.e.5._ e.v.v.~ N N m C C k j H.H.H.H.H.H.H.H.H.H.H.",
"H.H.H.H.H.H.H.H.H.H.H.H.H.o ; x C C Z F  .O.w.<.E E <.w.O.] E F N Z x : j % & H.H.H.H.H.H.H.H.H.H.H.",
"H.H.H.H.H.H.H.H.H.H.H.H.H.o = : D C C N / | 0.[ N N [ 0.| / N B B c z 2 h $ o H.H.H.H.H.H.H.H.H.H.H.",
"H.H.H.H.H.H.H.H.H.H.H.H.H.H.X @ 2 D C C C n N N N N N N n C C C c 1 > ; X X H.H.H.H.H.H.H.H.H.H.H.H.",
"H.H.H.H.H.H.H.H.H.H.H.H.H.H.H.. . : x C C C n B N N B Z C C C C c ; - . H.H.H.H.H.H.H.H.H.H.H.H.H.H.",
"H.H.H.H.H.H.H.H.H.H.H.H.H.H.H.H.X = : D C C D m v B m D D D D C c 2 + X H.H.H.H.H.H.H.H.H.H.H.H.H.H.",
"H.H.H.H.H.H.H.H.H.H.H.H.H.H.H.H.H.X X   < 1 ; ; ; z > 2 1 1 ; 2 = X H.H.H.H.H.H.H.H.H.H.H.H.H.H.H.H.",
"H.H.H.H.H.H.H.H.H.H.H.H.H.H.H.H.H.H.X X O O @ @ @ * # @ * # @ @ @ H.H.H.H.H.H.H.H.H.H.H.H.H.H.H.H.H.",
"H.H.H.H.H.H.H.H.H.H.H.H.H.H.H.H.H.H.H.X X X X X X X X X X X X X X H.H.H.H.H.H.H.H.H.H.H.H.H.H.H.H.H."
};
