/* XPM */
static char *result[] = {
/* columns rows colors chars-per-pixel */
"50 50 160 2 ",
"   c #3F0918",
".  c #4E0719",
"X  c #420918",
"o  c #560017",
"O  c #5E0C16",
"+  c #55071B",
"@  c #5B041B",
"#  c #5E0A18",
"$  c #78020E",
"%  c #600015",
"&  c #6C021E",
"*  c #610A19",
"=  c #74011E",
"-  c #7E051B",
";  c #790C18",
":  c #7A0E16",
">  c #701014",
",  c #7B1213",
"<  c #730020",
"1  c #09005A",
"2  c #260059",
"3  c #2D0059",
"4  c #350058",
"5  c #380158",
"6  c #580052",
"7  c #411557",
"8  c #471D57",
"9  c #5E1753",
"0  c #4E2756",
"q  c #512D56",
"w  c #5B3555",
"e  c #642352",
"r  c #6C3C52",
"t  c #5A5A5A",
"y  c #664054",
"u  c #6E4152",
"i  c #724B52",
"p  c #6C6358",
"a  c #8E0002",
"s  c #87000F",
"d  c #850206",
"f  c #930201",
"g  c #9B0C07",
"h  c #9E140E",
"j  c #84081A",
"k  c #8B0918",
"l  c #9D1111",
"z  c #A80001",
"x  c #A60B0C",
"c  c #AB0B08",
"v  c #A40802",
"b  c #B50100",
"n  c #B60B02",
"m  c #B2000D",
"M  c #A4130D",
"N  c #AA120A",
"B  c #B81502",
"V  c #BA1C03",
"C  c #A11310",
"Z  c #BA2403",
"A  c #BC2B06",
"S  c #B52E09",
"D  c #AF300F",
"F  c #BE3107",
"G  c #B0300F",
"H  c #BF3608",
"J  c #BF3B0B",
"K  c #BE3C16",
"L  c #C03709",
"P  c #C13A0A",
"I  c #BF410E",
"U  c #BE4B24",
"Y  c #B14E37",
"T  c #B04C38",
"R  c #BC5630",
"E  c #C24B01",
"W  c #C5440D",
"Q  c #C6480E",
"!  c #C85C00",
"~  c #CA570C",
"^  c #C44C12",
"/  c #C84E11",
"(  c #CD5513",
")  c #CE5B13",
"_  c #C95719",
"`  c #D25E16",
"'  c #CF630E",
"]  c #D26A0E",
"[  c #D17301",
"{  c #D7760F",
"}  c #CE6313",
"|  c #D26116",
" . c #D46A12",
".. c #D67211",
"X. c #DB7A13",
"o. c #D67018",
"O. c #C55928",
"+. c #830042",
"@. c #843549",
"#. c #825A4F",
"$. c #805850",
"%. c #956A4B",
"&. c #9B6848",
"*. c #9F7048",
"=. c #A17448",
"-. c #AA7A45",
";. c #BD8B3F",
":. c #DA8403",
">. c #DF8412",
",. c #E0890F",
"<. c #EB9E0B",
"1. c #E6940F",
"2. c #E08712",
"3. c #E18912",
"4. c #E59110",
"5. c #EDA20C",
"6. c #F0A706",
"7. c #F1AC04",
"8. c #F1AA0A",
"9. c #F6B407",
"0. c #F8B703",
"q. c #FBBD03",
"w. c #F4B008",
"e. c #F7BA0F",
"r. c #FABC0A",
"t. c #E8A81F",
"y. c #EDB31F",
"u. c #F6B912",
"i. c #FBBE13",
"p. c #F3B71C",
"a. c #D5982F",
"s. c #C88835",
"d. c #C6923B",
"f. c #D19934",
"g. c #DCA42E",
"h. c #D7A031",
"j. c #E3AA28",
"k. c #EEB62A",
"l. c #E6B234",
"z. c #FEC000",
"x. c #FAC01C",
"c. c #FAC123",
"v. c #FAC22C",
"b. c #F7C338",
"n. c #F9C739",
"m. c #F8C83E",
"M. c #F8C436",
"N. c #B88740",
"B. c #F7CB47",
"V. c #F8CA43",
"C. c #F7CC4A",
"Z. c #F7CE55",
"A. c #F7CF59",
"S. c #F7D05D",
"D. c #F7D264",
"F. c #F7D369",
"G. c #F7D674",
"H. c #F7D778",
"J. c #F7D87A",
"K. c None",
/* pixels */
"K.K.K.K.K.K.K.K.K.K.K.K.K.K.K.K.K.K.K.K.K.K.K.K.K.K.K.K.K.K.K.K.K.K.K.K.K.K.K.K.K.K.K.K.K.K.K.K.K.K.",
"K.K.K.K.K.K.K.K.K.K.K.K.K.K.K.K.K.K.K.K.K.K.K.K.K.K.K.K.K.K.K.K.K.K.K.K.K.K.K.K.K.K.K.K.K.K.K.K.K.K.",
"K.K.K.K.K.K.K.K.K.K.K.K.K.K.K.K.K.K.K.K.K.K.K.K.K.K.K.K.K.K.K.K.K.K.K.K.K.K.K.K.K.K.K.K.K.K.K.K.K.K.",
"K.K.K.K.K.K.K.K.K.K.K.K.K.K.K.K.K.K.K.K.K.K.K.K.K.K.K.K.K.K.K.K.K.K.K.K.K.K.K.K.K.K.K.K.K.K.K.K.K.K.",
"K.K.K.K.K.K.K.K.K.K.K.K.K.K.K.K.K.K.K.K.K.K.K.K.K.K.K.K.K.K.K.K.K.K.K.K.K.K.K.K.K.K.K.K.K.K.K.K.K.K.",
"K.K.K.K.K.K.K.K.K.K.K.K.K.K.K.K.K.K.K.K.K.K.K.K.K.K.K.K.q.q.K.K.K.K.K.K.q.q.q.K.K.K.K.K.K.K.K.K.K.K.",
"K.K.K.K.K.K.K.K.K.K.K.K.K.K.K.K.K.K.K.K.K.K.K.K.K.K.K.K.X.X.K.K.K.K.K.K.K.K.K.K.K.K.K.K.K.K.K.K.K.K.",
"K.K.K.K.K.K.K.K.K.K.K.K.K.K.K.K.K.K.K.K.K.K.K.K.K.K.K.K.| | K.K.K.K.K.K.K.K.K.K.K.K.K.K.K.K.K.K.K.K.",
"K.K.K.K.K.K.K.K.K.K.K.K.K.K.K.K.K.K.K.K.K.K.K.K.K.K.K.K.K.K.K.K.K.K.K.K.K.K.K.K.K.K.K.K.K.K.K.K.K.K.",
"K.K.K.K.K.K.K.K.K.K.K.K.K.K.K.K.K.K.K.K.K.K.t K.K.K.K.K.K.K.K.K.K.K.K.K.K.K.K.K.K.K.K.K.K.K.K.K.K.K.",
"K.K.K.K.K.K.K.K.K.K.K.K.K.K.K.K.K.K.K.K.K.K.p K.K.K.K.K.K.K.K.K.K.K.K.K.K.K.K.K.K.K.K.K.K.K.K.K.K.K.",
"K.K.K.K.K.K.K.K.K.K.K.K.K.K.K.K.K.K.K.K.K.K.q.K.K.K.K.K.K.K.K.K.K.K.K.K.K.K.K.K.K.K.K.K.K.K.K.K.K.K.",
"K.K.K.K.K.K.K.K.K.K.K.K.K.K.K.K.K.K.K.K.K.K.q.K.K.K.K.K.K.K.K.K.K.K.K.K.K.K.K.K.K.K.K.K.K.K.K.K.K.K.",
"K.K.K.K.K.K.K.K.K.K.K.K.K.K.K.K.K.K.K.K.K.K.K.K.K.K.K.K.K.K.K.K.K.K.K.K.K.K.K.K.K.K.K.K.K.K.K.K.K.K.",
"K.K.K.K.K.K.K.K.K.K.K.K.K.K.K.K.K.K.K.K.K.K.K.K.K.K.K.b b b K.K.K.K.K.K.K.K.K.K.K.q.K.K.K.K.K.K.K.K.",
"K.K.K.K.K.K.K.K.K.K.K.K.K.K.K.K.K.K.K.K.K.K.K.K.K.K.A P L L K.K.K.K.K.K.K.K.K.K.K.5.K.K.K.K.K.K.K.K.",
"K.K.K.K.K.K.K.K.K.K.K.K.K.K.K.K.K.K.K.K.K.K.K.b b b P | | ( b K.K.K.K.K.K.K.K.K.K.` K.K.K.K.K.K.K.K.",
"K.K.K.K.K.K.K.K.K.K.K.K.K.K.K.K.K.K.K.K.K.K.b Q ( ) 3.9.9.5.( A b K.K.K.K.K.K.K.K.K.K.K.K.K.K.K.K.K.",
"K.K.K.K.K.K.K.K.K.K.K.K.K.K.K.K.K.K.K.K.K.K.A } X.X.4.8.7.<.` A n K.K.K.K.K.K.K.K.K.K.K.K.K.K.K.K.K.",
"K.K.K.K.K.K.K.K.K.K.K.K.K.K.K.K.q.K.K.K.b B ` 5.z.z.5.` b b K.b A | K.K.K.K.K.K.K.K.K.K.K.K.K.K.K.K.",
"K.K.K.K.K.K.K.K.K.K.K.K.K.K.K.K.q.K.K.b / ` 8.9.q.2.] F K.K.K.K.K.F K.K.K.K.K.q.K.K.K.K.K.K.K.K.K.K.",
"K.K.K.K.K.K.K.K.K.K.K.K.K.K.K.K.q.K.K.B ) X.z.0.9.` Q b K.K.K.K.K.b K.K.K.K.K.q.q.K.K.K.K.K.K.K.K.K.",
"K.K.K.K.K.K.K.K.K.K.K.K.K.K.K.K.K.b A ` 8.q.q.4.` b b K.K.K.K.K.K.K.K.K.K.K.K.q.q.K.K.K.K.K.K.K.K.K.",
"K.K.K.K.K.K.K.K.K.K.K.K.K.K.K.K.K.c S ` 8.q.q.4.` n b K.K.K.K.K.K.K.K.K.K.K.| K.K.K.K.K.K.K.K.K.K.K.",
"K.K.K.K.K.K.K.K.K.K.K.K.K.K.K.K.K.C G ` 8.q.q.1.| B n K.K.K.K.K.K.K.K.K.K.K.| K.K.K.K.K.K.K.K.K.K.K.",
"K.K.K.K.K.K.K.K.K.K.K.q.K.K.K.K.M b A ` 8.q.q.q.q.| Q b K.K.K.K.K.K.K.K.K.K.K.K.K.K.K.K.K.K.K.K.K.K.",
"K.K.K.K.K.K.K.K.K.K.K.r.K.K.K.K.M P ~ 4.9.q.q.c.v.4.{ P K.K.K.K.K.K.K.K.K.K.K.K.K.K.K.K.K.K.K.K.K.K.",
"K.K.K.K.K.K.K.K.K.K.K.q.q.K.K.K.C ) X.q.q.q.q.n.C.r.5.` V b K.K.K.K.K.K.K.K.K.K.K.K.K.K.K.K.K.K.K.K.",
"K.K.K.K.K.K.K.K.K.K.K.K.K.K.K.K.b ( X.q.q.i.C.B.B.B.M.0. ./ b K.K.K.K.K.K.K.K.K.K.K.K.K.K.K.K.K.K.K.",
"K.K.K.K.K.K.K.K.K.K.K.K.K.K.K.A L { 4.q.x.v.C.Z.A.C.m.c.3...L K.K.K.K.K.K.K.K.K.K.K.K.K.K.K.K.K.K.K.",
"K.K.K.K.K.K.K.K.K.K.K.K.K.K.b P ` 9.q.q.m.C.B.F.J.C.B.C.i.8.( A b b K.K.K.K.K.| | K.K.K.K.K.K.K.K.K.",
"K.K.K.K.K.K.| | | K.K.K.K.K.b P ` 9.i.V.B.C.G.H.J.G.D.B.V.b.w. .( ( L b K.K.K.D D K.K.K.K.K.K.K.K.K.",
"K.K.K.K.K.K.| | | K.K.K.K.K.b P ` j.k.V.B.C.H.H.J.H.D.B.m.n.z.3.o.O.K Z K.K.K.N M K.K.K.K.K.K.K.K.K.",
"K.K.K.K.K.K.K.K.K.M M K.K.K.b L | 9 #.q.m.C.B.F.J.C.C.C.x.q.q.q.y.1 T ` b K.K.K.K.K.K.K.K.K.K.K.K.K.",
"K.K.K.K.K.K.K.K.K.K.K.K.K.b / ..7.r w *.l.v.C.Z.S.B.m.v.r.q.q.N.%.2 s.<./ P b K.K.K.K.K.K.K.K.K.K.K.",
"K.K.K.K.K.K.K.K.K.K.K.K.b b ` 3.z.i 5 2 h.p.C.B.B.B.M.q.q.r.e.$.5 3 f.9.| W b K.K.K.K.K.K.K.K.K.K.K.",
"K.K.K.K.K.K.K.K.K.K.K.K.K.b | 3.q.i 5 4 5 y q.q.z.q.z.z.q.g.3 5 5 4 Y | | Q b K.K.K.K.K.K.K.K.K.K.K.",
"K.K.K.K.K.K.K.K.K.K.K.K.K.b W ] <.r y d.i q ;.;.d.r.j.N.u.g.2 5 5 3 Y | ` W b K.K.K.K.K.K.K.K.K.K.K.",
"K.K.K.K.K.K.K.K.K.K.K.K.K.b b L | e #.z.%.4 4 4 8 e.d.2 y.g.2 5 5 4 Y | | Q b K.K.K.K.K.K.K.K.K.K.K.",
"K.K.K.K.K.K.K.K.K.K.K.K.K.f b P | | R q 7 4 3 d.u.0.r.u.i 0 5 5 6 m / ) B v f K.K.K.K.K.K.K.K.K.K.K.",
"K.K.K.K.K.K.K.K.K.K.K.K.K.s z A ^ _ U @.&.*.@.a.q.q.9.5.-.=.*.@.+.b I ^ n g f K.K.K.K.K.K.K.K.K.K.K.",
"K.K.K.K.K.K.K.K.K.K.K.K.K.= a g x n A ` 7.q.` 5.q.z.<.) q.z.z.! b b c x M g f K.K.K.K.K.K.K.K.K.K.K.",
"K.K.K.K.K.K.K.K.K.K.K.K.K.o = k M N N Z ' X.9.:.E E :.9.X.] E Z b N k - f $ % K.K.K.K.K.K.K.K.K.K.K.",
"K.K.K.K.K.K.K.K.K.K.K.K.K.o & - l M N b ^ } 7.[ b b [ 7.} ^ b n n h j = d $ o K.K.K.K.K.K.K.K.K.K.K.",
"K.K.K.K.K.K.K.K.K.K.K.K.K.K.X @ < l M M M x b b b b b b x M M M l , ; = X X K.K.K.K.K.K.K.K.K.K.K.K.",
"K.K.K.K.K.K.K.K.K.K.K.K.K.K.K.. + - k M M C x n b b n c M M M M l = # + K.K.K.K.K.K.K.K.K.K.K.K.K.K.",
"K.K.K.K.K.K.K.K.K.K.K.K.K.K.K.K.X & - C M M l c b b c C C M C M l < + X K.K.K.K.K.K.K.K.K.K.K.K.K.K.",
"K.K.K.K.K.K.K.K.K.K.K.K.K.K.K.K.K.X     > , < < < , ; < , , < = & X K.K.K.K.K.K.K.K.K.K.K.K.K.K.K.K.",
"K.K.K.K.K.K.K.K.K.K.K.K.K.K.K.K.K.K.X X O O @ @ @ * O @ O * @ @ @ K.K.K.K.K.K.K.K.K.K.K.K.K.K.K.K.K.",
"K.K.K.K.K.K.K.K.K.K.K.K.K.K.K.K.K.K.K.X X X X X X X X X X X X X X K.K.K.K.K.K.K.K.K.K.K.K.K.K.K.K.K."
};
