/* XPM */
static char *result[] = {
/* columns rows colors chars-per-pixel */
"50 50 156 2 ",
"   c #3F0918",
".  c #4E0719",
"X  c #420918",
"o  c #560017",
"O  c #5E0C16",
"+  c #55071B",
"@  c #5B041B",
"#  c #5E0A18",
"$  c #73010F",
"%  c #7D020D",
"&  c #600015",
"*  c #600D16",
"=  c #6C021E",
"-  c #61061B",
";  c #74011E",
":  c #7E051B",
">  c #790C18",
",  c #7A0E16",
"<  c #701014",
"1  c #7B1213",
"2  c #730020",
"3  c #09005A",
"4  c #260059",
"5  c #2C0059",
"6  c #330058",
"7  c #380058",
"8  c #3F1158",
"9  c #580052",
"0  c #411557",
"q  c #471D57",
"w  c #5E1753",
"e  c #4E2756",
"r  c #532C56",
"t  c #563056",
"y  c #5B3555",
"u  c #642352",
"i  c #623D54",
"p  c #6C3C52",
"a  c #664054",
"s  c #6E4152",
"d  c #734C52",
"f  c #8E0002",
"g  c #87000F",
"h  c #850206",
"j  c #930201",
"k  c #9B0C07",
"l  c #9E140E",
"z  c #84081A",
"x  c #8B0918",
"c  c #9D1111",
"v  c #A80001",
"b  c #A60B01",
"n  c #A60B0C",
"m  c #AB0A08",
"M  c #A10402",
"N  c #B50000",
"B  c #B60A02",
"V  c #B2000D",
"C  c #A4130D",
"Z  c #AA120A",
"A  c #B81502",
"S  c #B91C02",
"D  c #A11310",
"F  c #BA2303",
"G  c #BC2B05",
"H  c #B42E07",
"J  c #BF3608",
"K  c #BE3C16",
"L  c #C03709",
"P  c #C13B0A",
"I  c #BF410E",
"U  c #BE4B24",
"Y  c #B14E37",
"T  c #B04C38",
"R  c #BB5430",
"E  c #C24B01",
"W  c #C5440D",
"Q  c #C74A0F",
"!  c #C84E0F",
"~  c #C85C00",
"^  c #C55106",
"/  c #C44C12",
"(  c #C84E11",
")  c #CC5413",
"_  c #CE5914",
"`  c #CE5E1D",
"'  c #C45014",
"]  c #D25E16",
"[  c #CD6A02",
"{  c #CA6301",
"}  c #D26B0E",
"|  c #D17201",
" . c #D7760F",
".. c #CE6313",
"X. c #D26115",
"o. c #D56C13",
"O. c #D87612",
"+. c #DB7A13",
"@. c #C45728",
"#. c #830042",
"$. c #843549",
"%. c #82594F",
"&. c #805850",
"*. c #976C4A",
"=. c #9B6848",
"-. c #91664C",
";. c #9F7048",
":. c #A57747",
">. c #A17448",
",. c #AA7A45",
"<. c #BC8A3F",
"1. c #DA8403",
"2. c #DC810F",
"3. c #DE8113",
"4. c #EB9D0C",
"5. c #E18A11",
"6. c #E49110",
"7. c #EEA40B",
"8. c #F0A706",
"9. c #F1AD03",
"0. c #F1AB0A",
"q. c #F6B406",
"w. c #FBBD03",
"e. c #F5B30B",
"r. c #F7BA0F",
"t. c #F9BC0A",
"y. c #E8A81F",
"u. c #EDB21F",
"i. c #F6B912",
"p. c #F3B51C",
"a. c #F8BC18",
"s. c #D5982F",
"d. c #C88835",
"f. c #C6923B",
"g. c #D19934",
"h. c #DDA52E",
"j. c #D7A031",
"k. c #E3AA28",
"l. c #EEB62A",
"z. c #E6B234",
"x. c #FEC000",
"c. c #FAC01D",
"v. c #FAC124",
"b. c #F9C32E",
"n. c #F8C83F",
"m. c #B88740",
"M. c #F7CB47",
"N. c #F8CA43",
"B. c #F7CC4A",
"V. c #F7CE56",
"C. c #F7D05D",
"Z. c #F7D369",
"A. c #F7D673",
"S. c #F7D778",
"D. c #F7D87B",
"F. c None",
/* pixels */
"F.F.F.F.F.F.F.F.F.F.F.F.F.F.F.F.F.F.F.F.F.F.F.F.F.F.F.F.F.F.F.F.F.F.F.F.F.F.F.F.F.F.F.F.F.F.F.F.F.F.",
"F.F.F.F.F.F.F.F.F.F.F.F.F.F.F.F.F.F.F.F.F.F.F.F.F.F.F.F.F.F.F.F.F.F.F.F.F.F.F.F.F.F.F.F.F.F.F.F.F.F.",
"F.F.F.F.F.F.F.F.F.F.F.F.F.F.F.F.F.F.F.F.F.F.F.F.F.F.F.F.F.F.F.F.F.F.F.F.F.F.F.F.F.F.F.F.F.F.F.F.F.F.",
"F.F.F.F.F.F.F.F.F.F.F.F.F.F.F.F.F.F.F.F.F.F.F.F.F.F.F.F.F.F.F.F.F.F.F.F.F.F.F.F.F.F.F.F.F.F.F.F.F.F.",
"F.F.F.F.F.F.F.F.F.F.F.F.F.F.F.F.F.F.F.F.F.F.F.F.F.F.F.F.F.F.F.F.F.F.F.F.F.F.F.F.F.F.F.F.F.F.F.F.F.F.",
"F.F.F.F.F.F.F.F.F.F.F.F.F.F.F.F.F.F.F.F.F.F.F.F.F.F.F.F.F.F.F.F.F.F.F.F.F.F.F.F.F.F.F.F.F.F.F.F.F.F.",
"F.F.F.F.F.F.F.F.F.F.F.F.F.F.F.F.F.F.F.F.F.F.F.F.F.F.F.F.F.F.F.F.F.F.F.F.F.F.F.F.F.F.F.F.F.F.F.F.F.F.",
"F.F.F.F.F.F.F.F.F.F.F.F.F.F.F.F.F.F.F.F.F.F.F.F.F.F.F.F.F.F.F.F.F.F.F.F.F.F.F.F.F.F.F.F.F.F.F.F.F.F.",
"F.F.F.F.F.F.F.F.F.F.F.F.F.F.F.F.F.F.F.F.F.F.F.F.F.F.F.F.F.F.F.F.F.F.F.F.F.F.F.F.F.F.F.F.F.F.F.F.F.F.",
"F.F.F.F.F.F.F.F.F.F.F.F.F.F.F.F.F.F.F.F.F.F.F.F.F.F.F.F.N F.F.F.F.F.F.F.F.F.F.F.F.F.F.F.F.F.F.F.F.F.",
"F.F.F.F.F.F.F.F.F.F.F.F.F.F.F.F.F.F.F.F.F.F.F.F.F.F.F.F.N N F.F.F.F.F.F.F.F.F.F.F.F.F.F.F.F.F.F.F.F.",
"F.F.F.F.F.F.F.F.F.F.F.F.F.F.F.F.F.F.F.F.F.F.F.F.F.F.F.F.N N F.F.F.F.F.F.F.F.F.F.F.F.F.F.F.F.F.F.F.F.",
"F.F.F.F.F.F.F.F.F.F.F.F.F.F.F.F.F.F.F.F.F.F.F.F.F.F.F.F.F.F.F.F.F.F.F.F.F.F.F.F.F.F.F.F.F.F.F.F.F.F.",
"F.F.F.F.F.F.F.F.F.F.F.F.F.F.F.F.F.F.F.F.F.F.F.F.F.F.F.F.F.F.F.F.F.F.F.F.F.F.F.F.F.F.F.F.F.F.F.F.F.F.",
"F.F.F.F.F.F.F.F.F.F.F.F.F.F.F.F.F.F.F.F.F.F.F.F.F.F.F.F.F.F.N N N F.F.F.N F.F.F.F.F.F.F.F.F.F.F.F.F.",
"F.F.F.F.F.F.F.F.F.F.F.F.F.F.F.F.F.F.F.F.F.F.F.F.F.F.F.F.F.F.N [ | F.F.F.N F.F.F.F.F.F.F.F.F.F.F.F.F.",
"F.F.F.F.F.F.F.F.F.F.F.F.F.F.F.F.F.F.F.F.F.F.F.F.F.F.F.F.F.F.N 9.q.N F.F.F.F.F.F.F.F.F.F.F.F.F.F.F.F.",
"F.F.F.F.F.F.F.F.F.F.F.F.F.F.F.F.F.F.F.F.F.F.F.F.F.F.F.N F.F.F.E { q.| N F.F.F.F.F.F.F.F.F.F.F.F.F.F.",
"F.F.F.F.F.F.F.F.F.F.F.F.F.F.F.F.F.F.F.F.F.F.F.F.F.F.F.N F.F.F.L ^ q.[ N F.F.F.F.F.F.F.F.F.F.F.F.F.F.",
"F.F.F.F.F.F.F.F.F.F.F.F.F.F.F.F.F.F.F.F.F.F.w.F.F.F.F.F.F.F.N ( ` ] L N F.F.F.F.F.F.F.F.F.F.F.F.F.F.",
"F.F.F.F.F.F.F.F.F.F.F.F.F.F.F.F.F.F.F.F.F.F.F.F.F.F.F.N N L ! 4.7.] P N F.F.F.F.F.F.F.F.F.F.F.F.F.F.",
"F.F.F.F.F.F.F.F.F.F.F.F.F.F.F.F.F.F.F.F.F.F.F.F.F.F.F.S S P o.0.0._ L N F.F.F.F.F.F.F.F.F.F.F.F.F.F.",
"F.F.F.F.F.F.F.F.F.F.F.F.F.F.F.F.N F.F.F.F.F.F.N N N P ] ] 5.w.+._ N F.F.F.F.F.F.F.F.F.F.F.F.F.F.F.F.",
"F.F.F.F.F.F.F.F.F.F.F.F.F.F.F.F.N F.F.F.F.N N P Q ( O.4.4.0.w.+._ N F.F.F.F.F.F.F.F.F.F.F.F.F.F.F.F.",
"F.F.F.F.F.F.F.F.F.F.F.F.F.F.F.F.N F.F.F.B B N ( X.X.6.w.w.w.t.+.] N F.F.F.F.F.F.F.F.F.F.F.F.F.F.F.F.",
"F.F.F.F.F.F.F.F.F.F.F.F.F.F.F.F.F.F.F.N ) X.] 4.w.w.w.w.w.0.] L B F.F.F.F.F.F.F.F.F.F.F.F.F.F.F.F.F.",
"F.F.F.F.F.F.F.F.F.F.F.F.F.F.F.F.F.F.F P +.6.6.0.w.w.t.w.w.0.] G N F.F.F.F.F.F.F.F.F.F.F.F.F.F.F.F.F.",
"F.F.F.F.F.F.F.F.F.F.F.F.F.F.F.F.F.N G ] 0.x.w.w.w.w.w.w.w.8.] G N F.F.F.N N F.F.F.F.F.F.F.F.F.F.F.F.",
"F.F.F.F.F.F.F.F.F.F.F.F.F.F.F.F.N ) O.w.w.w.w.w.w.w.w.w.w.w.w.O.) N F.F.` F.F.F.F.F.F.F.F.F.F.F.F.F.",
"F.F.F.F.F.F.F.F.F.F.F.F.F.F.F.G L O.6.w.v.v.v.v.v.v.v.v.l.v.w.+.] N F.F.X.F.F.F.F.F.F.F.F.F.F.F.F.F.",
"F.F.F.F.F.F.F.F.F.F.F.F.F.F.N P ] q.w.w.n.B.B.M.B.B.B.B.B.n.w.+.) N F.F.F.F.F.F.F.F.F.F.F.F.F.F.F.F.",
"F.F.F.F.F.F.F.F.F.F.F.F.F.F.N L ] q.a.N.B.B.A.A.A.A.A.A.B.M.N.p.7.) L N F.F.F.F.F.F.F.F.F.F.F.F.F.F.",
"F.F.F.F.F.F.F.F.F.F.F.F.F.F.N P ] y.l.N.M.B.A.S.S.D.S.A.B.B.M.c.e.@.P F F.F.F.F.F.F.F.F.F.F.F.F.F.F.",
"F.F.F.F.F.F.F.F.F.F.F.F.F.F.N L ] w %.x.N.B.M.Z.D.D.Z.B.B.n.w.w.u.3 T ` N F.F.F.F.F.F.F.F.F.F.F.F.F.",
"F.F.F.F.F.F.F.F.F.F.F.F.F.N (  .8.s y >.z.b.B.V.C.C.V.B.b.v.w.m.*.4 d.7.( P N F.F.F.F.F.F.F.F.F.F.F.",
"F.F.F.F.F.F.F.F.F.F.F.F.N N ] 5.x.d 7 4 j.a.B.M.M.M.M.B.a.w.r.&.7 5 g.q.X.W N F.F.F.F.F.F.F.F.F.F.F.",
"F.F.F.F.F.F.F.F.F.F.F.F.F.N ] 5.w.d 7 7 7 i w.w.w.w.w.w.w.h.4 7 7 5 Y X.X.W N F.F.F.F.F.F.F.F.F.F.F.",
"F.F.F.F.F.F.F.F.F.F.F.F.F.N W } 4.p 7 6 :.<.<.<.<.t.k.<.<.<.<.a 7 6 Y X.] W N F.F.F.F.F.F.F.F.F.F.F.",
"F.F.F.F.F.F.F.F.F.F.F.F.F.N N L X.u 7 4 h.p.5 6 q t.f.5 6 -.x.%.7 6 T X.X.W N F.F.F.F.F.F.F.F.F.F.F.",
"F.F.F.F.F.F.F.F.F.F.F.F.F.j N P X.X.R 5 e r 5 f.i.w.t.i.i 0 t 0 9 V ( ` A b j F.F.F.F.F.F.F.F.F.F.F.",
"F.F.F.F.F.F.F.F.F.F.F.F.F.g v H ' ) @.$.=.;.$.s.w.w.e.7.,.>.>.$.#.N I / B M j F.F.F.F.F.F.F.F.F.F.F.",
"F.F.F.F.F.F.F.F.F.F.F.F.F.; j k D N F ] 9.w.] 4.w.w.4.) w.x.x.~ N N n n C k j F.F.F.F.F.F.F.F.F.F.F.",
"F.F.F.F.F.F.F.F.F.F.F.F.F.o ; x C Z Z F X.+.w.1.E E 1.w.+.} E F N C x : j % & F.F.F.F.F.F.F.F.F.F.F.",
"F.F.F.F.F.F.F.F.F.F.F.F.F.o = : D C C N Q ..8.| N N | 9.../ N B B C z ; h $ o F.F.F.F.F.F.F.F.F.F.F.",
"F.F.F.F.F.F.F.F.F.F.F.F.F.F.X @ 2 D C C C n N N N N N N n C C C l 1 > ; X X F.F.F.F.F.F.F.F.F.F.F.F.",
"F.F.F.F.F.F.F.F.F.F.F.F.F.F.F.. . : x C C C n B N N B Z C C C C c ; - . F.F.F.F.F.F.F.F.F.F.F.F.F.F.",
"F.F.F.F.F.F.F.F.F.F.F.F.F.F.F.F.X = : c C C D m N N m D D D D C c = @ X F.F.F.F.F.F.F.F.F.F.F.F.F.F.",
"F.F.F.F.F.F.F.F.F.F.F.F.F.F.F.F.F.X X   < 1 2 2 2 1 > 2 1 1 ; 2 = X F.F.F.F.F.F.F.F.F.F.F.F.F.F.F.F.",
"F.F.F.F.F.F.F.F.F.F.F.F.F.F.F.F.F.F.X X O O @ @ @ * # @ * # @ @ @ F.F.F.F.F.F.F.F.F.F.F.F.F.F.F.F.F.",
"F.F.F.F.F.F.F.F.F.F.F.F.F.F.F.F.F.F.F.X X X X X X X X X X X X X X F.F.F.F.F.F.F.F.F.F.F.F.F.F.F.F.F."
};
