/* XPM */
static char *result[] = {
/* columns rows colors chars-per-pixel */
"50 50 162 2 ",
"   c #3F0918",
".  c #4E0719",
"X  c #420918",
"o  c #560017",
"O  c #5E0C16",
"+  c #55071B",
"@  c #5B041B",
"#  c #5E0A18",
"$  c #78020E",
"%  c #600015",
"&  c #6C021E",
"*  c #610A19",
"=  c #74011E",
"-  c #7E051B",
";  c #790C18",
":  c #7A0E16",
">  c #701014",
",  c #7B1213",
"<  c #730020",
"1  c #09005A",
"2  c #250059",
"3  c #2C0059",
"4  c #340058",
"5  c #380058",
"6  c #3F1158",
"7  c #580052",
"8  c #471D57",
"9  c #5E1753",
"0  c #542E56",
"q  c #5B3555",
"w  c #642352",
"e  c #683D53",
"r  c #5A5A5A",
"t  c #54575B",
"y  c #664054",
"u  c #6E4152",
"i  c #734C52",
"p  c #635F59",
"a  c #8E0002",
"s  c #87000F",
"d  c #850206",
"f  c #930201",
"g  c #9B0C07",
"h  c #9E140E",
"j  c #84081A",
"k  c #8B0918",
"l  c #9D1111",
"z  c #A80001",
"x  c #A60B0C",
"c  c #AB0A08",
"v  c #A40802",
"b  c #B50100",
"n  c #B40A03",
"m  c #B2000D",
"M  c #A4130D",
"N  c #AA120A",
"B  c #B91E01",
"V  c #B81502",
"C  c #A11310",
"Z  c #BA2303",
"A  c #BC2A05",
"S  c #B22D0B",
"D  c #BE3D00",
"F  c #B0300F",
"G  c #BF3608",
"H  c #BE3C16",
"J  c #C03709",
"K  c #C13C0A",
"L  c #BF410E",
"P  c #BE4B24",
"I  c #B14E37",
"U  c #B04C38",
"Y  c #BC5630",
"T  c #C24B01",
"R  c #C5440D",
"E  c #C74A0E",
"W  c #C84E0F",
"Q  c #C85C00",
"!  c #C75507",
"~  c #C44C12",
"^  c #C84E11",
"/  c #CD5614",
"(  c #CE5B14",
")  c #C95719",
"_  c #D25E16",
"`  c #CC6801",
"'  c #D26B0E",
"]  c #D17401",
"[  c #D67D02",
"{  c #D7760F",
"}  c #CE6313",
"|  c #D26115",
" . c #D56C13",
".. c #D97713",
"X. c #DB7A13",
"o. c #C45728",
"O. c #830042",
"+. c #843549",
"@. c #825A4F",
"#. c #805850",
"$. c #9B6848",
"%. c #976C4A",
"&. c #9F7048",
"*. c #9C7F4D",
"=. c #A17448",
"-. c #AA7A45",
";. c #BC8A3F",
":. c #DA8403",
">. c #DF9002",
",. c #E19402",
"<. c #EB9D0C",
"1. c #E18A11",
"2. c #E59110",
"3. c #EEA905",
"4. c #EDA40B",
"5. c #EBA503",
"6. c #F0A706",
"7. c #F1AC03",
"8. c #F1AA0A",
"9. c #F6B406",
"0. c #F8B706",
"q. c #FBBD03",
"w. c #F5B30B",
"e. c #F7BA0F",
"r. c #FABC0A",
"t. c #E8A81F",
"y. c #EDB21F",
"u. c #F6B912",
"i. c #FBBE13",
"p. c #F1B51B",
"a. c #F5BA1C",
"s. c #D5982F",
"d. c #C88835",
"f. c #C6923B",
"g. c #D19934",
"h. c #DEAA2F",
"j. c #DCA42E",
"k. c #D6A134",
"l. c #E3AA28",
"z. c #ECB120",
"x. c #EEB62A",
"c. c #E6B234",
"v. c #FEC000",
"b. c #FAC01C",
"n. c #FAC123",
"m. c #FAC32C",
"M. c #F9C536",
"N. c #F9C639",
"B. c #F8C83E",
"V. c #B88740",
"C. c #F7CB47",
"Z. c #F8CA43",
"A. c #F7CC4A",
"S. c #F7CE55",
"D. c #F7CF59",
"F. c #F7D05D",
"G. c #F7D264",
"H. c #F7D369",
"J. c #F7D674",
"K. c #F7D778",
"L. c #F7D87A",
"P. c None",
/* pixels */
"P.P.P.P.P.P.P.P.P.P.P.P.P.P.P.P.P.P.P.P.P.P.P.P.P.P.P.P.P.P.P.P.P.P.P.P.P.P.P.P.P.P.P.P.P.P.P.P.P.P.",
"P.P.P.P.P.P.P.P.P.P.P.P.P.P.P.P.P.P.P.P.P.P.P.P.P.P.P.P.P.P.P.P.P.P.P.P.P.P.P.P.P.P.P.P.P.P.P.P.P.P.",
"P.P.P.P.P.P.P.P.P.P.P.P.P.P.P.P.P.P.P.P.P.P.P.P.P.P.P.P.r r r P.P.P.P.P.P.P.P.P.P.P.P.P.P.P.P.P.P.P.",
"P.P.P.P.P.P.P.P.P.P.P.P.P.P.P.P.P.P.P.P.P.P.P.P.P.P.P.P.r r P.P.P.P.P.P.P.P.P.P.P.P.P.P.P.P.P.P.P.P.",
"P.P.P.P.P.P.P.P.P.P.P.P.P.P.P.P.P.P.P.P.P.P.P.P.P.P.P.P.*.V.P.P.P.P.P.P.P.P.P.P.P.P.P.P.P.P.P.P.P.P.",
"P.P.P.P.P.P.P.P.P.P.P.P.P.P.P.P.P.P.P.P.P.P.P.P.P.P.P.P.q.q.P.P.P.P.P.P.q.q.r.P.P.P.P.P.P.P.P.P.P.P.",
"P.P.P.P.P.P.P.P.P.P.P.P.P.P.P.P.P.P.P.P.P.P.P.P.P.P.P.P.P.P.P.P.P.P.q.q.P.P.P.P.P.P.P.P.P.P.P.P.P.P.",
"P.P.P.P.P.P.P.P.P.P.P.P.P.P.P.P.P.P.P.P.P.P.P.P.P.P.P.P.P.P.P.P.P.P.q.q.P.P.P.P.P.P.P.P.P.P.P.P.P.P.",
"P.P.P.P.P.P.P.P.P.P.P.P.P.P.P.P.P.P.P.P.P.P.r P.P.P.P.P.P.P.P.P.P.P.P.P.P.P.P.P.P.P.P.P.P.P.P.P.P.P.",
"P.P.P.P.P.P.P.P.P.P.P.P.P.P.P.P.P.P.P.P.P.P.r P.P.P.P.P.P.P.P.P.P.P.P.P.P.P.P.P.P.P.P.P.P.P.P.P.P.P.",
"P.P.P.P.P.P.P.P.P.P.P.P.P.P.P.P.P.P.P.P.P.P.r P.P.P.P.P.P.P.P.P.P.P.P.P.P.P.P.P.P.P.P.P.P.P.P.P.P.P.",
"P.P.P.P.P.P.P.P.P.P.P.P.P.P.P.P.P.P.P.P.P.P.P.P.P.P.P.P.b b P.P.P.P.P.P.P.P.P.P.P.P.P.P.P.P.P.P.P.P.",
"P.P.P.P.P.P.P.P.P.P.P.P.P.P.P.P.P.P.P.P.P.P.P.P.P.P.P.P.P.P.P.P.P.P.P.P.P.P.P.P.P.r P.P.P.P.P.P.P.P.",
"P.P.P.P.P.P.P.P.P.P.P.P.P.P.P.P.P.P.P.P.P.P.P.P.P.n n b P.P.P.P.P.P.P.P.P.P.P.P.P.r P.P.P.P.P.P.P.P.",
"P.P.P.P.P.P.P.P.P.P.P.P.P.P.P.P.P.P.P.P.P.P.P.b B 0.,.b P.P.P.P.P.P.P.P.P.P.P.P.P.u.P.P.P.P.P.P.P.P.",
"P.P.P.P.P.P.P.P.P.P.P.P.P.P.P.P.P.P.P.P.P.P.P.` ] q.,.b P.P.P.P.P.P.P.P.P.P.P.P.P.q.P.P.P.P.P.P.P.P.",
"P.P.P.P.P.P.P.P.P.P.P.P.P.P.P.P.P.P.P.P.P.P.b ,.q.v.,.b P.P.P.P.P.P.P.P.P.P.P.P.P.P.P.P.P.P.P.P.P.P.",
"P.P.P.P.P.P.P.P.P.P.P.P.P.P.P.P.P.P.P.P.b D 9.9.q.! T P.P.P.P.P.P.P.P.P.P.P.P.P.P.P.r r P.P.P.P.P.P.",
"P.P.P.P.P.P.P.P.P.P.P.P.P.P.P.P.P.P.P.P.b D q.9.5.B P.P.P.P.P.P.P.P.P.P.P.P.P.P.P.P.r r P.P.P.P.P.P.",
"P.P.P.P.P.P.P.P.P.P.P.P.P.P.P.P.q.P.P.P.b D q.[ b P.P.P.P.P.P.P.P.P.P.P.P.P.P.t t r P.P.P.P.P.P.P.P.",
"P.P.P.P.P.P.P.P.P.P.P.P.P.P.P.P.P.P.P.b ~ | q.:.b P.P.P.P.P.P.P.P.P.P.P.P.P.P.h.k.P.P.P.P.P.P.P.P.P.",
"P.P.P.P.P.P.P.P.P.P.P.P.P.P.P.P.P.P.P.b _ ..0.[ b P.P.P.P.P.P.P.P.P.P.P.P.P.P.q.q.P.P.P.P.P.P.P.P.P.",
"P.P.P.P.P.P.P.P.P.P.P.P.P.P.P.P.P.P.P.b 5.9._ K b b b P.P.P.P.P.P.P.P.P.P.P.P.P.P.P.P.P.P.P.P.P.P.P.",
"P.P.P.P.P.P.P.P.P.P.P.r P.P.P.P.P.P.S R 3.q.<.{ E E K b P.P.P.P.P.P.P.P.P.P.P.P.P.P.P.P.P.P.P.P.P.P.",
"P.P.P.P.P.P.P.P.P.P.P.p p P.P.P.P.M F _ 8.q.v.2.| | ^ b P.P.P.P.P.P.P.P.P.P.P.P.P.P.P.P.P.P.P.P.P.P.",
"P.P.P.P.P.P.P.P.P.P.P.e.e.P.P.P.P.b A _ 8.q.q.q.q.q.<._ B b b P.P.P.P.P.P.P.P.P.P.P.P.P.P.P.P.P.P.P.",
"P.P.P.P.P.P.P.P.P.P.P.q.P.P.P.P.P.K ( 2.w.q.q.n.M.q.8.2.E K K J P.P.P.P.P.P.P.P.P.P.P.P.P.P.P.P.P.P.",
"P.P.P.P.P.P.P.P.P.P.P.P.P.P.P.P.M ( X.q.q.q.q.M.C.r.q.q. ._ _ Z b P.P.P.P.P.P.P.P.P.P.P.P.P.P.P.P.P.",
"P.P.P.P.P.P.P.P.P.P.P.P.P.P.P.P.b ( X.q.q.i.C.C.A.C.M.q.0.0.0.X./ b P.P.P.P.P.q.q.P.P.P.P.P.P.P.P.P.",
"P.P.P.P.P.P.P.P.P.P.P.P.P.P.P.A A X.2.q.n.m.A.S.D.A.N.n.r.q.q.X.( b P.P.P.P.P.8.8.P.P.P.P.P.P.P.P.P.",
"P.P.P.P.P.P.q.0._ P.P.P.P.P.b J | 9.q.q.B.A.C.H.L.A.C.A.i.q.q.X./ b P.P.P.P.P._ _ P.P.P.P.P.P.P.P.P.",
"P.P.P.P.P.q.P.P._ P.P.P.P.P.b J _ 9.b.Z.C.A.J.K.L.J.G.C.Z.M.q.w.4./ G b P.P.P.P.P.P.P.P.P.P.P.P.P.P.",
"P.P.P.P.P.q.P.P.| P.P.P.P.P.b J _ t.x.Z.C.A.J.K.K.J.G.A.Z.N.q.q.w.o.H Z P.P.P.P.P.P.P.P.P.P.P.P.P.P.",
"P.P.P.P.P.P.q.q.P.P.P.P.P.P.b J | 9 @.q.Z.A.C.H.L.A.A.A.i.q.q.v.z.1 U _ b P.P.P.P.P.P.P.P.P.P.P.P.P.",
"P.P.P.P.P.P.P.P.P.P.P.P.P.b ^ ..3.u q &.c.m.A.D.D.C.B.m.r.q.q.V.%.2 d.4.^ K b P.P.P.P.P.P.P.P.P.P.P.",
"P.P.P.P.P.P.P.P.P.P.P.P.b b _ 1.v.i 5 3 j.a.C.C.C.C.M.q.q.r.e.#.4 3 g.9.| R b P.P.P.P.P.P.P.P.P.P.P.",
"P.P.P.P.P.P.P.P.P.P.P.P.P.b _ 1.q.i 5 4 4 e q.q.q.r.q.q.q.j.2 4 5 4 I | | R b P.P.P.P.P.P.P.P.P.P.P.",
"P.P.P.P.P.P.P.P.P.P.P.P.P.b R ' <.e y ;.;.;.;.;.;.r.l.;.u.y.;.e 4 3 I _ | R b P.P.P.P.P.P.P.P.P.P.P.",
"P.P.P.P.P.P.P.P.P.P.P.P.P.b b J | w @.q.q.p.3 4 8 r.f.2 p.q.v.#.5 4 I | _ R b P.P.P.P.P.P.P.P.P.P.P.",
"P.P.P.P.P.P.P.P.P.P.P.P.P.f b J | | Y 0 0 0 3 f.u.q.r.u.i 0 0 8 7 m ^ _ V c f P.P.P.P.P.P.P.P.P.P.P.",
"P.P.P.P.P.P.P.P.P.P.P.P.P.s z S ^ ) P +.$.&.+.s.q.q.9.4.-.=.-.e O.b L ~ c v f P.P.P.P.P.P.P.P.P.P.P.",
"P.P.P.P.P.P.P.P.P.P.P.P.P.= a g C b A _ 7.q._ <.v.q.<./ q.q.q.Q b b c x M g f P.P.P.P.P.P.P.P.P.P.P.",
"P.P.P.P.P.P.P.P.P.P.P.P.P.o = k M N N B | X.9.:.T T :.9.X.' T Z b N k j f $ % P.P.P.P.P.P.P.P.P.P.P.",
"P.P.P.P.P.P.P.P.P.P.P.P.P.o & j C M N n E } 7.] b b ] 7._ E b n n h j = d $ o P.P.P.P.P.P.P.P.P.P.P.",
"P.P.P.P.P.P.P.P.P.P.P.P.P.P.X + < C M M M x b b b b b b x M M M l , ; = X X P.P.P.P.P.P.P.P.P.P.P.P.",
"P.P.P.P.P.P.P.P.P.P.P.P.P.P.P.. . - k M N M x n b b n c M M M N l = @ + P.P.P.P.P.P.P.P.P.P.P.P.P.P.",
"P.P.P.P.P.P.P.P.P.P.P.P.P.P.P.P.X & - l M M C c m b c C C C l M l & @ X P.P.P.P.P.P.P.P.P.P.P.P.P.P.",
"P.P.P.P.P.P.P.P.P.P.P.P.P.P.P.P.P.X     > , = = = , ; < , , = = & X P.P.P.P.P.P.P.P.P.P.P.P.P.P.P.P.",
"P.P.P.P.P.P.P.P.P.P.P.P.P.P.P.P.P.P.X X O O @ @ @ * O @ * * # @ @ P.P.P.P.P.P.P.P.P.P.P.P.P.P.P.P.P.",
"P.P.P.P.P.P.P.P.P.P.P.P.P.P.P.P.P.P.P.X X X X X X X X X X X X X X P.P.P.P.P.P.P.P.P.P.P.P.P.P.P.P.P."
};
