/* XPM */
static char *result[] = {
/* columns rows colors chars-per-pixel */
"50 50 156 2 ",
"   c #3F0918",
".  c #4E0719",
"X  c #420918",
"o  c #560017",
"O  c #5E0C16",
"+  c #55071B",
"@  c #5B041B",
"#  c #5E0A18",
"$  c #73010F",
"%  c #7D020D",
"&  c #600015",
"*  c #600D16",
"=  c #6C021E",
"-  c #61061B",
";  c #74011E",
":  c #7E051B",
">  c #790C18",
",  c #7A0E16",
"<  c #701014",
"1  c #7B1213",
"2  c #730020",
"3  c #09005A",
"4  c #260059",
"5  c #2C0059",
"6  c #330058",
"7  c #380058",
"8  c #3F1158",
"9  c #580052",
"0  c #411557",
"q  c #471D57",
"w  c #5E1753",
"e  c #4E2756",
"r  c #532C56",
"t  c #563056",
"y  c #5B3555",
"u  c #642352",
"i  c #623D54",
"p  c #6C3C52",
"a  c #664054",
"s  c #6E4152",
"d  c #734C52",
"f  c #8E0002",
"g  c #87000F",
"h  c #850206",
"j  c #930201",
"k  c #9B0C07",
"l  c #9E140E",
"z  c #84081A",
"x  c #8B0918",
"c  c #9D1111",
"v  c #A80001",
"b  c #A60B01",
"n  c #A60B0C",
"m  c #AB0A08",
"M  c #A10402",
"N  c #B50100",
"B  c #B60A02",
"V  c #B2000D",
"C  c #A4130D",
"Z  c #AA120A",
"A  c #B81401",
"S  c #B91C02",
"D  c #A11310",
"F  c #BA2303",
"G  c #BC2B05",
"H  c #B42E07",
"J  c #BF3608",
"K  c #BE3C16",
"L  c #C03709",
"P  c #C13B0A",
"I  c #BF410E",
"U  c #BE4B24",
"Y  c #B14E37",
"T  c #B04C38",
"R  c #BB5430",
"E  c #C24C01",
"W  c #C5440D",
"Q  c #C74A0F",
"!  c #C84E0F",
"~  c #C75B01",
"^  c #C85C00",
"/  c #C55106",
"(  c #C44C12",
")  c #C84E11",
"_  c #CC5413",
"`  c #CE5914",
"'  c #C95719",
"]  c #D25E16",
"[  c #CE6B03",
"{  c #D26B0E",
"}  c #D17401",
"|  c #D7760F",
" . c #CE6313",
".. c #D26116",
"X. c #D56C13",
"o. c #D87612",
"O. c #DB7A13",
"+. c #C45728",
"@. c #830042",
"#. c #843549",
"$. c #82594F",
"%. c #805850",
"&. c #976C4A",
"*. c #9B6848",
"=. c #91664C",
"-. c #9F7048",
";. c #A57747",
":. c #A17448",
">. c #AA7A45",
",. c #BC8A3F",
"<. c #DA8403",
"1. c #DC810F",
"2. c #DE8113",
"3. c #EB9D0C",
"4. c #E18A11",
"5. c #E49110",
"6. c #EEA40B",
"7. c #F0A706",
"8. c #F1AC03",
"9. c #F1AB0A",
"0. c #F7B507",
"q. c #FBBD03",
"w. c #F5B30B",
"e. c #F7BA0F",
"r. c #F9BC0A",
"t. c #E8A81F",
"y. c #EDB21F",
"u. c #F6B912",
"i. c #F3B51C",
"p. c #F8BC18",
"a. c #D5982F",
"s. c #C88835",
"d. c #C6923B",
"f. c #D19934",
"g. c #DDA52E",
"h. c #D7A031",
"j. c #E3AA28",
"k. c #EEB62A",
"l. c #E6B234",
"z. c #FEC001",
"x. c #FAC01D",
"c. c #FAC123",
"v. c #F9C32E",
"b. c #F9C535",
"n. c #F8C83E",
"m. c #B88740",
"M. c #F7CB47",
"N. c #F8CA43",
"B. c #F7CC4A",
"V. c #F7CE56",
"C. c #F7D05D",
"Z. c #F7D369",
"A. c #F7D673",
"S. c #F7D778",
"D. c #F7D87B",
"F. c None",
/* pixels */
"F.F.F.F.F.F.F.F.F.F.F.F.F.F.F.F.F.F.F.F.F.F.F.F.F.F.F.F.F.F.F.F.F.F.F.F.F.F.F.F.F.F.F.F.F.F.F.F.F.F.",
"F.F.F.F.F.F.F.F.F.F.F.F.F.F.F.F.F.F.F.F.F.F.F.F.F.F.F.F.F.F.F.F.F.F.F.F.F.F.F.F.F.F.F.F.F.F.F.F.F.F.",
"F.F.F.F.F.F.F.F.F.F.F.F.F.F.F.F.F.F.F.F.F.F.F.F.F.F.F.F.F.F.F.F.F.F.F.F.F.F.F.F.F.F.F.F.F.F.F.F.F.F.",
"F.F.F.F.F.F.F.F.F.F.F.F.F.F.F.F.F.F.F.F.F.F.F.F.F.F.F.F.F.F.F.F.F.F.F.F.F.F.F.F.F.F.F.F.F.F.F.F.F.F.",
"F.F.F.F.F.F.F.F.F.F.F.F.F.F.F.F.F.F.F.F.F.F.F.F.F.F.F.F.F.F.F.F.F.F.F.F.F.F.F.F.F.F.F.F.F.F.F.F.F.F.",
"F.F.F.F.F.F.F.F.F.F.F.F.F.F.F.F.F.F.F.F.F.F.F.F.F.F.F.F.F.F.F.F.F.F.F.F.F.F.F.F.F.F.F.F.F.F.F.F.F.F.",
"F.F.F.F.F.F.F.F.F.F.F.F.F.F.F.F.F.F.F.F.F.F.F.F.F.F.F.F.F.F.F.F.F.F.F.F.F.F.F.F.F.F.F.F.F.F.F.F.F.F.",
"F.F.F.F.F.F.F.F.F.F.F.F.F.F.F.F.F.F.F.F.F.F.F.F.F.F.F.F.F.F.F.F.F.F.F.F.F.F.F.F.F.F.F.F.F.F.F.F.F.F.",
"F.F.F.F.F.F.F.F.F.F.F.F.F.F.F.F.F.F.F.F.F.F.F.F.F.F.F.F.F.F.F.F.F.F.F.F.F.F.F.F.F.F.F.F.F.F.F.F.F.F.",
"F.F.F.F.F.F.F.F.F.F.F.F.F.F.F.F.F.F.F.F.F.F.F.F.F.F.F.F.N F.F.F.F.F.F.F.F.F.F.F.F.F.F.F.F.F.F.F.F.F.",
"F.F.F.F.F.F.F.F.F.F.F.F.F.F.F.F.F.F.F.F.F.F.F.F.F.F.F.F.A A F.F.F.F.F.F.F.F.F.F.F.F.F.F.F.F.F.F.F.F.",
"F.F.F.F.F.F.F.F.F.F.F.F.F.F.F.F.F.F.F.F.F.F.F.F.F.F.F.F.] ..F.F.F.F.F.F.F.F.F.F.F.F.F.F.F.F.F.F.F.F.",
"F.F.F.F.F.F.F.F.F.F.F.F.F.F.F.F.F.F.F.F.F.F.F.F.F.F.F.F.F.F.F.F.F.N F.F.F.F.F.F.F.F.F.F.F.F.F.F.F.F.",
"F.F.F.F.F.F.F.F.F.F.F.F.F.F.F.F.F.F.F.F.F.F.F.F.F.F.F.F.F.F.F.F.F.N F.F.F.F.F.F.F.F.F.F.F.F.F.F.F.F.",
"F.F.F.F.F.F.F.F.F.F.F.F.F.F.F.F.F.F.F.F.F.F.F.F.F.F.F.F.F.F.F.N N N F.F.q.F.F.F.F.F.F.F.F.F.F.F.F.F.",
"F.F.F.F.F.F.F.F.F.F.F.F.F.F.F.F.F.F.F.F.F.F.F.F.F.F.F.F.F.F.F.N G } ^ F.r.F.F.F.F.F.F.F.F.F.F.F.F.F.",
"F.F.F.F.F.F.F.F.F.F.F.F.F.F.F.F.F.F.F.F.F.F.F.F.F.F.F.F.F.F.F.N E z.} N F.F.F.F.F.F.F.F.F.F.F.F.F.F.",
"F.F.F.F.F.F.F.F.F.F.F.F.F.F.F.F.F.F.F.F.F.F.q.F.F.F.F.N F.F.F.N E z.} N F.F.F.F.F.F.F.F.F.F.F.F.F.F.",
"F.F.F.F.F.F.F.F.F.F.F.F.F.F.F.F.F.F.F.F.F.F.q.F.F.F.F.N F.F.F.L / w.[ N F.F.F.F.F.F.F.F.F.F.F.F.F.F.",
"F.F.F.F.F.F.F.F.F.F.F.F.F.F.F.F.F.F.F.F.F.F.F.F.F.F.F.F.F.F.N ) ] ] L N F.F.F.F.F.F.F.F.F.F.F.F.F.F.",
"F.F.F.F.F.F.F.F.F.F.F.F.F.F.F.F.F.F.F.F.F.F.F.F.F.F.F.N N L ! 3.6...L N F.F.F.F.F.F.F.F.F.F.F.F.F.F.",
"F.F.F.F.F.F.F.F.F.F.F.F.F.F.F.F.F.F.F.F.F.F.F.F.F.F.F.S S P X.9.9.` L N F.F.F.F.F.F.F.F.F.F.F.F.F.F.",
"F.F.F.F.F.F.F.F.F.F.F.F.F.F.F.F.N F.F.F.F.F.F.N N N P ] ] 4.q.O.` N F.F.F.F.F.F.F.F.F.F.F.F.F.F.F.F.",
"F.F.F.F.F.F.F.F.F.F.F.F.F.F.F.F.Q F.F.F.F.N N P Q ) o.3.3.9.q.O.` N F.F.F.F.F.F.F.F.F.F.F.F.F.F.F.F.",
"F.F.F.F.F.F.F.F.F.F.F.F.F.F.F.F...F.F.F.B B B ! ....5.q.q.q.q.O.] N F.F.F.F.F.F.F.F.F.F.F.F.F.F.F.F.",
"F.F.F.F.F.F.F.F.F.F.F.F.F.F.F.F.F.F.F.N ! ] ] 3.q.q.r.q.q.9...G B F.F.F.N F.F.F.F.F.F.F.F.F.F.F.F.F.",
"F.F.F.F.F.F.F.F.F.F.F.F.F.F.F.F.F.F.S P 1.5.5.9.q.q.q.q.r.9...G N F.F.F.P F.F.F.F.F.F.F.F.F.F.F.F.F.",
"F.F.F.F.F.F.F.F.F.F.F.F.F.F.F.F.F.N L ] 9.q.q.q.q.q.q.q.q.9.] G N F.F.F...F.F.F.F.F.F.F.F.F.F.F.F.F.",
"F.F.F.F.F.F.F.F.F.F.F.F.F.F.F.F.N _ o.q.q.q.q.b.M.M.b.q.q.q.q.o._ N F.F...F.F.F.F.F.F.F.F.F.F.F.F.F.",
"F.F.F.F.F.F.F.F.F.F.F.F.F.F.F.G L o.5.q.c.c.c.n.M.B.n.c.k.c.q.O.` N F.F...F.F.F.F.F.F.F.F.F.F.F.F.F.",
"F.F.F.F.F.F.F.F.F.F.F.F.F.F.N P ] 0.q.q.n.B.M.M.M.B.B.B.B.n.q.O._ N F.F.F.F.F.F.F.F.F.F.F.F.F.F.F.F.",
"F.F.F.F.F.F.F.F.F.F.F.F.F.F.N L ] 0.p.N.B.B.A.A.A.A.A.A.B.M.N.i.6._ J N F.F.F.F.F.F.F.F.F.F.F.F.F.F.",
"F.F.F.F.F.F.F.F.F.F.F.F.F.F.N P ] t.k.N.M.B.A.S.S.D.S.A.B.B.M.x.w.+.P F F.F.F.F.F.F.F.F.F.F.F.F.F.F.",
"F.F.F.F.F.F.F.F.F.F.F.F.F.F.N L ] w $.z.N.B.M.Z.D.D.Z.B.B.n.q.q.y.3 T ] N F.F.F.F.F.F.F.F.F.F.F.F.F.",
"F.F.F.F.F.F.F.F.F.F.F.F.F.N ) | 7.s y :.l.v.B.V.C.C.V.B.v.x.z.m.&.4 s.6.) P N F.F.F.F.F.F.F.F.F.F.F.",
"F.F.F.F.F.F.F.F.F.F.F.F.N N ] 4.z.d 7 4 h.p.B.M.M.M.M.B.x.r.e.%.7 5 f.w...W N F.F.F.F.F.F.F.F.F.F.F.",
"F.F.F.F.F.F.F.F.F.F.F.F.F.N ] 4.q.d 7 7 7 i q.q.q.q.q.z.q.g.4 7 7 5 Y ....W N F.F.F.F.F.F.F.F.F.F.F.",
"F.F.F.F.F.F.F.F.F.F.F.F.F.N W { 3.p 7 6 ;.,.,.,.,.r.j.m.d.m.,.a 7 5 Y ] ..W N F.F.F.F.F.F.F.F.F.F.F.",
"F.F.F.F.F.F.F.F.F.F.F.F.F.N N L ..u 7 4 g.i.5 6 q r.d.5 6 =.z.%.7 6 Y ....W N F.F.F.F.F.F.F.F.F.F.F.",
"F.F.F.F.F.F.F.F.F.F.F.F.F.j N P ....R 5 e r 5 d.u.q.r.u.i 8 t 8 9 V ) ] A m j F.F.F.F.F.F.F.F.F.F.F.",
"F.F.F.F.F.F.F.F.F.F.F.F.F.g v H ) _ U #.*.-.#.a.q.q.0.6.>.:.:.#.@.N W ( N k j F.F.F.F.F.F.F.F.F.F.F.",
"F.F.F.F.F.F.F.F.F.F.F.F.F.; f k C N G ] 8.q.` 6.z.q.3._ q.z.z.~ N N m C C k j F.F.F.F.F.F.F.F.F.F.F.",
"F.F.F.F.F.F.F.F.F.F.F.F.F.o ; x C Z Z S ..O.0.<.E E <.0.O.{ E F N Z x : j % & F.F.F.F.F.F.F.F.F.F.F.",
"F.F.F.F.F.F.F.F.F.F.F.F.F.o = z D C C B Q  .8.} N N } 8. .( N B B l z ; h $ o F.F.F.F.F.F.F.F.F.F.F.",
"F.F.F.F.F.F.F.F.F.F.F.F.F.F.X + 2 D C C n n N N N N N N n Z C C c 1 > ; X X F.F.F.F.F.F.F.F.F.F.F.F.",
"F.F.F.F.F.F.F.F.F.F.F.F.F.F.F.+ . : x C C C Z B N N B m C C C C c ; @ + F.F.F.F.F.F.F.F.F.F.F.F.F.F.",
"F.F.F.F.F.F.F.F.F.F.F.F.F.F.F.F.X = : c D C c n N N m D D D C D c ; + X F.F.F.F.F.F.F.F.F.F.F.F.F.F.",
"F.F.F.F.F.F.F.F.F.F.F.F.F.F.F.F.F.X X   < 1 2 2 2 1 > 2 1 1 2 2 = X F.F.F.F.F.F.F.F.F.F.F.F.F.F.F.F.",
"F.F.F.F.F.F.F.F.F.F.F.F.F.F.F.F.F.F.X X O O @ @ @ * # @ * O @ @ @ F.F.F.F.F.F.F.F.F.F.F.F.F.F.F.F.F.",
"F.F.F.F.F.F.F.F.F.F.F.F.F.F.F.F.F.F.F.X X X X X X X X X X X X X X F.F.F.F.F.F.F.F.F.F.F.F.F.F.F.F.F."
};
