/* XPM */
static char *result[] = {
/* columns rows colors chars-per-pixel */
"50 50 161 2 ",
"   c #3F0918",
".  c #4E0719",
"X  c #420918",
"o  c #560017",
"O  c #5E0C16",
"+  c #55071B",
"@  c #5B041B",
"#  c #5E0A18",
"$  c #73010F",
"%  c #7D020D",
"&  c #600015",
"*  c #600D16",
"=  c #6C021E",
"-  c #61061B",
";  c #74011E",
":  c #7E051B",
">  c #790C18",
",  c #7A0E16",
"<  c #701014",
"1  c #7B1213",
"2  c #730020",
"3  c #09005A",
"4  c #250059",
"5  c #2B0059",
"6  c #330058",
"7  c #380058",
"8  c #411557",
"9  c #451A57",
"0  c #5E1753",
"q  c #4E2756",
"w  c #542E56",
"e  c #5B3555",
"r  c #692B50",
"t  c #642352",
"y  c #623D54",
"u  c #6C3C52",
"i  c #56595A",
"p  c #5A5A5A",
"a  c #6E4152",
"s  c #734C52",
"d  c #8E0002",
"f  c #87000F",
"g  c #850206",
"h  c #930201",
"j  c #9B0C07",
"k  c #9E140E",
"l  c #84081A",
"z  c #8B0918",
"x  c #9D1111",
"c  c #A80001",
"v  c #A60B0C",
"b  c #AB0A08",
"n  c #A40802",
"m  c #B50100",
"M  c #B60A01",
"N  c #B2000D",
"B  c #A4130D",
"V  c #AA120A",
"C  c #B81602",
"Z  c #BA1C03",
"A  c #A11310",
"S  c #BA2403",
"D  c #BC2A05",
"F  c #B42E07",
"G  c #BF3608",
"H  c #BE3C16",
"J  c #C03709",
"K  c #C13A0A",
"L  c #BF410E",
"P  c #BE4B24",
"I  c #B14E37",
"U  c #B04C38",
"Y  c #BB5430",
"T  c #C24B01",
"R  c #C5440D",
"E  c #C84E0F",
"W  c #C85C00",
"Q  c #CA570C",
"!  c #C44C12",
"~  c #C84E11",
"^  c #CC5514",
"/  c #CE5B14",
"(  c #C95719",
")  c #D25D16",
"_  c #D26B0E",
"`  c #D17302",
"'  c #D6730F",
"]  c #CE6313",
"[  c #D26115",
"{  c #D46A13",
"}  c #D87612",
"|  c #DB7A13",
" . c #C45728",
".. c #830042",
"X. c #843549",
"o. c #80584F",
"O. c #805850",
"+. c #9B6848",
"@. c #94694B",
"#. c #9F7048",
"$. c #836F54",
"%. c #8F7751",
"&. c #A57747",
"*. c #AC7D45",
"=. c #A17448",
"-. c #BC8A3F",
";. c #D98303",
":. c #DC810F",
">. c #EB9D0C",
",. c #E08612",
"<. c #E18A11",
"1. c #E49010",
"2. c #EBA403",
"3. c #EDA40B",
"4. c #F0A706",
"5. c #F1AC03",
"6. c #F1AB0A",
"7. c #F6B405",
"8. c #FBBD03",
"9. c #F5B30B",
"0. c #F7BA0F",
"q. c #FABC0A",
"w. c #E8A81F",
"e. c #EDB21F",
"r. c #F6B912",
"t. c #FBBE13",
"y. c #F1B71B",
"u. c #F5BA1C",
"i. c #D5982F",
"p. c #C88835",
"a. c #C5923B",
"s. c #CA993B",
"d. c #D19934",
"f. c #DDA52E",
"g. c #D7A031",
"h. c #D9A230",
"j. c #E3AA28",
"k. c #EBB123",
"l. c #EEB62A",
"z. c #E6B234",
"x. c #FEC000",
"c. c #FAC01C",
"v. c #FAC123",
"b. c #FAC32C",
"n. c #F9C536",
"m. c #F9C639",
"M. c #F8C83E",
"N. c #B08143",
"B. c #B88740",
"V. c #F7CB47",
"C. c #F8CA43",
"Z. c #F7CC4A",
"A. c #F7CE55",
"S. c #F7CF59",
"D. c #F7D05D",
"F. c #F7D264",
"G. c #F7D369",
"H. c #F7D674",
"J. c #F7D778",
"K. c #F7D87A",
"L. c None",
/* pixels */
"L.L.L.L.L.L.L.L.L.L.L.L.L.L.L.L.L.L.L.L.L.L.L.L.L.L.L.L.L.L.L.L.L.L.p p L.L.L.L.L.L.L.L.L.L.L.L.L.L.",
"L.L.L.L.L.L.L.L.L.L.L.L.L.L.L.L.L.L.L.L.L.L.L.L.L.L.L.L.L.L.L.L.L.L.L.p L.L.L.L.L.L.L.L.L.L.L.L.L.L.",
"L.L.L.L.L.L.L.L.L.L.L.L.L.L.L.L.L.L.L.L.L.L.L.L.L.L.L.L.p p p L.L.L.L.L.p p p L.L.L.L.L.L.L.L.L.L.L.",
"L.L.L.L.L.L.L.L.L.L.L.L.L.L.L.L.L.L.L.p L.L.L.L.L.L.L.L.L.L.p L.L.L.L.L.y.k.L.L.L.L.L.L.L.L.L.L.L.L.",
"L.L.L.L.L.L.L.L.L.L.L.L.L.L.L.L.L.L.L.p L.L.L.L.L.L.L.L.L.L.p L.L.L.L.L.8.L.L.L.L.L.L.L.L.L.L.L.L.L.",
"L.L.L.L.L.L.L.L.L.L.L.L.L.L.L.L.L.L.L.p L.L.L.L.L.L.L.L.L.L.L.L.L.L.8.8.L.8.8.L.L.L.L.L.L.L.L.L.L.L.",
"L.L.L.L.L.L.L.L.L.L.L.L.L.L.L.L.L.L.L.L.L.L.p L.L.m L.L.L.L.L.L.L.L.L.L.L.L.L.L.L.L.L.L.L.L.L.L.L.L.",
"L.L.L.L.L.L.L.L.L.L.L.L.L.L.L.L.L.L.L.L.L.L.p L.L.m L.L.L.L.L.L.L.L.L.L.L.L.L.L.L.L.L.L.L.L.L.L.L.L.",
"L.L.L.L.L.L.L.L.L.L.L.L.L.L.L.L.L.L.L.L.L.L.p L.L.L.L.L.L.L.L.L.L.L.L.L.L.L.L.L.L.L.L.L.L.L.L.L.L.L.",
"L.L.L.L.L.L.L.L.L.L.L.L.L.L.L.L.L.m m L.L.L.L.L.L.L.L.L.L.L.L.L.L.L.L.L.L.L.L.L.L.L.L.L.L.L.L.L.L.L.",
"L.L.L.L.L.L.L.L.L.L.L.L.L.L.L.L.L.m m L.L.L.L.L.L.L.L.L.L.L.L.L.L.L.L.L.L.L.L.L.L.L.L.L.L.L.L.L.L.L.",
"L.L.L.L.L.L.L.L.L.L.L.L.L.L.L.L.L.L.L.L.L.L.m L.L.L.L.L.L.L.L.L.L.L.L.L.L.L.L.L.L.p L.L.L.L.L.L.L.L.",
"L.L.L.L.L.L.L.L.L.L.L.L.L.L.L.L.L.L.L.L.L.L.m L.L.L.L.L.L.L.L.L.L.L.L.L.L.L.L.L.L.p L.L.L.L.L.L.L.L.",
"L.L.L.L.L.L.L.L.L.L.L.L.L.L.L.L.L.L.L.L.M M L.L.L.L.L.L.L.L.L.L.L.L.L.L.L.L.L.L.L.p L.L.L.L.L.L.L.L.",
"L.L.L.L.L.L.L.L.L.L.L.L.L.L.L.L.L.L.L.L.7.7.m L.L.L.L.L.L.L.L.L.L.L.L.L.L.L.L.L.L.L.L.L.L.L.L.L.L.L.",
"L.L.L.L.L.L.L.L.L.L.L.L.L.L.L.L.L.L.L.L.7.7.m L.L.L.L.L.L.L.L.L.L.L.L.L.L.L.L.L.L.L.L.L.L.L.L.L.L.L.",
"L.L.L.L.L.L.L.L.L.L.L.L.L.L.L.L.L.L.L.m 2.7.m L.L.L.L.L.L.L.L.L.L.L.L.L.L.L.L.L.L.p L.L.L.L.L.L.L.L.",
"L.L.L.L.L.L.L.L.L.L.L.L.L.L.L.L.L.L.L.m 2.7.m L.L.L.L.L.L.L.L.L.L.L.L.L.L.L.L.p p p L.L.L.L.L.L.L.L.",
"L.L.L.L.L.L.L.L.L.L.L.L.L.L.L.L.L.L.L.m 2.7.S D L.L.L.L.L.L.L.L.L.L.L.L.L.L.L.%.$.p L.L.L.L.L.L.L.L.",
"L.L.L.L.L.L.L.L.L.L.L.L.L.L.L.L.L.L.L.m 2.q.) K m L.L.L.L.L.L.L.L.L.L.L.L.L.L.8.8.L.L.L.L.L.L.L.L.L.",
"L.L.L.L.L.L.L.L.L.L.L.L.L.L.L.L.L.L.L.m ' ,.6.` m L.L.L.L.L.L.L.L.L.L.L.L.L.L.L.L.L.L.L.L.L.L.L.L.L.",
"L.L.L.L.L.L.L.L.L.L.L.L.L.L.L.L.L.L.L.C ) | x.;.C L.L.L.L.L.L.L.L.L.L.L.L.L.L.L.L.L.L.L.L.L.L.L.L.L.",
"L.L.L.L.L.L.L.L.L.L.L.i p L.L.L.L.m D ) 6.8.8.<.) M m m L.L.L.L.L.L.m m L.L.L.L.L.L.L.L.L.L.L.L.L.L.",
"L.L.L.L.L.L.L.L.L.L.L.s.L.L.L.L.L.m D ) 6.8.8.6.>.E J m m L.L.L.L.L.L.L.L.L.L.L.L.L.L.L.L.L.L.L.L.L.",
"L.L.L.L.L.L.L.L.L.L.L.8.L.L.L.L.L.m D ) 6.8.8.8.8.{ ~ m M M L.L.L.L.L.L.L.L.L.L.L.L.L.L.L.L.L.L.L.L.",
"L.L.L.L.L.L.L.L.L.L.L.L.L.L.L.L.L.m D ) 6.8.8.8.8.8.>.) ) ^ m L.L.L.L.L.L.L.L.L.L.L.L.L.L.L.L.L.L.L.",
"L.L.L.L.L.L.L.L.L.L.L.L.L.L.L.L.L.K Q 1.7.8.8.v.l.q.9.1.1.| K D L.L.L.L.L.L.L.L.L.L.L.L.L.L.L.L.L.L.",
"L.L.L.L.L.L.i p p L.L.L.L.L.L.L.A ) | 8.8.8.8.m.Z.x.q.8.8.6.) D m L.L.L.L.L.L.8.8.L.L.L.L.L.L.L.L.L.",
"L.L.L.L.L.L.y.y.L.L.L.L.L.L.L.L.m ^ | 8.8.c.C.V.V.V.n.8.8.8.8.} ^ m L.L.L.L.L.8.8.L.L.L.L.L.L.L.L.L.",
"L.L.L.L.L.L.8.8.L.L.L.L.L.L.L.D J } 1.8.u.b.Z.A.S.Z.M.v.q.8.8.| / m L.L.L.L.L.8.L.L.L.L.L.L.L.L.L.L.",
"L.L.L.L.L.L.8.8.L.L.L.L.L.L.m K ) 7.8.8.M.Z.V.G.K.Z.V.Z.t.8.8.| ^ m L.L.L.L.L.L.L.L.L.L.L.L.L.L.L.L.",
"L.L.L.L.L.L.L.L.8.L.L.L.L.L.m K ) 7.c.C.Z.Z.H.H.K.H.F.V.C.m.8.9.3.^ G m L.L.L.L.L.L.L.L.L.L.L.L.L.L.",
"L.L.L.L.L.L.L.L.q.L.L.L.L.L.m J ) w.l.C.Z.Z.H.J.K.H.F.Z.V.m.8.8.9. .H S L.L.L.L.L.L.L.L.L.L.L.L.L.L.",
"L.L.L.L.L.L.L.L.L.L.L.L.L.L.m J ) 0 o.x.C.Z.Z.G.K.Z.Z.Z.t.8.8.8.e.3 U / m L.L.L.L.L.L.L.L.L.L.L.L.L.",
"L.L.L.L.L.L.L.L.L.L.L.L.L.m ~ } 4.a e =.z.b.Z.A.S.V.M.b.x.q.x.B.+.4 p.3.^ K m L.L.L.L.L.L.L.L.L.L.L.",
"L.L.L.L.L.L.L.L.L.L.L.L.m m ) <.x.s 7 4 h.u.V.V.V.V.n.8.8.q.0.O.7 4 d.7.[ R m L.L.L.L.L.L.L.L.L.L.L.",
"L.L.L.L.L.L.L.L.L.L.L.L.L.m [ <.8.s 7 7 7 y 8.8.8.8.8.8.x.f.4 7 7 5 U [ [ R m L.L.L.L.L.L.L.L.L.L.L.",
"L.L.L.L.L.L.L.L.L.L.L.L.L.m R _ >.u 7 6 &.a.8.f.B.q.j.B.a.B.B.B.N.5 U [ [ R m L.L.L.L.L.L.L.L.L.L.L.",
"L.L.L.L.L.L.L.L.L.L.L.L.L.m m J [ t 7 4 f.8.8.*.9 q.a.5 6 @.8.8.k.4 I [ [ R m L.L.L.L.L.L.L.L.L.L.L.",
"L.L.L.L.L.L.L.L.L.L.L.L.L.h m J [ ) Y 6 q w w a.t.8.q.r.y 8 w w r N ~ [ C n h L.L.L.L.L.L.L.L.L.L.L.",
"L.L.L.L.L.L.L.L.L.L.L.L.L.f c F ~ ^ P X.+.=.X.i.8.q.7.3.*.=.=.X...m R ! m j h L.L.L.L.L.L.L.L.L.L.L.",
"L.L.L.L.L.L.L.L.L.L.L.L.L.; d j B m D ) 5.7.) >.x.x.>.^ 8.x.x.W m m b B B j h L.L.L.L.L.L.L.L.L.L.L.",
"L.L.L.L.L.L.L.L.L.L.L.L.L.o ; z B B V S { | 7.;.T T ;.7.} _ T S m V z : h % & L.L.L.L.L.L.L.L.L.L.L.",
"L.L.L.L.L.L.L.L.L.L.L.L.L.o = : A B B m ! ] 5.` m m ` 5.] ! m M M x l ; g $ o L.L.L.L.L.L.L.L.L.L.L.",
"L.L.L.L.L.L.L.L.L.L.L.L.L.L.X @ 2 x B B B v m m m m m m v B B B x 1 > ; X X L.L.L.L.L.L.L.L.L.L.L.L.",
"L.L.L.L.L.L.L.L.L.L.L.L.L.L.L.. + : z B B B v M m m M b B B B B x ; - . L.L.L.L.L.L.L.L.L.L.L.L.L.L.",
"L.L.L.L.L.L.L.L.L.L.L.L.L.L.L.L.X = : k B B A b N m b A A A A B x 2 + X L.L.L.L.L.L.L.L.L.L.L.L.L.L.",
"L.L.L.L.L.L.L.L.L.L.L.L.L.L.L.L.L.X     < 1 ; 2 ; 1 > 2 1 1 ; 2 = X L.L.L.L.L.L.L.L.L.L.L.L.L.L.L.L.",
"L.L.L.L.L.L.L.L.L.L.L.L.L.L.L.L.L.L.X X O O @ @ @ * # @ * # @ @ @ L.L.L.L.L.L.L.L.L.L.L.L.L.L.L.L.L.",
"L.L.L.L.L.L.L.L.L.L.L.L.L.L.L.L.L.L.L.X X X X X X X X X X X X X X L.L.L.L.L.L.L.L.L.L.L.L.L.L.L.L.L."
};
