/* XPM */
static char *result[] = {
/* columns rows colors chars-per-pixel */
"50 50 158 2 ",
"   c #3F0918",
".  c #4E0719",
"X  c #420918",
"o  c #560017",
"O  c #5E0C16",
"+  c #55071B",
"@  c #5B041B",
"#  c #5E0A18",
"$  c #73010F",
"%  c #7D020D",
"&  c #600015",
"*  c #600D16",
"=  c #6C021E",
"-  c #61061B",
";  c #74011E",
":  c #7E051B",
">  c #790C18",
",  c #7A0E16",
"<  c #701014",
"1  c #7B1213",
"2  c #730020",
"3  c #09005A",
"4  c #250059",
"5  c #2C0059",
"6  c #340058",
"7  c #380058",
"8  c #3F1158",
"9  c #580052",
"0  c #471D57",
"q  c #5E1753",
"w  c #542E56",
"e  c #5B3555",
"r  c #642352",
"t  c #683D53",
"y  c #664054",
"u  c #6E4152",
"i  c #734C52",
"p  c #8E0002",
"a  c #87000F",
"s  c #850206",
"d  c #930201",
"f  c #9B0C07",
"g  c #9E140E",
"h  c #84081A",
"j  c #8B0918",
"k  c #9D1111",
"l  c #A80001",
"z  c #A60B01",
"x  c #A60B0C",
"c  c #AB0A08",
"v  c #A10402",
"b  c #B50100",
"n  c #B60A02",
"m  c #B2000D",
"M  c #A4130D",
"N  c #AA120A",
"B  c #B81402",
"V  c #BA1D03",
"C  c #A11310",
"Z  c #BA2303",
"A  c #BC2A05",
"S  c #B42E07",
"D  c #BF3608",
"F  c #BE3C16",
"G  c #C03709",
"H  c #C13A0A",
"J  c #BF410E",
"K  c #BE4B24",
"L  c #B14E37",
"P  c #B04C38",
"I  c #BC5630",
"U  c #C24B01",
"Y  c #C5440D",
"T  c #C74A0F",
"R  c #C84E0F",
"E  c #C65A01",
"W  c #C85C00",
"Q  c #C44C12",
"!  c #C84E11",
"~  c #CC5413",
"^  c #CB5817",
"/  c #D25D16",
"(  c #CA6301",
")  c #D26B0E",
"_  c #D17201",
"`  c #D6730F",
"'  c #D67D02",
"]  c #CE6313",
"[  c #D26116",
"{  c #D56B14",
"}  c #D87612",
"|  c #DA7A12",
" . c #C45728",
".. c #830042",
"X. c #843549",
"o. c #825A4F",
"O. c #805850",
"+. c #9B6848",
"@. c #976C4A",
"#. c #9F7048",
"$. c #A17448",
"%. c #AA7A45",
"&. c #BC8A3F",
"*. c #DA8403",
"=. c #DC810F",
"-. c #DE890A",
";. c #E79E03",
":. c #E6930F",
">. c #EA9C0D",
",. c #E08612",
"<. c #E18A11",
"1. c #E49110",
"2. c #ECA603",
"3. c #EFAB03",
"4. c #EDA40B",
"5. c #F0A706",
"6. c #F1AC03",
"7. c #F1AA0A",
"8. c #F5B305",
"9. c #FBBD03",
"0. c #F7BA0F",
"q. c #F9BC0A",
"w. c #F4B30D",
"e. c #E8A81F",
"r. c #EDB21F",
"t. c #F6B912",
"y. c #FBBE14",
"u. c #F2B51C",
"i. c #F5BA1C",
"p. c #D5982F",
"a. c #C88835",
"s. c #C6923B",
"d. c #D19934",
"f. c #DCA42E",
"g. c #D7A031",
"h. c #E3AA28",
"j. c #ECB120",
"k. c #EEB62A",
"l. c #F1B025",
"z. c #E6B234",
"x. c #FEC000",
"c. c #FAC01D",
"v. c #FAC122",
"b. c #F9C32D",
"n. c #F9C638",
"m. c #F8C83F",
"M. c #B88740",
"N. c #F7CB47",
"B. c #F8CA43",
"V. c #F7CC4A",
"C. c #F7CE55",
"Z. c #F7CF5A",
"A. c #F7D05D",
"S. c #F7D369",
"D. c #F7D675",
"F. c #F7D778",
"G. c #F7D87B",
"H. c None",
/* pixels */
"H.H.H.H.H.H.H.H.H.H.H.H.H.H.H.H.H.H.H.H.H.H.H.H.H.H.H.H.H.H.H.H.H.H.H.H.H.H.H.H.H.H.H.H.H.H.H.H.H.H.",
"H.H.H.H.H.H.H.H.H.H.H.H.H.H.H.H.H.H.H.H.H.H.H.H.H.H.H.H.H.H.H.H.H.H.H.H.H.H.H.H.H.H.H.H.H.H.H.H.H.H.",
"H.H.H.H.H.H.H.H.H.H.H.H.H.H.H.H.H.H.H.H.H.H.H.H.H.H.H.H.H.H.H.H.H.H.H.H.H.H.H.H.H.H.H.H.H.H.H.H.H.H.",
"H.H.H.H.H.H.H.H.H.H.H.H.H.H.H.H.H.H.H.H.H.H.H.H.H.H.H.H.H.H.H.H.H.H.H.H.H.H.H.H.H.H.H.H.H.H.H.H.H.H.",
"H.H.H.H.H.H.H.H.H.H.H.H.H.H.H.H.H.H.H.H.H.H.H.H.H.H.H.H.H.H.H.H.H.H.H.H.H.H.H.H.H.H.H.H.H.H.H.H.H.H.",
"H.H.H.H.H.H.H.H.H.H.H.H.H.H.H.H.H.H.H.H.H.H.H.H.H.H.H.H.H.H.H.H.H.H.H.H.H.H.H.H.H.H.H.H.H.H.H.H.H.H.",
"H.H.H.H.H.H.H.H.H.H.H.H.H.H.H.H.H.H.H.H.H.H.H.H.H.H.H.H.H.H.H.H.H.H.H.H.H.H.H.H.H.H.H.H.H.H.H.H.H.H.",
"H.H.H.H.H.H.H.H.H.H.H.H.H.H.H.H.H.H.H.H.H.H.H.H.H.H.H.H.H.H.H.H.H.H.H.H.H.H.H.H.H.H.H.H.H.H.H.H.H.H.",
"H.H.H.H.H.H.H.H.H.H.H.H.H.H.H.H.H.H.H.H.H.H.H.H.H.H.H.H.H.H.H.H.H.H.b B / [ H.H.H.H.H.H.H.H.H.H.H.H.",
"H.H.H.H.H.H.H.H.H.H.H.H.H.H.H.H.H.H.H.H.H.H.H.H.H.H.H.H.9.H.H.H.H.H.H.H.H.H.H.H.H.H.H.H.H.H.H.H.H.H.",
"H.H.H.H.H.H.H.H.H.H.H.H.H.H.H.H.H.H.H.H.H.H.H.H.H.H.H.H.9.9.H.H.H.H.H.H.H.H.H.H.H.H.H.H.H.H.H.H.H.H.",
"H.H.H.H.H.H.H.H.H.H.H.H.H.H.H.H.H.H.H.H.H.H.H.H.H.H.H.H.9.9.H.H.H.H.H.H.H.H.H.H.H.H.H.H.H.H.H.H.H.H.",
"H.H.H.H.H.H.H.H.H.H.H.H.H.H.H.H.H.H.H.H.H.H.H.H.H.H.H.H.H.H.H.H.H.H.H.H.H.H.H.H.H.H.H.H.H.H.H.H.H.H.",
"H.H.H.H.H.H.H.H.H.H.H.H.H.H.H.H.H.H.H.H.H.H.H.H.H.H.H.H.H.H.H.H.H.H.H.H.H.H.H.H.H.H.H.H.H.H.H.H.H.H.",
"H.H.H.H.H.H.H.H.H.H.H.H.H.H.H.H.H.H.H.H.H.H.9.H.H.H.H.H.H.H.H.H.H.H.H.H.H.H.H.H.H.H.H.H.H.H.H.H.H.H.",
"H.H.H.H.H.H.H.H.H.H.H.H.H.H.H.H.H.H.H.H.H.H.9.H.H.H.H.H.H.H.H.H.H.H.H.H.H.H.H.H.H.H.H.H.H.H.H.H.H.H.",
"H.H.H.H.H.H.H.H.H.H.H.H.H.H.H.H.H.H.H.H.H.H.H.H.H.H.H.H.b b b b b b H.H.H.H.H.H.H.H.H.H.H.H.H.H.H.H.",
"H.H.H.H.H.H.H.H.H.H.H.H.H.H.H.H.H.H.H.H.H.H.H.H.H.H.H.b ~ | 8.8.8.8._ b H.H.H.H.H.H.H.H.H.H.H.H.H.H.",
"H.H.H.H.H.H.H.H.H.H.H.H.H.H.H.H.H.H.H.H.H.H.H.H.H.H.Z A } -.3.3.3.6.' E H.H.H.H.H.H.H.H.H.H.H.H.H.H.",
"H.H.H.H.H.H.H.H.H.H.H.H.H.H.H.H.H.H.H.H.H.H.H.H.H.b H / q.2.b b b b ;.9.n b H.H.H.[ H.H.H.H.H.H.H.H.",
"H.H.H.H.H.H.H.H.H.H.H.H.H.H.H.H.H.H.H.H.H.H.H.H.n ~ =.7.,.` b H.H.H.( ( b H.H.H.H.H.H.H.H.H.H.H.H.H.",
"H.H.H.H.H.H.H.H.H.H.H.H.H.H.H.H.H.H.H.H.H.H.H.B Z { :.9.{ ~ b H.H.H.b b b H.H.H.H.H.H.H.H.H.H.H.H.H.",
"H.H.H.H.H.H.H.H.H.H.H.H.H.H.H.H.9.H.H.H.H.H.b ! [ 9.9.9.{ ~ b H.H.H.H.H.H.H.H.H.H.H.H.H.H.H.H.H.H.H.",
"H.H.H.H.H.H.H.H.H.H.H.H.H.H.H.H.H.H.H.H.H.b b ! [ 9.9.q.4.-.b H.H.H.H.H.9.9.9.H.H.H.H.H.H.H.H.H.H.H.",
"H.H.H.H.H.H.H.H.H.H.H.H.H.H.H.H.H.H.H.H.n n b R { q.9.9.9.2.b H.H.H.H.H.q.9.9.H.H.H.H.H.H.H.H.H.H.H.",
"H.H.H.H.H.H.H.H.H.H.H.H.H.H.H.H.H.H.H.b ~ / / >.9.9.9.9.9.7./ A b H.H.H.[ >.9.H.H.H.H.H.H.H.H.H.H.H.",
"H.H.H.H.H.H.H.H.H.H.H.H.H.H.H.H.H.H.Z H =.:.:.l.b.b.v.9.q.7./ A b H.H.H./ >.9.H.H.H.H.H.H.H.H.H.H.H.",
"H.H.H.H.H.H.H.H.H.H.H.H.H.H.H.H.H.b A / 7.9.9.n.V.V.n.9.9.7./ A b H.H.H.H.H.H.H.H.H.H.H.H.H.H.H.H.H.",
"H.H.H.H.H.H.H.H.H.H.H.H.H.H.H.H.b ~ } 8.9.y.B.V.N.V.V.B.y.9.q.} ~ b H.H.H.H.H.H.H.H.H.H.H.H.H.H.H.H.",
"H.H.H.H.H.H.H.H.H.H.H.H.H.H.H.G G | :.9.c.b.V.C.Z.Z.C.V.b.i.9.| / b H.H.H.H.H.H.H.H.H.H.H.H.H.H.H.H.",
"H.H.H.H.H.H.H.H.H.H.H./ [ H.b H [ 8.9.9.m.V.N.S.G.G.S.N.V.m.9.| ~ b H.H.H.H.H.H.H.H.H.H.H.H.H.H.H.H.",
"H.H.H.H.H.H.H.H.H.H.H.[ H.H.b H / w.y.m.N.V.D.F.G.G.F.D.V.N.B.u.4.~ G b H.H.H.H.H.H.H.H.H.H.H.H.H.H.",
"H.H.H.H.H.H.H.H.H.H.H.[ H.H.b H / e.k.B.V.V.F.F.G.G.F.D.V.V.N.c.w. .F Z H.H.H.H.H.H.H.H.H.H.H.H.H.H.",
"H.H.H.H.H.H.H.H.H.H.H.H.H.H.b G [ q i x.m.V.V.S.G.G.S.N.N.m.9.9.u.3 P / b H.H.H.H.H.H.H.H.H.H.H.H.H.",
"H.H.H.H.H.H.H.H.H.H.H.H.H.b ! ` 3.u e #.z.b.V.C.A.A.C.V.b.v.x.M.@.4 a.4.! H b H.H.H.H.H.H.H.H.H.H.H.",
"H.H.H.H.H.H.H.H.H.H.H.H.b b / <.x.i 7 5 f.i.V.N.N.N.N.N.c.q.t.O.7 5 d.8.[ Y b H.H.H.H.H.H.H.H.H.H.H.",
"H.H.H.H.H.H.H.H.H.H.H.H.H.b / <.9.i 7 6 6 t 9.9.x.9.x.x.q.f.4 7 7 5 L [ [ Y b H.H.H.H.H.H.H.H.H.H.H.",
"H.H.H.H.H.H.H.H.H.H.H.H.H.b Y ` >.t y &.&.&.&.&.&.q.h.M.t.j.M.y 7 6 L / [ Y b H.H.H.H.H.H.H.H.H.H.H.",
"H.H.H.H.H.H.H.H.H.H.H.H.H.b b G [ r o.9.9.u.5 6 0 q.s.4 u.9.x.O.7 6 L [ [ Y b H.H.H.H.H.H.H.H.H.H.H.",
"H.H.H.H.H.H.H.H.H.H.H.H.H.d b G [ [ I w w w 5 s.t.x.q.t.i w w 8 9 m ! / B z p H.H.H.H.H.H.H.H.H.H.H.",
"H.H.H.H.H.H.H.H.H.H.H.H.H.a l S ! ~ K X.+.#.X.p.9.9.8.4.%.$.$.X...b J Q n v d H.H.H.H.H.H.H.H.H.H.H.",
"H.H.H.H.H.H.H.H.H.H.H.H.H.; p f M b A / 6.9./ 4.x.x.>.^ 9.x.x.W b b c M M f d H.H.H.H.H.H.H.H.H.H.H.",
"H.H.H.H.H.H.H.H.H.H.H.H.H.o ; j M N N Z [ | 8.*.U U *.8.| ) U Z b N j : d % & H.H.H.H.H.H.H.H.H.H.H.",
"H.H.H.H.H.H.H.H.H.H.H.H.H.o = h C M M b T ] 6._ b b _ 3.] Q b n n k h 2 s $ o H.H.H.H.H.H.H.H.H.H.H.",
"H.H.H.H.H.H.H.H.H.H.H.H.H.H.X + 2 C M M M x b b b b b b x M M M k 1 ; ; X X H.H.H.H.H.H.H.H.H.H.H.H.",
"H.H.H.H.H.H.H.H.H.H.H.H.H.H.H.. . : j M M M x n b b n c M M M M k > - . H.H.H.H.H.H.H.H.H.H.H.H.H.H.",
"H.H.H.H.H.H.H.H.H.H.H.H.H.H.H.H.X = : g M M M c m m c C M M C C k ; @ X H.H.H.H.H.H.H.H.H.H.H.H.H.H.",
"H.H.H.H.H.H.H.H.H.H.H.H.H.H.H.H.H.X     < 1 ; ; ; 1 > 2 1 , ; 2 = X H.H.H.H.H.H.H.H.H.H.H.H.H.H.H.H.",
"H.H.H.H.H.H.H.H.H.H.H.H.H.H.H.H.H.H.X X O O @ @ @ * # @ * * @ @ + H.H.H.H.H.H.H.H.H.H.H.H.H.H.H.H.H.",
"H.H.H.H.H.H.H.H.H.H.H.H.H.H.H.H.H.H.H.X X X X X X X X X X X X X X H.H.H.H.H.H.H.H.H.H.H.H.H.H.H.H.H."
};
