/* XPM */
static char *result[] = {
/* columns rows colors chars-per-pixel */
"50 50 163 2 ",
"   c #3F0918",
".  c #4E0719",
"X  c #420918",
"o  c #560017",
"O  c #5E0C16",
"+  c #55071B",
"@  c #5B041B",
"#  c #5E0A18",
"$  c #73010F",
"%  c #7D020D",
"&  c #600015",
"*  c #600D16",
"=  c #6C021E",
"-  c #61061B",
";  c #74011E",
":  c #7E051B",
">  c #790C18",
",  c #7A0E16",
"<  c #701014",
"1  c #7B1213",
"2  c #730020",
"3  c #09005A",
"4  c #250059",
"5  c #2B0059",
"6  c #350058",
"7  c #390158",
"8  c #451A57",
"9  c #5E1753",
"0  c #502956",
"q  c #5B3555",
"w  c #692B50",
"e  c #642352",
"r  c #633D54",
"t  c #6C3C52",
"y  c #5A5A5A",
"u  c #55585B",
"i  c #6A4153",
"p  c #734C52",
"a  c #676058",
"s  c #8E0002",
"d  c #87000F",
"f  c #850206",
"g  c #930201",
"h  c #9B0C07",
"j  c #9E140E",
"k  c #84081A",
"l  c #8B0918",
"z  c #9D1111",
"x  c #A80001",
"c  c #A60B0C",
"v  c #AB0A08",
"b  c #A40802",
"n  c #B50100",
"m  c #B40A03",
"M  c #B80E02",
"N  c #B2000D",
"B  c #A4130D",
"V  c #AA120A",
"C  c #B91B02",
"Z  c #B81502",
"A  c #A11310",
"S  c #BA2303",
"D  c #BC2A05",
"F  c #B42E07",
"G  c #BE3D00",
"H  c #BF3608",
"J  c #BE3C16",
"K  c #C03709",
"L  c #C13A0A",
"P  c #BF410E",
"I  c #BE4B24",
"U  c #B14E37",
"Y  c #B04C38",
"T  c #BB5430",
"R  c #C24B01",
"E  c #C4430D",
"W  c #C55501",
"Q  c #C65801",
"!  c #C85E01",
"~  c #CB560F",
"^  c #C44C12",
"/  c #C84E11",
"(  c #CC5413",
")  c #CB5817",
"_  c #D25D15",
"`  c #CA6401",
"'  c #D26B0E",
"]  c #D17401",
"[  c #D67F02",
"{  c #D7750F",
"}  c #CE6313",
"|  c #D26116",
" . c #D56D14",
".. c #D87612",
"X. c #DB7A13",
"o. c #C45728",
"O. c #830042",
"+. c #843549",
"@. c #80584F",
"#. c #805850",
"$. c #9B6848",
"%. c #976C4A",
"&. c #9F7048",
"*. c #A57747",
"=. c #AC7C45",
"-. c #A17448",
";. c #BC8A3F",
":. c #D78002",
">. c #DA8403",
",. c #DC810F",
"<. c #E29402",
"1. c #E79E03",
"2. c #E7960F",
"3. c #EB9D0C",
"4. c #E18A11",
"5. c #E49010",
"6. c #EDA40B",
"7. c #EEA903",
"8. c #F0A706",
"9. c #F1AD03",
"0. c #F1AB0A",
"q. c #F6B506",
"w. c #FBBD03",
"e. c #F4B209",
"r. c #F7BA0F",
"t. c #FABC0A",
"y. c #E8A81F",
"u. c #EDB21F",
"i. c #F6B912",
"p. c #FBBE13",
"a. c #F5BA1C",
"s. c #D5982F",
"d. c #C88835",
"f. c #C9973A",
"g. c #D19934",
"h. c #DDA52D",
"j. c #D7A031",
"k. c #D9A230",
"l. c #E4AB28",
"z. c #ECB120",
"x. c #EEB62A",
"c. c #E6B234",
"v. c #FEC001",
"b. c #FAC01C",
"n. c #FAC123",
"m. c #FAC32C",
"M. c #F9C536",
"N. c #F9C639",
"B. c #F8C83E",
"V. c #B88740",
"C. c #B38844",
"Z. c #F7CB47",
"A. c #F8CA43",
"S. c #F7CC4A",
"D. c #F7CE55",
"F. c #F7CF59",
"G. c #F7D05D",
"H. c #F7D264",
"J. c #F7D369",
"K. c #F7D674",
"L. c #F7D778",
"P. c #F7D87A",
"I. c None",
/* pixels */
"I.I.I.I.I.I.I.I.I.I.I.I.I.I.I.I.I.I.I.I.I.I.I.I.I.I.I.I.I.I.I.I.I.I.y y y I.I.I.I.I.I.I.I.I.I.I.I.I.",
"I.I.I.I.I.I.I.I.I.I.I.I.I.I.I.I.I.I.I.I.I.I.I.I.I.I.I.I.I.I.I.I.I.I.I.a C.I.I.I.I.I.I.I.I.I.I.I.I.I.",
"I.I.I.I.I.I.I.I.I.I.I.I.I.I.I.I.I.y y y I.I.I.I.I.I.I.I.I.I.y I.I.I.I.I.v.v.I.I.I.I.I.I.I.I.I.I.I.I.",
"I.I.I.I.I.I.I.I.I.I.I.I.I.I.I.I.I.I.I.y I.I.I.I.I.I.I.I.I.I.I.I.I.I.I.I.I.I.I.I.I.I.I.I.I.I.I.I.I.I.",
"I.I.I.I.I.I.I.I.I.I.I.I.I.I.I.I.I.I.I.y I.I.I.I.I.I.I.I.I.I.I.I.I.I.I.I.I.I.I.I.I.I.I.I.I.I.I.I.I.I.",
"I.I.I.I.I.I.I.I.I.I.I.I.I.I.I.I.I.I.I.I.I.I.y I.I.| | I.I.I.I.I.I.I.I.I.I.I.I.I.I.I.I.I.I.I.I.I.I.I.",
"I.I.I.I.I.I.I.I.I.I.I.I.I.I.I.I.I.I.I.I.I.I.y I.I.D D I.I.I.I.I.I.I.I.I.I.I.I.I.I.I.I.I.I.I.I.I.I.I.",
"I.I.I.I.I.I.I.I.I.I.I.I.I.I.I.I.I.I.I.I.I.I.y I.I.n I.I.I.I.I.I.I.I.I.I.I.I.I.I.I.I.I.I.I.I.I.I.I.I.",
"I.I.I.I.I.I.I.I.I.I.I.I.I.I.I.I.I.| | I.I.I.I.I.I.I.I.I.I.I.I.I.I.I.I.I.I.I.I.I.I.I.I.I.I.I.I.I.I.I.",
"I.I.I.I.I.I.I.I.I.I.I.I.I.I.I.I.I.L L I.I.I.I.I.I.I.I.I.I.I.I.I.I.I.I.I.I.I.I.I.I.I.I.I.I.I.I.I.I.I.",
"I.I.I.I.I.I.I.I.I.I.I.I.I.I.I.I.I.n n I.I.I.I.I.I.I.I.I.I.I.I.I.I.I.I.I.I.I.I.I.I.I.I.I.I.I.I.I.I.I.",
"I.I.I.I.I.I.I.I.I.I.I.I.I.I.n n I.I.I.I.I.I.I.I.I.I.I.I.I.I.I.I.I.I.I.I.I.I.I.I.I.I.I.I.I.I.I.I.I.I.",
"I.I.I.I.I.I.I.I.I.I.I.I.I.I.I.I.I.I.I.n I.I.I.I.I.I.I.I.I.I.I.I.I.I.I.I.I.I.I.I.I.I.I.I.I.I.I.I.I.I.",
"I.I.I.I.I.I.I.I.I.I.I.I.I.I.I.I.I.n n M I.I.I.I.I.I.I.I.I.I.I.I.I.I.I.I.I.I.I.I.I.I.I.I.I.I.I.I.I.I.",
"I.I.I.I.I.I.I.I.I.I.I.I.I.I.I.I.I.n Q w.` n n I.I.I.I.I.I.I.I.I.I.I.I.I.I.I.I.I.I.I.I.I.I.I.I.I.I.I.",
"I.I.I.I.I.I.I.I.I.I.I.I.I.I.I.I.I.n Q 1.:.] ] ` I.I.I.I.I.I.I.I.I.I.I.I.I.I.I.I.I.I.I.I.I.I.I.I.I.I.",
"I.I.I.I.I.I.I.I.I.I.I.I.I.I.I.I.I.I.I.n 7.w.v.:.n I.I.I.I.I.I.I.I.I.I.I.I.I.I.y y y I.I.I.I.I.I.I.I.",
"I.I.I.I.I.I.I.I.I.I.I.I.I.I.I.I.I.I.I.I.R ! w.q.e.C I.I.I.I.I.I.I.I.I.I.I.I.I.I.I.I.I.I.I.I.I.I.I.I.",
"I.I.I.I.I.I.I.I.I.I.I.I.I.I.I.I.I.I.I.I.n G 9.q.w.! W I.I.I.I.I.I.I.I.I.I.I.I.I.I.I.I.I.I.I.I.I.I.I.",
"I.I.I.I.I.I.I.I.I.I.I.I.I.I.I.I.I.I.I.I.I.I.n <.w.w.<.n I.I.I.I.I.I.I.I.I.I.I.I.I.I.I.I.I.I.I.I.I.I.",
"I.I.I.I.I.I.I.I.I.I.I.y I.I.I.I.I.I.I.I.n C ( 3.w.w.<.n I.I.I.I.I.I.I._ I.I.I.I.I.I.I.I.I.I.I.I.I.I.",
"I.I.I.I.I.I.I.I.I.I.I.y I.I.I.I.I.I.I.I.n C _ 3.w.w.<.M I.I.I.I.I.I._ _ I.I.I.I.I.I.I.I.I.I.I.I.I.I.",
"I.I.I.I.I.I.I.I.I.I.I.u I.I.I.I.I.I.I.I.n Z _ 3.w.w.3._ Z n I.I.I.I.n n I.I.I.I.I.I.I.I.I.I.I.I.I.I.",
"I.I.I.I.I.I.I.I.I.I.I.f.I.I.I.I.I.I.I.n E ~ 3.e.t.w.e.3.~ E n I.I.I.I.I.I.I.I.I.I.I.I.I.I.I.I.I.I.I.",
"I.I.I.I.I.I.I.I.I.I.I.w.I.I.I.I.I.I.I.n (  .w.w.w.w.w.t. .( n I.I.I.I.I.I.I.I.I.I.I.I.I.I.I.I.I.I.I.",
"I.I.I.I.I.I.y y y I.I.I.I.I.I.I.I.I.I.n (  .w.w.w.w.w.v. .( n I.I.I.I.I.I.I.I.w.w.I.I.I.I.I.I.I.I.I.",
"I.I.I.I.I.I.I.y y I.I.I.I.I.I.I.I.I.S L ,.2.w.n.M.w.w.w.2.,.L S I.I.I.I.I.I.I.w.w.I.I.I.I.I.I.I.I.I.",
"I.I.I.I.I.I.I.I.y I.I.I.I.I.I.I.I.n D _ 0.w.w.N.Z.t.w.w.w.0._ D n I.I.I.I.| | t.w.I.I.I.I.I.I.I.I.I.",
"I.I.I.I.I.I.I.I.I.I.I.I.I.I.I.I.n ( ..t.w.p.Z.Z.S.Z.M.w.w.t.t...( n I.I.I.I.| I.I.I.I.I.I.I.I.I.I.I.",
"I.I.I.I.I.I.I.I.I.I.I.I.I.I.I.D K ..5.w.b.m.S.D.F.Z.B.n.t.w.w.X._ n I.I.I.I.| I.I.I.I.I.I.I.I.I.I.I.",
"I.I.I.I.I.I.I.I.I.I.I.I.I.I.n L | q.w.w.A.S.Z.J.P.S.Z.S.p.w.w.X.) n I.I.I.I.I.I.I.I.I.I.I.I.I.I.I.I.",
"I.I.I.I.I.I.I.I.I.I.I.I.I.I.n L _ e.p.B.Z.S.K.K.P.K.H.Z.A.M.w.e.6.( K n I.I.I.I.I.I.I.I.I.I.I.I.I.I.",
"I.I.I.I.I.I.I.I.I.I.I.I.I.I.n L _ y.x.A.Z.S.K.L.P.K.H.S.Z.N.w.w.e.o.J S I.I.I.I.I.I.I.I.I.I.I.I.I.I.",
"I.I.I.I.I.I.I.I.I.I.I.I.I.I.n L | 9 @.v.A.S.Z.J.P.S.S.S.p.w.w.w.z.3 Y _ n I.I.I.I.I.I.I.I.I.I.I.I.I.",
"I.I.I.I.I.I.I.I.I.I.I.I.I.n / ..8.i q -.c.m.S.F.G.Z.B.m.v.t.w.;.%.4 d.6.( L n I.I.I.I.I.I.I.I.I.I.I.",
"I.I.I.I.I.I.I.I.I.I.I.I.n n _ 4.w.p 7 4 k.a.Z.Z.Z.Z.M.w.w.w.r.@.7 4 g.q.| E n I.I.I.I.I.I.I.I.I.I.I.",
"I.I.I.I.I.I.I.I.I.I.I.I.I.n _ 4.v.p 6 7 7 i w.v.w.w.w.w.w.h.5 6 6 5 U | | E n I.I.I.I.I.I.I.I.I.I.I.",
"I.I.I.I.I.I.I.I.I.I.I.I.I.n E ' 3.t 6 7 7 r v.s.d.t.l.;.;.*.4 =.C.5 U | | E n I.I.I.I.I.I.I.I.I.I.I.",
"I.I.I.I.I.I.I.I.I.I.I.I.I.n n L | e 7 7 7 r w.=.8 r.f.5 6 6 4 l.z.4 Y | | E n I.I.I.I.I.I.I.I.I.I.I.",
"I.I.I.I.I.I.I.I.I.I.I.I.I.g n K | | T 6 7 7 0 f.i.t.t.i.q 7 7 0 w N ^ _ Z b g I.I.I.I.I.I.I.I.I.I.I.",
"I.I.I.I.I.I.I.I.I.I.I.I.I.d x F ( / I +.$.-.+.s.w.w.e.8.=.-.-.+.O.n P ^ m h g I.I.I.I.I.I.I.I.I.I.I.",
"I.I.I.I.I.I.I.I.I.I.I.I.I.; g h A n D _ 9.w._ 6.v.w.3.) w.v.v.Q n n v c B h g I.I.I.I.I.I.I.I.I.I.I.",
"I.I.I.I.I.I.I.I.I.I.I.I.I.o ; l B V V S | X.q.:.R R :.q.X.' R S n V l k g % & I.I.I.I.I.I.I.I.I.I.I.",
"I.I.I.I.I.I.I.I.I.I.I.I.I.o = k A B B n ^ } 9.] n n ] 9.} ^ n m v j k ; f $ o I.I.I.I.I.I.I.I.I.I.I.",
"I.I.I.I.I.I.I.I.I.I.I.I.I.I.X + 2 A B B c c n n n n n n c B B B B 1 > ; X X I.I.I.I.I.I.I.I.I.I.I.I.",
"I.I.I.I.I.I.I.I.I.I.I.I.I.I.I.. . : l B B B V m n n m v B B B B j ; @ + I.I.I.I.I.I.I.I.I.I.I.I.I.I.",
"I.I.I.I.I.I.I.I.I.I.I.I.I.I.I.I.X = : z j B z v n m v A B B A A z 2 + X I.I.I.I.I.I.I.I.I.I.I.I.I.I.",
"I.I.I.I.I.I.I.I.I.I.I.I.I.I.I.I.I.X     < 1 ; 2 ; k > 2 1 , ; 2 = X I.I.I.I.I.I.I.I.I.I.I.I.I.I.I.I.",
"I.I.I.I.I.I.I.I.I.I.I.I.I.I.I.I.I.I.X X O O @ @ @ * # @ * * @ @ + I.I.I.I.I.I.I.I.I.I.I.I.I.I.I.I.I.",
"I.I.I.I.I.I.I.I.I.I.I.I.I.I.I.I.I.I.I.X X X X X X X X X X X X X X I.I.I.I.I.I.I.I.I.I.I.I.I.I.I.I.I."
};
