/* XPM */
static char *result[] = {
/* columns rows colors chars-per-pixel */
"50 50 156 2 ",
"   c #3F0918",
".  c #4E0719",
"X  c #420918",
"o  c #560017",
"O  c #5E0C16",
"+  c #55071B",
"@  c #5B041B",
"#  c #5E0A18",
"$  c #73010F",
"%  c #7D020D",
"&  c #600015",
"*  c #600D16",
"=  c #6C021E",
"-  c #61061B",
";  c #74011E",
":  c #7E051B",
">  c #790C18",
",  c #7A0E16",
"<  c #701014",
"1  c #7B1213",
"2  c #730020",
"3  c #09005A",
"4  c #260059",
"5  c #2D0059",
"6  c #350058",
"7  c #380158",
"8  c #580052",
"9  c #411557",
"0  c #471D57",
"q  c #5E1753",
"w  c #4E2756",
"e  c #512D56",
"r  c #5B3555",
"t  c #642352",
"y  c #6C3C52",
"u  c #664054",
"i  c #6E4152",
"p  c #724B52",
"a  c #8E0002",
"s  c #87000F",
"d  c #850206",
"f  c #930201",
"g  c #9B0C07",
"h  c #9E140E",
"j  c #84081A",
"k  c #8B0918",
"l  c #9D1111",
"z  c #A80001",
"x  c #A60B01",
"c  c #A60B0C",
"v  c #AB0A08",
"b  c #A10402",
"n  c #B50100",
"m  c #B60A01",
"M  c #B2000D",
"N  c #A4130D",
"B  c #AA120A",
"V  c #B91503",
"C  c #B91B03",
"Z  c #A11310",
"A  c #BA2203",
"S  c #BC2A06",
"D  c #B42E07",
"F  c #BD3C00",
"G  c #BF3608",
"H  c #BE3C16",
"J  c #C03709",
"K  c #C13A09",
"L  c #BF410E",
"P  c #BE4B24",
"I  c #B14E37",
"U  c #B04C38",
"Y  c #BC5630",
"T  c #C24B01",
"R  c #C4430D",
"E  c #C65A01",
"W  c #C85C00",
"Q  c #CB560E",
"!  c #C44C12",
"~  c #C84E11",
"^  c #CC5513",
"/  c #CE5914",
"(  c #C95719",
")  c #D25D16",
"_  c #CE6E01",
"`  c #D26B0E",
"'  c #D17201",
"]  c #D7750F",
"[  c #CE6313",
"{  c #D26116",
"}  c #D46B13",
"|  c #D67310",
" . c #D87314",
".. c #DB7A13",
"X. c #C45728",
"o. c #830042",
"O. c #843549",
"+. c #825A4F",
"@. c #805850",
"#. c #956A4B",
"$. c #9B6848",
"%. c #9F7048",
"&. c #A17448",
"*. c #AA7A45",
"=. c #BD8B3F",
"-. c #D78003",
";. c #DA8503",
":. c #E89F05",
">. c #EB9E0C",
",. c #E59904",
"<. c #E18911",
"1. c #E59110",
"2. c #EEA50B",
"3. c #EBA503",
"4. c #F0A706",
"5. c #F1AC04",
"6. c #F1AB0A",
"7. c #F5B306",
"8. c #F8B706",
"9. c #FBBD03",
"0. c #F4B10A",
"q. c #F7BA0F",
"w. c #F9BC0A",
"e. c #E8A81F",
"r. c #EDB21F",
"t. c #F6B912",
"y. c #FBBE14",
"u. c #F2B51D",
"i. c #F5BA1C",
"p. c #D5982F",
"a. c #C88835",
"s. c #C6923B",
"d. c #D19934",
"f. c #DCA42E",
"g. c #D7A031",
"h. c #E3AA28",
"j. c #EEB62A",
"k. c #E6B234",
"l. c #FEC100",
"z. c #FAC01D",
"x. c #FAC122",
"c. c #F9C32D",
"v. c #F9C638",
"b. c #F8C83F",
"n. c #B88740",
"m. c #F7CB47",
"M. c #F8CA43",
"N. c #F7CC4A",
"B. c #F7CE55",
"V. c #F7CF5A",
"C. c #F7D05D",
"Z. c #F7D369",
"A. c #F7D675",
"S. c #F7D778",
"D. c #F7D87B",
"F. c None",
/* pixels */
"F.F.F.F.F.F.F.F.F.F.F.F.F.F.F.F.F.F.F.F.F.F.F.F.F.F.F.F.F.F.F.F.F.F.F.F.F.F.F.F.F.F.F.F.F.F.F.F.F.F.",
"F.F.F.F.F.F.F.F.F.F.F.F.F.F.F.F.F.F.F.F.F.F.F.F.F.F.F.F.F.F.F.F.F.F.F.F.F.F.F.F.F.F.F.F.F.F.F.F.F.F.",
"F.F.F.F.F.F.F.F.F.F.F.F.F.F.F.F.F.F.F.F.F.F.F.F.F.F.F.F.F.F.F.F.F.F.F.F.F.F.F.F.F.F.F.F.F.F.F.F.F.F.",
"F.F.F.F.F.F.F.F.F.F.F.F.F.F.F.F.F.F.F.F.F.F.F.F.F.F.F.F.F.F.F.F.F.F.F.F.F.F.F.F.F.F.F.F.F.F.F.F.F.F.",
"F.F.F.F.F.F.F.F.F.F.F.F.F.F.F.F.F.F.F.F.F.F.F.F.F.F.F.F.F.F.F.F.F.F.F.F.F.F.F.F.F.F.F.F.F.F.F.F.F.F.",
"F.F.F.F.F.F.F.F.F.F.F.F.F.F.F.F.F.F.F.F.F.F.F.F.F.F.F.F.F.F.F.F.F.F.F.F.F.F.F.F.F.F.F.F.F.F.F.F.F.F.",
"F.F.F.F.F.F.F.F.F.F.F.F.F.F.F.F.F.F.F.F.F.F.F.F.F.F.F.F.9.9.F.F.F.F.F.F.9.F.F.F.F.F.F.F.F.F.F.F.F.F.",
"F.F.F.F.F.F.F.F.F.F.F.F.F.F.F.F.F.F.F.F.F.F.F.F.F.F.F.F.7.7.F.F.F.F.F.F.9.F.F.F.F.F.F.F.F.F.F.F.F.F.",
"F.F.F.F.F.F.F.F.F.F.F.F.F.F.F.F.F.F.F.F.F.F.F.F.F.F.F.F.) ) F.F.F.F.{ { F.F.F.F.F.F.F.F.F.F.F.F.F.F.",
"F.F.F.F.F.F.F.F.F.F.F.F.F.F.F.F.F.F.F.F.F.F.F.F.F.F.F.F.F.F.F.F.F.F.F.F.F.F.F.F.F.F.F.F.F.F.F.F.F.F.",
"F.F.F.F.F.F.F.F.F.F.F.F.F.F.F.F.F.F.F.F.F.F.F.F.F.F.F.F.F.F.F.F.F.F.F.F.F.F.F.F.F.F.F.F.F.F.F.F.F.F.",
"F.F.F.F.F.F.F.F.F.F.F.F.F.F.F.F.F.F.F.F.F.F.F.F.F.F.F.F.F.F.F.F.F.F.F.F.F.F.F.F.F.F.F.F.F.F.F.F.F.F.",
"F.F.F.F.F.F.F.F.F.F.F.F.F.F.F.F.F.F.F.F.F.F.9.F.F.F.F.F.F.F.F.F.F.F.F.F.F.F.F.F.F.F.F.F.F.F.F.F.F.F.",
"F.F.F.F.F.F.F.F.F.F.F.F.F.F.F.F.F.F.F.F.F.F.9.F.F.F.F.F.F.F.F.F.F.F.F.F.F.F.F.F.F.F.F.F.F.F.F.F.F.F.",
"F.F.F.F.F.F.F.F.F.F.F.F.F.F.F.F.F.F.F.F.F.F.F.F.F.F.F.F.F.F.n F.F.F.F.F.F.F.F.F.F.F.F.F.F.F.F.F.F.F.",
"F.F.F.F.F.F.F.F.F.F.F.F.F.F.F.F.F.F.F.F.F.F.F.F.F.F.F.F.F.S K F.F.F.F.F.F.F.F.F.F.F.F.F.F.F.F.F.F.F.",
"F.F.F.F.F.F.F.F.F.F.F.F.F.F.F.F.F.F.F.F.F.F.F.F.F.F.F.n n S { A n n F.F.F.F.F.F.F.9.F.F.F.F.F.F.F.F.",
"F.F.F.F.F.F.F.F.F.F.F.F.F.F.F.F.F.F.F.F.F.F.F.F.F.n K / 5.7.7.7.5.7.' n F.F.F.F.F. .F.F.F.F.F.F.F.F.",
"F.F.F.F.F.F.F.F.F.F.F.F.F.F.F.F.F.F.F.F.F.F.F.F.F.S Q ..8.w.6.5.5.0.' W F.F.F.F.F.{ F.F.F.F.F.F.F.F.",
"F.F.F.F.F.F.F.F.F.F.F.F.F.F.F.F.F.F.F.F.F.F.F.n n ) 1.9.9.6.) A V ) 6.8.m n F.F.F.F.F.F.F.F.F.F.F.F.",
"F.F.F.F.F.F.F.F.F.F.F.F.F.F.F.F.9.F.F.F.F.F.n R ^ 6.7.9.<. .J F.F.J ,.8.m F.F.F.F.F.F.F.F.F.F.F.F.F.",
"F.F.F.F.F.F.F.F.F.F.F.F.F.F.F.F.8.F.F.F.F.F.C Q  .w.9.8.} ~ n F.F.n ,.7.m F.F.F.F.F.F.F.F.F.F.F.F.F.",
"F.F.F.F.F.F.F.F.F.F.F.F.F.F.F.F.{ F.F.F.n V ) >.9.9.>.) V n F.F.F.F.{ { F.F.F.9.9.F.F.F.F.F.F.F.F.F.",
"F.F.F.F.F.F.F.F.F.F.F.F.F.F.F.F.F.F.F.n R ^ >.0.9.9.>.{ C n F.F.F.n F.F.F.F.9.F.F.F.F.F.F.F.F.F.F.F.",
"F.F.F.F.F.F.F.F.F.F.F.F.F.F.F.F.F.F.F.n ^  .9.9.9.9.>.{ C n F.F.F.n F.F.F.w.9.F.F.F.F.F.F.F.F.F.F.F.",
"F.F.F.F.F.F.F.F.F.F.F.F.F.F.F.F.F.n S ) 6.9.9.9.9.9.9.9.F n n F.F.F.F.F.F.{ { F.F.F.F.F.F.F.F.F.F.F.",
"F.F.F.F.F.F.F.F.F.F.F.F.F.F.F.F.F.n S ) 6.9.9.x.c.c.x.9.;._ n n F.F.F.F.F.F.{ F.F.F.F.F.F.F.F.F.F.F.",
"F.F.F.F.F.F.F.F.F.F.F.9.9.F.F.F.F.n S ) 6.9.9.v.N.N.v.9.l.3.n n n F.F.F.F.F.F.F.F.F.F.F.F.F.F.F.F.F.",
"F.F.F.F.F.F.F.F.F.F.F.} F.F.F.F.n / ..8.9.y.M.N.N.m.m.m.y.w.8.] ^ n F.F.F.F.F.F.F.F.F.F.F.F.F.F.F.F.",
"F.F.F.F.F.F.F.F.F.F.F.{ F.F.F.S S ..1.9.z.c.N.B.V.V.B.N.c.x.9.../ n F.F.F.F.F.F.F.F.F.F.F.F.F.F.F.F.",
"F.F.F.F.F.F.F.F.F.F.F.F.F.F.n K ) 8.9.9.b.N.m.Z.D.D.Z.m.N.b.9.../ n F.F.F.F.F.F.F.F.F.F.F.F.F.F.F.F.",
"F.F.F.F.F.F.F.F.F.F.F.F.F.F.n K ) 7.z.b.m.N.A.S.D.D.S.A.N.M.M.u.2.^ J n F.F.F.N N F.F.F.F.F.F.F.F.F.",
"F.F.F.F.F.F.F.F.F.F.F.F.F.F.n K ) e.j.M.m.N.A.S.D.D.S.A.B.m.M.z.7.X.H A F.F.F.N N F.F.F.F.F.F.F.F.F.",
"F.F.F.F.F.F.F.F.F.N N F.F.F.n K ) q +.l.M.N.N.Z.D.D.Z.m.N.M.9.9.j.3 U ) n F.F.F.F.F.F.F.F.F.F.F.F.F.",
"F.F.F.F.F.F.F.F.F.N N F.F.n ~ ] 4.i r &.k.c.N.B.C.C.B.N.c.x.9.n.#.4 a.2.~ K n F.F.F.F.F.F.F.F.F.F.F.",
"F.F.F.F.F.F.F.F.F.N N F.n n ) <.l.p 7 4 g.i.M.N.m.m.m.m.y.w.w.@.7 5 d.7.{ R n F.F.F.F.F.F.F.F.F.F.F.",
"F.F.F.F.F.F.F.F.F.F.F.F.F.n ) <.9.p 7 5 7 u 9.9.9.9.l.9.9.f.5 7 7 5 I { { R n F.F.F.F.F.F.F.F.F.F.F.",
"F.F.F.F.F.F.F.F.F.F.F.F.F.n R ` >.y u s.p e =.=.=.w.h.n.t.f.4 7 7 5 I ) { R n F.F.F.F.F.F.F.F.F.F.F.",
"F.F.F.F.F.F.F.F.F.F.F.F.F.n n K { t +.l.#.6 6 6 0 w.s.4 u.f.4 7 7 6 I { { R n F.F.F.F.F.F.F.F.F.F.F.",
"F.F.F.F.F.F.F.F.F.F.F.F.F.f n K { { Y e 9 7 5 s.t.9.w.t.p w 7 7 8 M ~ ) V x f F.F.F.F.F.F.F.F.F.F.F.",
"F.F.F.F.F.F.F.F.F.F.F.F.F.s z D ~ ~ P O.$.&.O.p.9.9.7.2.*.&.&.O.o.n L ! m b f F.F.F.F.F.F.F.F.F.F.F.",
"F.F.F.F.F.F.F.F.F.F.F.F.F.; f g N n S ) 5.9.) >.9.9.>./ 9.l.l.W n n v N N g f F.F.F.F.F.F.F.F.F.F.F.",
"F.F.F.F.F.F.F.F.F.F.F.F.F.o ; k N N B A { ..8.;.T T ;.7...` T A n B k : f % & F.F.F.F.F.F.F.F.F.F.F.",
"F.F.F.F.F.F.F.F.F.F.F.F.F.o = : Z N N n ! [ 5.' n n ' 5.[ ! n m v N j 2 d $ o F.F.F.F.F.F.F.F.F.F.F.",
"F.F.F.F.F.F.F.F.F.F.F.F.F.F.X @ 2 l N N N c n n n n n n c N N N N 1 > ; X X F.F.F.F.F.F.F.F.F.F.F.F.",
"F.F.F.F.F.F.F.F.F.F.F.F.F.F.F.. + : k N N N c m n n m v N N N N l ; @ + F.F.F.F.F.F.F.F.F.F.F.F.F.F.",
"F.F.F.F.F.F.F.F.F.F.F.F.F.F.F.F.X = : h N N Z v M n v Z Z Z Z N l = @ X F.F.F.F.F.F.F.F.F.F.F.F.F.F.",
"F.F.F.F.F.F.F.F.F.F.F.F.F.F.F.F.F.X     < 1 ; ; ; 1 > 2 1 1 ; 2 = X F.F.F.F.F.F.F.F.F.F.F.F.F.F.F.F.",
"F.F.F.F.F.F.F.F.F.F.F.F.F.F.F.F.F.F.X X O O @ @ @ * # @ * # @ @ @ F.F.F.F.F.F.F.F.F.F.F.F.F.F.F.F.F.",
"F.F.F.F.F.F.F.F.F.F.F.F.F.F.F.F.F.F.F.X X X X X X X X X X X X X X F.F.F.F.F.F.F.F.F.F.F.F.F.F.F.F.F."
};
