/* XPM */
static char *result[] = {
/* columns rows colors chars-per-pixel */
"50 50 166 2 ",
"   c #3F0918",
".  c #4E0719",
"X  c #420918",
"o  c #560017",
"O  c #5E0C16",
"+  c #55071B",
"@  c #5B041B",
"#  c #5E0A18",
"$  c #78020E",
"%  c #600015",
"&  c #6C021E",
"*  c #610A19",
"=  c #74011E",
"-  c #7E051B",
";  c #790C18",
":  c #7A0E16",
">  c #701014",
",  c #7B1213",
"<  c #730020",
"1  c #09005A",
"2  c #250059",
"3  c #2B0059",
"4  c #350058",
"5  c #390158",
"6  c #451A57",
"7  c #5E1753",
"8  c #502956",
"9  c #5B3555",
"0  c #692B50",
"q  c #642352",
"w  c #633D54",
"e  c #6C3C52",
"r  c #52565B",
"t  c #5A5A5A",
"y  c #6A4153",
"u  c #734C52",
"i  c #8E0002",
"p  c #87000F",
"a  c #850206",
"s  c #930201",
"d  c #9B0C07",
"f  c #9E140E",
"g  c #84081A",
"h  c #8B0918",
"j  c #9D1111",
"k  c #A80001",
"l  c #A60B0C",
"z  c #AB0A08",
"x  c #A40802",
"c  c #B50100",
"v  c #B40C03",
"b  c #B50708",
"n  c #A4130D",
"m  c #AA120A",
"M  c #B71400",
"N  c #B91D02",
"B  c #B81502",
"V  c #A11310",
"C  c #BA2203",
"Z  c #BC2B04",
"A  c #B42E07",
"S  c #BE3D00",
"D  c #BE3C16",
"F  c #C03709",
"G  c #C13A0A",
"H  c #BF410E",
"J  c #BE4B24",
"K  c #B14E37",
"L  c #B04C38",
"P  c #BB5430",
"I  c #C24B01",
"U  c #C5440D",
"Y  c #C65A01",
"T  c #C85C00",
"R  c #CB570E",
"E  c #C44C12",
"W  c #C84E11",
"Q  c #CC5413",
"!  c #CE5914",
"~  c #C95719",
"^  c #D25E16",
"/  c #CE6E01",
"(  c #D16A0C",
")  c #D17301",
"_  c #D37802",
"`  c #D7750F",
"'  c #CE6313",
"]  c #D26115",
"[  c #D56C14",
"{  c #D77015",
"}  c #D87612",
"|  c #DB7A13",
" . c #C45728",
".. c #830042",
"X. c #843549",
"o. c #80584F",
"O. c #805850",
"+. c #9B6848",
"@. c #976C4A",
"#. c #9F7048",
"$. c #9C7F4D",
"%. c #A57747",
"&. c #AC7C45",
"*. c #A17448",
"=. c #BC8A3F",
"-. c #D78102",
";. c #DA8503",
":. c #DC8509",
">. c #DE8312",
",. c #E29503",
"<. c #E89F04",
"1. c #E7960F",
"2. c #EB9E0C",
"3. c #E79D03",
"4. c #E18A11",
"5. c #E59110",
"6. c #EBA403",
"7. c #EDA30B",
"8. c #F0A706",
"9. c #F1AC03",
"0. c #F1AB0A",
"q. c #F6B407",
"w. c #F8B706",
"e. c #FBBD03",
"r. c #F4B20B",
"t. c #F7BA0F",
"y. c #FABC0A",
"u. c #E8A81F",
"i. c #EDB21F",
"p. c #F6B912",
"a. c #FBBE13",
"s. c #F5BA1C",
"d. c #D5982F",
"f. c #C88835",
"g. c #C7943A",
"h. c #D19934",
"j. c #DEAA2F",
"k. c #DDA52D",
"l. c #D7A031",
"z. c #D9A230",
"x. c #E5AD28",
"c. c #E5AB27",
"v. c #ECB120",
"b. c #EEB62A",
"n. c #E6B234",
"m. c #FEC000",
"M. c #FAC01C",
"N. c #FAC123",
"B. c #FAC32C",
"V. c #F9C536",
"C. c #F9C639",
"Z. c #F8C83E",
"A. c #B88740",
"S. c #B08143",
"D. c #F7CB47",
"F. c #F8CA43",
"G. c #F7CC4A",
"H. c #F7CE55",
"J. c #F7CF59",
"K. c #F7D05D",
"L. c #F7D264",
"P. c #F7D369",
"I. c #F7D674",
"U. c #F7D778",
"Y. c #F7D87A",
"T. c None",
/* pixels */
"T.T.T.T.T.T.T.T.T.T.T.T.T.T.T.T.T.T.T.T.T.T.T.T.T.T.T.T.T.T.T.T.T.T.T.T.T.T.T.T.T.T.T.T.T.T.T.T.T.T.",
"T.T.T.T.T.T.T.T.T.T.T.T.T.T.T.T.T.T.T.T.T.T.T.T.T.T.T.T.T.T.T.T.T.T.T.T.T.T.T.T.T.T.T.T.T.T.T.T.T.T.",
"T.T.T.T.T.T.T.T.T.T.T.T.T.T.T.T.T.t t T.T.T.T.T.T.t t T.T.T.T.T.T.T.T.T.T.T.T.T.T.T.T.T.T.T.T.T.T.T.",
"T.T.T.T.T.T.T.T.T.T.T.T.T.T.T.T.T.T.T.T.T.T.T.T.T.t t T.T.T.T.T.T.T.T.T.T.T.T.T.T.T.T.T.T.T.T.T.T.T.",
"T.T.T.T.T.T.T.T.T.T.T.T.T.T.T.T.T.T.T.T.T.T.T.T.T.$.S.T.T.T.T.T.T.T.T.T.T.T.T.T.T.T.T.T.T.T.T.T.T.T.",
"T.T.T.T.T.T.T.T.T.T.T.T.T.T.T.T.T.r r T.T.T.t T.T.m.y.T.T.T.T.T.T.T.T.T.T.T.T.T.T.T.T.T.T.T.T.T.T.T.",
"T.T.T.T.T.T.T.T.T.T.T.T.T.T.T.T.T.x.x.T.T.T.T.T.T.T.T.T.T.T.T.T.T.T.T.T.T.T.T.T.T.T.T.T.T.T.T.T.T.T.",
"T.T.T.T.T.T.T.T.T.T.T.T.T.T.T.T.T.e.e.T.T.T.T.T.T.T.T.T.T.T.T.T.T.T.T.T.T.T.T.T.T.T.T.T.T.T.T.T.T.T.",
"T.T.T.T.T.T.T.T.T.T.T.T.T.T.T.T.T.T.T.T.T.T.T.T.T.T.T.T.T.T.T.T.T.T.T.T.T.T.T.T.T.T.T.T.T.T.T.T.T.T.",
"T.T.T.T.T.T.T.T.T.T.T.T.T.T.T.T.T.T.T.T.T.T.T.T.T.T.T.T.T.T.T.T.T.T.T.T.T.T.T.T.T.T.T.T.T.T.T.T.T.T.",
"T.T.T.T.T.T.T.T.T.T.T.T.T.T.T.T.T.T.T.T.T.T.T.T.T.T.T.T.T.T.T.T.T.T.T.T.T.T.T.T.T.T.T.T.T.T.T.T.T.T.",
"T.T.T.T.T.T.T.T.T.T.T.T.T.T.T.T.T.T.T.T.T.T.T.c c c c T.T.T.T.T.T.T.T.T.T.T.T.T.T.T.T.T.T.T.T.T.T.T.",
"T.T.T.T.T.T.T.T.T.T.T.T.T.T.T.T.T.T.T.T.T.T.T.c M ;._ T.T.T.T.T.T.T.T.T.T.T.T.T.T.T.T.T.T.T.T.T.T.T.",
"T.T.T.T.T.T.T.T.T.T.T.T.T.T.T.T.T.T.T.T.T.T.T.c N e.,.c T.T.T.T.T.T.T.T.T.T.T.T.T.T.T.T.T.T.T.T.T.T.",
"T.T.T.T.T.T.T.T.T.T.T.T.T.T.T.T.T.T.T.T.T.T.T.T.T.Z -.e.S c T.T.T.T.T.T.T.T.T.T.T.T.T.T.T.T.T.T.T.T.",
"T.T.T.T.T.T.T.T.T.T.T.T.T.T.T.T.T.T.T.T.T.T.T.T.T.c ) 3._ / T.T.T.T.T.T.T.T.T.T.T.T.T.T.T.T.T.T.T.T.",
"T.T.T.T.T.T.T.T.T.T.T.T.T.T.T.T.T.T.T.T.T.T.T.T.T.T.T.c w.6.c T.T.T.T.T.T.T.T.T.T.T.T.T.T.T.T.T.T.T.",
"T.T.T.T.T.T.T.T.T.T.T.T.T.T.T.T.T.T.T.T.T.T.T.T.T.c G ! w.6.c T.T.T.T.T.T.T.T.T.T.T.T.T.T.T.T.T.T.T.",
"T.T.T.T.T.T.T.T.T.T.T.T.T.T.T.T.T.T.T.T.T.T.T.T.T.Y ( | w.6.c T.T.T.T.T.T.T.T.T.T.T.T.T.T.T.T.T.T.T.",
"T.T.T.T.T.T.T.T.T.T.T.T.T.T.T.T.T.T.T.T.T.T.T.c B e.e.e.e.6.c T.T.T.r r T.T.T.T.T.T.T.T.T.T.T.T.T.T.",
"T.T.T.T.T.T.T.T.T.T.T.t T.T.T.T.T.T.T.T.T.T.c ;.6.>.2.e.e.6.c T.T.T.j.j.T.T.T.T.T.T.T.T.T.T.T.T.T.T.",
"T.T.T.T.T.T.T.T.T.T.T.t T.T.T.T.T.T.T.T.T.T.B ,.e.{ 5.e.w.<.c T.T.T.e.e.T.T.T.T.T.T.T.T.T.T.T.T.T.T.",
"T.T.T.T.T.T.T.T.T.T.T.T.T.T.T.T.T.T.T.T.c B ^ 2.e.m.e.e.[ Q c T.T.T.T.T.T.T.T.T.T.T.T.T.T.T.T.T.T.T.",
"T.T.T.T.T.T.T.T.T.T.T.T.T.T.T.T.T.T.T.c U R 2.r.e.y.e.e.[ Q c T.T.T.T.T.T.T.T.T.T.T.T.T.T.T.T.T.T.T.",
"T.T.T.T.T.T.T.T.T.T.T.T.T.T.T.T.T.T.T.c Q [ e.e.e.e.y.m.{ Q c T.T.T.T.T.T.T.T.T.T.T.T.T.T.T.T.T.T.T.",
"T.T.T.T.T.T.t t T.T.T.T.T.T.T.T.T.T.T.c Q [ e.e.e.y.e.e.y.0.^ Z c T.T.T.T.T.T.e.e.T.T.T.T.T.T.T.T.T.",
"T.T.T.T.T.T.T.T.T.T.T.T.T.T.T.T.T.T.Z G >.1.e.N.V.e.e.e.e.q.5.R G T.T.T.T.T.T.e.T.T.T.T.T.T.T.T.T.T.",
"T.T.T.T.T.T.T.T.T.T.T.T.T.T.T.T.T.c Z ! 0.e.e.C.D.e.e.e.e.e.e.| ^ c T.T.T.T.T.T.T.T.T.T.T.T.T.T.T.T.",
"T.T.T.T.T.T.T.T.T.T.T.T.T.T.T.T.c ! } e.e.a.G.D.D.D.C.e.e.e.e.w.0.^ F c T.T.T.T.T.T.T.T.T.T.T.T.T.T.",
"T.T.T.T.T.T.T.T.T.T.T.T.T.T.T.Z Z | 4.e.M.B.G.H.K.G.Z.N.y.e.e.e.q.^ F c T.T.T.T.T.T.T.T.T.T.T.T.T.T.",
"T.T.T.T.T.T.T.T.T.T.T.T.T.T.c G ^ w.m.e.Z.G.D.P.U.G.D.G.a.e.e.e.q.^ G c T.T.T.T.T.T.T.T.T.T.T.T.T.T.",
"T.T.T.T.T.T.T.T.T.T.T.T.T.T.c S ^ q.M.F.D.G.I.U.U.I.L.D.Z.C.e.y.r.^ F c c T.T.T.T.T.T.T.T.T.T.T.T.T.",
"T.T.T.T.T.T.T.T.T.T.T.T.T.T.c G ] u.b.F.D.G.I.U.Y.I.P.D.F.C.e.e.r. .D Z c T.T.T.T.T.T.T.T.T.T.T.T.T.",
"T.T.T.T.T.T.T.T.T.T.T.T.T.T.c F ] 7 o.m.F.G.D.P.Y.D.G.D.a.e.e.m.v.1 L ^ c T.T.T.T.T.T.T.T.T.T.T.T.T.",
"T.T.T.T.T.T.T.T.T.T.T.T.T.c W } 7.y 9 #.n.B.D.J.J.G.F.B.y.e.e.A.@.2 f.2.W G c T.T.T.T.T.T.T.T.T.T.T.",
"T.T.T.T.T.T.T.T.T.T.T.T.c c ^ 4.m.u 5 3 z.s.D.G.G.F.C.e.e.y.t.O.4 3 h.w.] U c T.T.T.T.T.T.T.T.T.T.T.",
"T.T.T.T.T.T.T.T.T.T.T.T.T.c ^ 4.m.u 4 5 5 y e.e.e.e.e.e.e.c.3 4 4 3 K ] ] U c T.T.T.T.T.T.T.T.T.T.T.",
"T.T.T.T.T.T.T.T.T.T.T.T.T.c U ( 2.e 5 4 5 e e.k.=.y.c.A.A.%.2 &.S.3 L ] ] U c T.T.T.T.T.T.T.T.T.T.T.",
"T.T.T.T.T.T.T.T.T.T.T.T.T.c c G ] q 5 5 5 w e.&.6 y.g.3 4 4 3 c.v.2 L ] ] U c T.T.T.T.T.T.T.T.T.T.T.",
"T.T.T.T.T.T.T.T.T.T.T.T.T.s c F ] ] P 3 5 5 8 g.p.e.y.p.w 4 4 8 0 b E ^ B l s T.T.T.T.T.T.T.T.T.T.T.",
"T.T.T.T.T.T.T.T.T.T.T.T.T.p k A Q W J X.+.*.X.d.e.e.r.7.&.*.*.X...c H E v x s T.T.T.T.T.T.T.T.T.T.T.",
"T.T.T.T.T.T.T.T.T.T.T.T.T.= i d V c Z ^ 9.w.^ 2.m.e.2.! w.m.m.T c c z l n d s T.T.T.T.T.T.T.T.T.T.T.",
"T.T.T.T.T.T.T.T.T.T.T.T.T.o = h n m m C ( | q.-.I I ;.w.| ( I C c n h - s $ % T.T.T.T.T.T.T.T.T.T.T.",
"T.T.T.T.T.T.T.T.T.T.T.T.T.o & - V n n c E ] 9.) c c ) 9.' E c v v n g = a $ o T.T.T.T.T.T.T.T.T.T.T.",
"T.T.T.T.T.T.T.T.T.T.T.T.T.T.X @ < V n n l l c c c c c c l n n n j , ; = X X T.T.T.T.T.T.T.T.T.T.T.T.",
"T.T.T.T.T.T.T.T.T.T.T.T.T.T.T.. . - h n n n m b c c b z n n n n j = * . T.T.T.T.T.T.T.T.T.T.T.T.T.T.",
"T.T.T.T.T.T.T.T.T.T.T.T.T.T.T.T.X & - f f n j z b c z n V n V n j < @ X T.T.T.T.T.T.T.T.T.T.T.T.T.T.",
"T.T.T.T.T.T.T.T.T.T.T.T.T.T.T.T.T.X     > , < = = , : < , , < = & X T.T.T.T.T.T.T.T.T.T.T.T.T.T.T.T.",
"T.T.T.T.T.T.T.T.T.T.T.T.T.T.T.T.T.T.X X O O @ @ @ * O @ O * @ @ @ T.T.T.T.T.T.T.T.T.T.T.T.T.T.T.T.T.",
"T.T.T.T.T.T.T.T.T.T.T.T.T.T.T.T.T.T.T.X X X X X X X X X X X X X X T.T.T.T.T.T.T.T.T.T.T.T.T.T.T.T.T."
};
