/* XPM */
static char *_b1aedcf31e44f50f62f8595b11511b7vHFjTJnXxL4bUT3v[] = {
/* columns rows colors chars-per-pixel */
"50 50 222 2 ",
"   c None",
".  c #01070C",
"X  c #020B15",
"o  c #0C3552",
"O  c #0E3D5C",
"+  c #0C3859",
"@  c #0B3550",
"#  c #0F4364",
"$  c #114465",
"%  c #11476A",
"&  c #124A6D",
"*  c #1E4660",
"=  c #134E73",
"-  c #134D7A",
";  c #145076",
":  c #15537B",
">  c #1A5075",
",  c #3F5260",
"<  c #28516D",
"1  c #165781",
"2  c #165984",
"3  c #19568B",
"4  c #175C8A",
"5  c #195E8C",
"6  c #185C87",
"7  c #1B5994",
"8  c #14559B",
"9  c #195998",
"0  c #235881",
"q  c #19618F",
"w  c #1A6494",
"e  c #1B669A",
"r  c #1C6A9C",
"t  c #2B6B96",
"y  c #2A6D9A",
"u  c #236899",
"i  c #386B96",
"p  c #38729D",
"a  c #236089",
"s  c #175DA5",
"d  c #135CB3",
"f  c #1D6DA2",
"g  c #1D71A5",
"h  c #1E74AB",
"j  c #1E74B5",
"k  c #1362B8",
"l  c #3569A9",
"z  c #2775A8",
"x  c #3D75A2",
"c  c #2074B2",
"v  c #217AB2",
"b  c #227DBA",
"n  c #246FA0",
"m  c #436C9A",
"M  c #406892",
"N  c #597997",
"B  c #7E7F81",
"V  c #467CA6",
"C  c #547AA5",
"Z  c #547EB8",
"A  c #0F61CF",
"S  c #0F63D7",
"D  c #1A74C9",
"F  c #217EC2",
"G  c #216BD8",
"H  c #3077CF",
"J  c #036AEF",
"K  c #0E6AEF",
"L  c #136CEF",
"P  c #196EEF",
"I  c #126DE4",
"U  c #1E70EF",
"Y  c #1D71F0",
"T  c #126CF0",
"R  c #2473F0",
"E  c #2A76F0",
"W  c #2E78F0",
"Q  c #347CF1",
"!  c #397EF1",
"~  c #3079E6",
"^  c #437BC0",
"/  c #447FF1",
"(  c #2483BE",
")  c #68839C",
"_  c #738795",
"`  c #5B83AF",
"'  c #5B83A4",
"]  c #4D83AC",
"[  c #6686A7",
"{  c #7B94A9",
"}  c #6887B7",
"|  c #6C94B3",
" . c #779ABA",
".. c #7BA2BE",
"X. c #2585C2",
"o. c #268BCB",
"O. c #2284CE",
"+. c #268DD0",
"@. c #2792D5",
"#. c #2A93DB",
"$. c #2894DF",
"%. c #3397D9",
"&. c #298AE8",
"*. c #2A9CE5",
"=. c #2D95EE",
"-. c #2C9CEE",
";. c #2895E9",
":. c #3599E6",
">. c #2F8EF1",
",. c #3D82F1",
"<. c #2E93F0",
"1. c #2D98F0",
"2. c #3A89ED",
"3. c #2CA3EE",
"4. c #33A4EE",
"5. c #3BA5ED",
"6. c #3CA9EF",
"7. c #4A85CD",
"8. c #4E9BDE",
"9. c #568BD1",
"0. c #6799C8",
"q. c #638BC8",
"w. c #54A4DE",
"e. c #7DABD8",
"r. c #72B1DE",
"t. c #4789EA",
"y. c #419BE8",
"u. c #5A92E5",
"i. c #5E98E5",
"p. c #4385F2",
"a. c #4788F2",
"s. c #4C8BF2",
"d. c #4886F2",
"f. c #518EF3",
"g. c #5A8AF2",
"h. c #5491F3",
"j. c #5B95F3",
"k. c #5E98F4",
"l. c #568FE5",
"z. c #608FE1",
"x. c #679DE8",
"c. c #709FE5",
"v. c #649DF4",
"b. c #6597F3",
"n. c #739DF4",
"m. c #658EF0",
"M. c #43A3E4",
"N. c #48A8ED",
"B. c #56A9E9",
"V. c #46ADF0",
"C. c #4CACF0",
"Z. c #4CA6F1",
"A. c #57A5F1",
"S. c #58B2F0",
"D. c #68A5E9",
"F. c #74A5EB",
"G. c #74A4EA",
"H. c #6CA3F5",
"J. c #65ACF2",
"K. c #71A7F5",
"L. c #75A9F6",
"P. c #7AADF6",
"I. c #7AA2F4",
"U. c #65B5F2",
"Y. c #67B9F2",
"T. c #7CBFF3",
"R. c #7EB0F6",
"E. c #68B0EF",
"W. c #7FC1F3",
"Q. c #87919E",
"!. c #8495AA",
"~. c #909FAF",
"^. c #809AB5",
"/. c #8BA5BD",
"(. c #9DACBE",
"). c #95A3B5",
"_. c #A5ADB8",
"`. c #819EC1",
"'. c #8DA9C3",
"]. c #94ACC3",
"[. c #98ADC9",
"{. c #9DB2C5",
"}. c #89B0D7",
"|. c #A3B2C2",
" X c #AAB9C8",
".X c #A9B3C1",
"XX c #83B8E7",
"oX c #85ABF5",
"OX c #84B3F7",
"+X c #8AB5F7",
"@X c #95B7F5",
"#X c #8FB5EA",
"$X c #ABC5DC",
"%X c #B4C2D1",
"&X c #BAC8D7",
"*X c #8AC2F6",
"=X c #98CAF5",
"-X c #9CD2F7",
";X c #98C0E3",
":X c #ABC9E7",
">X c #B2CCE5",
",X c #B8D1EE",
"<X c #A5CBF8",
"1X c #B3CAF8",
"2X c #AAD5F5",
"3X c #B8D6F6",
"4X c #C6CDD6",
"5X c #CCD8E7",
"6X c #C3D6FA",
"7X c #C4DBFA",
"8X c #CADCFB",
"9X c #C9DCF1",
"0X c #D4DFF3",
"qX c #D5E5F5",
"wX c #DCE6F3",
"eX c #D4E2FB",
"rX c #DDEBFC",
"tX c #D3EBFA",
"yX c #D5E1ED",
"uX c #E3EDFA",
"iX c #E2EBF6",
"pX c #E9F3FC",
/* pixels */
"    - 4 1 2 2 2 1 4 7 5 q w r q 1 & $ & ; ; ; & % & ; ; : : : q 2 5 5 w r r e 7 3 : = & O O O o X   ",
"  ] U.-.;.3.3.3.3.1.1.-.-.-.3.3.3.3.3.3.3.3.3.3.3.3.3.3.3.3.3.3.3.3.3.3.3.-.>.<.1.3.3.-.3.;.:.,X_ . ",
"o D.2X}.A.3.3.3.3.3.1.3.-.3.3.3.3.3.3.3.3.3.3.3.3.3.3.3.3.3.3.3.3.<.>.<.<.<.1.3.3.3.3.3.3.<.3XrXXX@ ",
"w 5.*X$X XZ.3.3.3.3.1.3.3.3.3.3.3.3.3.3.3.3.3.3.3.3.3.3.-.-.-.3.1.>.1.-.1.-.3.3.3.3.3.3.U.3XwX$Xy.7 ",
"g 3.Z.=X$X`.<.3.3.3.-.-.3.3.3.3.3.3.3.3.3.3.3.3.3.3.3.-.-.-.-.1.=.>.-.3.3.3.3.3.3.3.3.J.uXyX .G *.q ",
"f 3.4.Z.=X&XZ >.OXZ.1.3.3.3.3.3.3.3.3.3.3.3.3.3.3.-.=.;.=.<.<.>.=.-.-.3.3.3.3.4.3.3.C.qX4X} &.-.3.: ",
"w 3.6.V.U.2X XZ #X}.o.v v z z n y t v b h v z g z z y t t p x ] V i i i t z %.:.:.M.&X%X9.&.3.3.3.= ",
"5 3.3.V.6.W.:X!.~.[.'.'.(.(._._..X X_.|. X&X9XwXuXuXuXuXrXrXrXrXiXiXiXwXyX5X X{.).Q.} t.1.4.3.3.3.; ",
"2 3.3.4.V.6. .&X,XoXoXI.OX1X6X8X8X8X6X6X6X1X@X@XoXb./ Q Q ! b.OXOXOXOXOXL.j./ g.n.m.G O.3.3.3.3.3.1 ",
"; 3.3.3.V.6.( 5X#XK T R H.P.P.P.P.P.P.L.f.T T K L L K K L f.P.P.P.P.P.L.a.K K K K L A F 3.3.3.-.3.: ",
"$ 3.3.3.3.B.i qXI.K W H.P.P.P.P.P.P.K.Q T K K K K K K L f.P.P.P.P.P.K.! K K K K K P H F 3.3.3.1.-.- ",
"; 3.3.3.3.*.N qXb.Q K.P.P.P.P.P.P.v.E K K K K K K K L f.P.P.P.P.P.H.Q K K K K K W b.7.F 3.3.-.1.=.- ",
"$ 3.3.3.3.*.) wXb.K.P.P.P.P.P.P.b.Y K K K K K K K Y k.P.P.P.P.P.v.R T K K K T p.K.L.7.b -.3.-.=.-.; ",
"O 3.3.3.3.3.| iX+XP.P.P.P.P.L.h.L K K K K K K K W v.P.P.P.P.P.b.P K T K K Y k.L.L.K.H c 1.-.1.-.3.1 ",
"$ *.3.3.3.3.| iX+XP.P.P.P.L.p.T K K K K K K K ,.K.P.P.P.P.P.k.P K K T T Q v.P.K.n.Q S c <.=.1.3.3.6 ",
"O 3.3.3.3.3. .iXOXP.P.P.K.Q K K K K K K K L f.P.P.P.P.P.P.j.L K K T T p.K.L.K.j.Y T S c 1.<.1.3.3.5 ",
"# 3.3.3.3.3.].uXOXP.P.v.R K K K K K K K P k.P.P.P.P.P.P.f.L K K K P h.L.K.H.s.T T T G j 3.=.3.3.3.4 ",
"# 3.3.3.3.*.].uXOXP.v.Y K K K K K K K R v.P.P.P.P.P.L.s.L K K K R k.L.K.H.,.J T T j.t.h 3.1.3.3.3.3 ",
"O *.3.3.3.*./.uXOXk.P K K K K K K K Q H.P.P.P.P.P.L.p.K K K K ! K.K.K.j.P K K R v.P.l.h 3.-.1.3.1.7 ",
"O 3.3.3.3.*.'.pXv.T K K K K K K K p.L.P.P.P.P.P.L.p.K K K K p.K.H.K.p.L J K ! K.P.P.u.g 3.3.1.1.1.q ",
"% 3.3.3.3.*.[.iXY K K K K K K L s.P.P.P.P.P.P.L.,.K K K L f.L.H.n.Q K T K a.L.P.P.P.i.f 3.3.-.-.=.5 ",
"& 3.3.3.3.*.{.eXJ K T K K K P j.P.P.P.P.P.P.L.,.K K K P j.K.K.k.Y K K L h.P.P.P.P.P.z.r 3.3.3.-.=.3 ",
"& 3.3.3.3.*.|.eXJ K K K T Y v.P.P.P.P.P.P.K.! K K K T h.L.L.f.T K K Y v.P.P.P.P.P.P.x.f 3.3.3.3.=.1 ",
"; 3.3.3.3.-.{.8XJ K K K R v.P.P.P.P.P.P.K.! K K K K a.L.K.p.K K K W H.P.P.P.P.P.P.P.x.f 3.3.3.-.=.; ",
"; 3.3.3.3.$.(.8XJ T L E H.P.P.P.P.P.P.K.Q K K T K a.L.K.! K K K ! K.P.P.P.P.P.P.P.P.G.r *.3.-.1.-.- ",
"& 3.3.3.3.3.(.9XJ K W H.P.P.P.P.P.P.K.W K K K L s.L.v.R K K K p.L.P.P.P.P.P.P.P.P.P.x.u ;.3.-.-.3.; ",
"; 3.3.3.3.*.|.7XJ Q L.P.P.P.P.P.P.K.Q K K K T j.P.v.Y K T L f.L.P.P.P.P.P.P.P.P.P.H.~ w *.<.-.3.3.1 ",
"6 3.3.3.3.*.|.7X! L.P.P.P.P.P.P.L.! K K K P k.L.h.T K K L k.P.P.P.P.P.P.P.P.P.P.j.P I e *.1.=.3.3.2 ",
"6 3.3.3.3.3.].eXL.P.P.P.P.P.P.L.,.K K K Y v.L.s.K T K R v.P.P.P.P.P.P.P.P.P.K.s.L K I e *.-.>.-.3.2 ",
"; 3.3.3.3.$.'.rXP.P.P.P.P.P.L.p.K K T R H.L.s.T K K E H.P.P.P.P.P.P.P.P.P.H.Q K K L ! e *.3.-.=.<.3 ",
"& 3.3.3.3.#.'.rXP.P.P.P.P.P.a.K K K R H.K.,.K K K Q K.P.P.P.P.P.P.P.P.P.v.R K K R b.D.s *.3.3.3.-.9 ",
"$ -.-.3.3.$...rXP.P.P.P.L.s.K K K E K.K.,.K K K ! K.P.P.P.P.P.P.P.P.P.f.L K K ! K.P.K.9 *.3.3.-.=.7 ",
"% =.=.1.-.*. .qXP.P.P.L.f.K K K Q H.H.,.K K L ,.L.P.P.P.P.P.P.P.P.K.,.L T T s.L.P.P.H.8 *.3.3.3.-.4 ",
"& 3.<.=.-.*.| 8XR.P.L.f.L K K ,.H.H.,.K K K p.L.P.P.P.P.P.P.P.P.v.W K K L j.L.P.P.L.H.8 *.3.3.3.3.q ",
": 3.1.1.3.*.] 8XOXL.h.L K K ,.K.v.Q K K K s.L.P.P.P.P.P.P.P.P.j.P K K R v.P.P.L.H.P.K.9 *.3.3.3.3.: ",
"6 4.1.-.3.3.p 3XOXk.P K K ,.K.k.E K K L s.P.P.P.P.P.P.P.P.L.s.L K K Q H.P.P.L.L.P.P.H.l 4.3.3.3.3.6 ",
": 3.=.=.=.=.y 3XH.P K K ,.L.h.P K K L f.P.P.P.P.P.P.P.P.L.,.K K K p.L.P.P.L.L.P.P.P.D.C N.3.3.3.3.q ",
"- 3.=.*.+.-.t ,Xp.K T ,.L.h.T K K L j.P.P.P.P.P.P.P.P.H.W K L L f.P.P.P.L.L.P.P.P.P.K.[ B.3.3.3.3.w ",
"= -.=.3.o.3.a :XL.L ,.K.h.L K K L j.P.P.P.P.P.P.P.P.H.R K K P k.P.P.P.L.P.P.P.P.P.L.x.[ C.3.3.3.3.w ",
"% >.-.*.o.+.u :Xn.,.K.h.L K K L j.P.P.P.P.P.P.P.R.v.R K K R v.P.P.P.L.P.P.P.P.P.P.v.t./.N.3.3.3.3.r ",
"% =.3.3.X.( y >XK.K.f.L K K L j.P.P.P.P.P.P.P.P.b.P K K E H.P.P.P.P.P.P.oXP.P.P.v.U x.| 5.3.3.3.3.w ",
"> =.3.6.W.2X{ ~.oXf.L L K L f.P.P.I.I.F.F.G.c.u.L K K ~ n.P.F.F.G.G.G.c.r.G.G.P.c.z.q.) 3.3.3.3.3.w ",
"> :.Y.-X-XtX{.[ N 7.D k d l C C m M i m m i i 9 s s s V V V ] ` ` C ` ` C } 0.}.0.C N #XW.3.3.3.3.w ",
"< M.2XS.3XtXN !.e.( b ( X.+.+.O.+.#.&.&.&.:.;.-.-.*.3.3.3.3.3.3.4.4.6.C.S.S.Y.Y.3.B. .#X7X=X4.3.3.r ",
"* *.4.-XuX/._ 8.3.3.3.3.3.3.3.3.-.>.1.<.>.>.>.1.3.3.3.3.3.3.3.3.3.3.3.3.3.3.3.3.3.3.D.{ 9XpX2X-.3.q ",
"O *.=XpX&X) %.-.3.3.3.3.-.1.1.1.<.-.3.3.<.>.>.>.<.-.3.-.-.3.3.3.3.3.3.3.3.3.3.3.3.3.3.y.[ 9XrX2XZ.- ",
"o XXpX&X[ ;.3.3.3.3.3.3.-.1.<.-.1.1.3.3.1.<.3.1.<.>.-.-.1.-.1.1.3.3.3.3.3.3.3.3.3.3.3.;.7.y *X*XD.O ",
"X $X X0.;.3.3.3.3.3.3.3.1.<.3.3.1.1.3.1.<.3.3.3.3.<.<.-.3.-.1.1.3.3.3.3.3.3.3.3.3.3.3.3.;.j H J.O.o ",
"B , G.;.3.3.3.3.3.3.3.3.3.3.3.3.3.3.3.3.1.3.3.3.3.-.1.3.3.3.3.3.3.3.3.3.3.3.3.3.3.3.3.3.;.;.$.:.a   ",
"  . > 4 g b g w q w r r r g v h h c c h h f e g f w w w 5 1 : : : 1 1 2 1 : : 1 2 2 1 : = # # o     "
};
