/* XPM */
static char *result[] = {
/* columns rows colors chars-per-pixel */
"49 50 139 2 ",
"   c #000000",
".  c #090705",
"X  c #0B0906",
"o  c #0D0D0C",
"O  c #110F0B",
"+  c #15120E",
"@  c #151413",
"#  c #191611",
"$  c #1D1914",
"%  c #1D1D1D",
"&  c #221D17",
"*  c #231F19",
"=  c #26211B",
"-  c #2A251D",
";  c #2E281F",
":  c #31281F",
">  c #232323",
",  c #2A2621",
"<  c #2D2923",
"1  c #2D2D2D",
"2  c #332C23",
"3  c #382F26",
"4  c #322F29",
"5  c #373026",
"6  c #393126",
"7  c #35322C",
"8  c #3C352A",
"9  c #3F382D",
"0  c #343333",
"q  c #3B3731",
"w  c #3D3932",
"e  c #3D3D3C",
"r  c #423A2E",
"t  c #453D32",
"y  c #483F32",
"u  c #413F3E",
"i  c #474033",
"p  c #4B4335",
"a  c #464138",
"s  c #4B453A",
"d  c #4E483E",
"f  c #504637",
"g  c #504738",
"h  c #544B3B",
"j  c #584E3F",
"k  c #5A503F",
"l  c #454545",
"z  c #4F4B43",
"x  c #4E4E4E",
"c  c #534D43",
"v  c #584F41",
"b  c #565046",
"n  c #5C5242",
"m  c #5D564B",
"M  c #5F594D",
"N  c #515151",
"B  c #5A5650",
"V  c #5F5950",
"C  c #5D5C5B",
"Z  c #615645",
"A  c #635947",
"S  c #655B4A",
"D  c #695E4C",
"F  c #605B53",
"G  c #615F5D",
"H  c #6C614E",
"J  c #6D6251",
"K  c #6D6559",
"L  c #716552",
"P  c #756956",
"I  c #756A59",
"U  c #796D5B",
"Y  c #7E725E",
"T  c #636362",
"R  c #686767",
"E  c #6A6966",
"W  c #6B6B69",
"Q  c #756D60",
"!  c #777065",
"~  c #7D7363",
"^  c #7C756A",
"/  c #81745F",
"(  c #817562",
")  c #857965",
"_  c #887B66",
"`  c #827868",
"'  c #8B7E6A",
"]  c #837C70",
"[  c #8D816D",
"{  c #91836E",
"}  c #8C8374",
"|  c #8B8479",
" . c #938671",
".. c #968975",
"X. c #998C76",
"o. c #90877A",
"O. c #978B78",
"+. c #9A8E7B",
"@. c #9E917B",
"#. c #979187",
"$. c #9E9382",
"%. c #A29682",
"&. c #A59985",
"*. c #A79C8B",
"=. c #AA9E8B",
"-. c #ACA08D",
";. c #AEA393",
":. c #B1A592",
">. c #B4A997",
",. c #B6AB9A",
"<. c #B9AE9E",
"1. c #BBB09D",
"2. c #B6AEA1",
"3. c #BDB3A3",
"4. c #BFB7A9",
"5. c #C1B7A6",
"6. c #C3BBAD",
"7. c #C6BDB1",
"8. c #C9BFB0",
"9. c #CAC2B4",
"0. c #CDC6BA",
"q. c #D1C9BC",
"w. c #D5CEC3",
"e. c #D8D1C7",
"r. c #D7D2CB",
"t. c #DBD4CA",
"y. c #DED9CF",
"u. c #DED9D1",
"i. c #E2DDD6",
"p. c #E3DED8",
"a. c #E6E2DC",
"s. c #E9E5DE",
"d. c #EAE6E1",
"f. c #EEEBE6",
"g. c #EFEDE8",
"h. c #F0EDE9",
"j. c #F3F1EE",
"k. c #F6F5F2",
"l. c None",
/* pixels */
"l.l.l.l.l.l.l.l.l.l.l.l.l.l.l.l.l.l.l.l.l.l.l.l.l.l.l.l.l.l.l.l.l.l.l.l.l.l.l.l.l.l.l.l.l.l.l.l.l.",
"l.l.l.l.l.l.l.l.l.l.l.l.l.l.l.l.l.l.l.l.l.r.s.p.e.>.( L l.l.l.l.l.l.l.l.l.l.l.l.l.l.l.l.l.l.l.l.l.",
"l.l.l.l.l.l.l.l.l.l.l.l.l.l.l.l.l.l.l.w.d.k.g.d.d.q.-._ p 2 l.l.l.l.l.l.l.l.l.l.l.l.l.l.l.l.l.l.l.",
"l.l.l.l.l.l.l.l.l.l.l.l.l.l.l.l.l.l.,.s.k.k.g.s.w.,.@.H h 8 2 l.l.l.l.l.l.l.l.l.l.l.l.l.l.l.l.l.l.",
"l.l.l.l.l.l.l.l.l.l.l.3.u.f.g.i.w.7.9.t.s.i.t.0.9.5.&.' Y k p H (  .&.&._ Z l.l.l.l.l.l.l.l.l.l.l.",
"l.l.l.l.l.l.l.l.l.l.6.f.k.k.k.f.a.y.6.6.:.{ ) / ~ P L P P _ Z  .:.,.:.&._ U j l.l.l.l.l.l.l.l.l.l.",
"l.l.t.t.l.l.l.l.l.3.p.g.k.d.a.i.r.u.6.X.J 8 g Y U P r 2 S H U :.6.6.,.=.' / L h l.l.l.l.l.i.5.l.l.",
"l.l.a.a.5.l.l.l.>.w.i.w.;. .) ) / P J L 5 6 8 J / p - 3 8 S D D H H L J I  .U i 3 l.l.l.y.f.q.l.l.",
"l.q.a.i.;.l.l.' 3.w.3.[ Y i r r 8 9 8 r p s i ` Y r 6 i p t r 3 2 2 2 2 n L / j 8 - l.l.u.s.9.P l.",
"h.w.e.e.+.Z k ' :.:. .S t j n D P } ;.2.=.%.%.=./ L L O.*.:.;.Y j r 8 6 8 i H A g 2 n 4.w.y.1.Z L ",
"h.0.-.&.S 2 g [ &.{ H g U U ~ :.9.>.O.O.}  .+.[ _ L ( ) ) [ } +.*.@.P D Z i r h S 5 I t.-.-.( 5 t ",
"h.6.j j 6 6 g  ... .g O.,.7.3...X.[ n y 6 9 9 t y t 9 8 7 p D ( ) ~ %.&.+.Y p j Z i ` t.J n i 2 8 ",
"j.9.n r y j 3 ) Y [ [  .' _  ./ t O                       O O - j A D D D J H A Z i [ y.' 9 9 k r ",
"h.s.0.6.3.*.8 I p r J $. .J r +                                 O & 8 j H D 8 = 8 n } s.t.9.4.,.U ",
"w.,.&.X.( S 6 J r ) ;.U D *                                         . r h D / h 6 S ) =.-.@.[ U h ",
"8.>.+.{ / Z 6 Z S -.) H &                                             X p j H U i n ~ :.&. ._ L h ",
"1.-. .[ Y Z 2 k ` O.S -                                                 X r j H S Z P -.X.{ [ L h ",
"S J [ X.j 2 & Z J H 6                                                     * k k S J j J Y @.Y 9 - ",
"; < H ..t = - H P n O                                                       r f J L i 2 p { I = * ",
"b z r g ; e - S L 5                                                         & H S H j V 6 f 7 q < ",
"U ^ H j 8 B - D D 3                                                         * D Z H j | A D j z e ",
"! | ) L t B - S S 2                                                         & H Z S g #.U ) Z c e ",
"K 2.D i V B ; D Z ;                                                         $ D Z A f <.` g d E * ",
"S @.| ^ K 2 ; S n ;                                                         # S Z A g X.$.o.! i @ ",
"2 2 8 7 & + - S A :                                                         + j Z A p 2 3 r & # # ",
"; S S v j = ; S D <                                                         + L h v p t K n v r O ",
"< U h r t & ; S D 2                                                         + H p g i m L 8 t 3 + ",
"2 H 3 < 8 $ - H H 2                                                         + k p s y h v & 3 : + ",
": k 3 2 r $ - Z Z 2                                                         # n p s y r h - 3 : + ",
"; j 6 3 6 $ - Z Z ;                                                         # n p g r t g : r * o ",
"- j 6 r r $ = k S ;                                                         + g t i 8 9 h 2 r ; + ",
"- j 6 r r $ = h n ;                                                         # h 6 8 2 9 g 3 t > + ",
": n r y r $ - Z A ;                                                         # h h k r y h 8 t ; @ ",
"- n 8 r r $ ; A D ;                                                         + L j n p t j 8 r ; o ",
": k r r 8 $ : D D 2                                                         + H p h p i f r r ; + ",
"3 j r t r $ - D J :                                                         + n p f i r j t r - O ",
": j r t t & & Z Z :                                                         # v p p t r h r r - @ ",
"; j 3 t r # - A A <                                                         # n p f r r f 3 r - o ",
"- g r 8 8 # & Z A ;                                                         @ h y p r 3 f 3 r - + ",
"- r 6 : 3 & - k Z ;                                                         @ v t t 3 2 y 2 3 - O ",
"- = 9 i < @ = k A ;                                                         + i r r 6 & 5 y 8 $ + ",
"< - = $ $ - w h Z s                                                         , S 8 y a = - $ $ = # ",
"j K M z a 7 7 m M 7                                                         o v s s 2 m m z a q # ",
"d T T T T B $ r p -                         o o o o o @ o o o o o o + + o o $ r ; < = C T T T T C ",
"d d a 7 q < 0 p j u                 o @ % % % % > % % > > > > > > > > > > > 0 b 2 3 w 8 9 7 u < O ",
"n J b a a 7 q m S q           o o % > > > 1 1 1 1 1 1 1 1 1 1 0 0 1 1 1 1 1 1 b s l < s s s a t O ",
"s M c a a 7 # r r &       o @ % % > 1 0 0 0 0 e e e e e e u e e e e u u u u 0 6 = - * z v a a w O ",
"w d i w 8 < < f t 7   o @ % > > 1 0 e e l l l l l l l l l l l l l l l l l l a n 5 6 7 t w 7 q q X ",
"w W W W R C q b b 0 @ % > > 1 0 e e l l x x l N x x x x x N x x x N x x x x u V b b 2 C W R R R T ",
"< < < 7 7 * o $ = $ > > 1 0 0 e l l l l x N N N N N N N N N N N N N N N N N e 7 * & * < < < 0 > O "
};
