/* XPM */
static char *result[] = {
/* columns rows colors chars-per-pixel */
"50 50 226 2 ",
"   c black",
".  c #000012",
"X  c #030017",
"o  c #080011",
"O  c #06001E",
"+  c #0E0019",
"@  c #0F0019",
"#  c #11001D",
"$  c #130021",
"%  c #140021",
"&  c #140022",
"*  c #1C002C",
"=  c #1D002D",
"-  c #1D002F",
";  c #190030",
":  c #1B0032",
">  c #1B0033",
",  c #1E0031",
"<  c #1F0031",
"1  c #1D0035",
"2  c #210034",
"3  c #210035",
"4  c #240037",
"5  c #28003C",
"6  c #29003D",
"7  c #28003E",
"8  c #2A003F",
"9  c #291732",
"0  c #321D3C",
"q  c #2B0040",
"w  c #2B0041",
"e  c #2C0041",
"r  c #2C0042",
"t  c #2D0043",
"y  c #2C0441",
"u  c #2E0045",
"i  c #2D0046",
"p  c #300049",
"a  c #32004B",
"s  c #360051",
"d  c #360052",
"f  c #390653",
"g  c #3B0059",
"h  c #3B005B",
"j  c #3B005D",
"k  c #3E005D",
"l  c #3F005F",
"z  c #40005F",
"x  c #40264C",
"c  c #452A53",
"v  c #462A53",
"b  c #430063",
"n  c #440065",
"m  c #440066",
"M  c #450068",
"N  c #45006B",
"B  c #47006E",
"V  c #4A006F",
"C  c #4B0070",
"Z  c #4C0072",
"A  c #4D0072",
"S  c #4D0073",
"D  c #4D0074",
"F  c #4E0074",
"G  c #510078",
"H  c #51007C",
"J  c #52007D",
"K  c #54007D",
"L  c #55007E",
"P  c #54007F",
"I  c #56007F",
"U  c #580A7E",
"Y  c #653F77",
"T  c #67407A",
"R  c #580680",
"E  c #5B0087",
"W  c #5C0087",
"Q  c #5C0088",
"!  c #5C0089",
"~  c #5D008A",
"^  c #5E008B",
"/  c #5F1588",
"(  c #600090",
")  c #620090",
"_  c #610092",
"`  c #630092",
"'  c #640093",
"]  c #640097",
"[  c #670097",
"{  c #6A0097",
"}  c #660E94",
"|  c #650098",
" . c #670098",
".. c #660099",
"X. c #670099",
"o. c #67009A",
"O. c #680098",
"+. c #680099",
"@. c #680199",
"#. c #680398",
"$. c #68009A",
"%. c #69009A",
"&. c #68009B",
"*. c #69009B",
"=. c #6A009B",
"-. c #6A009C",
";. c #6B009D",
":. c #6B009E",
">. c #6C029E",
",. c #6C039E",
"<. c #691293",
"1. c #6C1396",
"2. c #681495",
"3. c #681496",
"4. c #6F139B",
"5. c #6E109F",
"6. c #6E129F",
"7. c #6F139F",
"8. c #6F149F",
"9. c #71149E",
"0. c #7004A4",
"q. c #7104A4",
"w. c #7205A6",
"e. c #7707A9",
"r. c #6F14A0",
"t. c #721CA2",
"y. c #7C17AD",
"u. c #7A0AB0",
"i. c #7B0BB1",
"p. c #7D0BB0",
"a. c #7C0BB1",
"s. c #7E0CB0",
"d. c #7F0CB3",
"f. c #7F37A9",
"g. c #7E4F94",
"h. c #800EB7",
"j. c #800DB8",
"k. c #810EB8",
"l. c #820FB9",
"z. c #8510BD",
"x. c #8718BD",
"c. c #8034AD",
"v. c #853BB1",
"b. c #8856A0",
"n. c #8D5AA6",
"m. c #8F47BA",
"M. c #985FB5",
"N. c #A066BC",
"B. c #8B14C5",
"V. c #8C14C6",
"C. c #8D15C7",
"Z. c #9217CD",
"A. c #9317CF",
"S. c #9518D1",
"D. c #9519D2",
"F. c #9619D2",
"G. c #9719D3",
"H. c #991ED4",
"J. c #A01DDF",
"K. c #9F20DC",
"L. c #A51FE6",
"P. c #A621E6",
"I. c #A820E9",
"U. c #A821EA",
"Y. c #AC22EF",
"T. c #AD22F0",
"R. c #AF23F2",
"E. c #AE24F0",
"W. c #B023F3",
"Q. c #B124F4",
"!. c #B224F6",
"~. c #B325F7",
"^. c #B325F8",
"/. c #B526FA",
"(. c #B826FD",
"). c #B927FE",
"_. c #B927FF",
"`. c #BA27FF",
"'. c #BB28FF",
"]. c #BC28FF",
"[. c #9D55C6",
"{. c #A059C8",
"}. c #A55ECD",
"|. c #A65ECE",
" X c #A468C0",
".X c #A66BC3",
"XX c #AA6DC7",
"oX c #AA66CE",
"OX c #AD67D3",
"+X c #B36FD6",
"@X c #B66DDD",
"#X c #B574D4",
"$X c #BD7ADE",
"%X c #BC73E2",
"&X c #C077E6",
"*X c #C178E7",
"=X c #C57BEB",
"-X c #C77FE9",
";X c #C77FEA",
":X c #CA7FEF",
">X c #CA7FF0",
",X c #C680E9",
"<X c #C780E9",
"1X c #C780EA",
"2X c #C881EA",
"3X c #C880EB",
"4X c #C981EC",
"5X c #CA81ED",
"6X c #CA82EC",
"7X c #CC81F2",
"8X c #CD82F3",
"9X c #D287F5",
"0X c #D085F6",
"qX c #D389F7",
"wX c #D387F8",
"eX c #D489F8",
"rX c #D78AFC",
"tX c #D98CFE",
"yX c #D98DFE",
"uX c #DA8DFE",
"iX c #DA8DFF",
"pX c #DB8DFF",
"aX c #DB8EFF",
"sX c #DC8FFF",
"dX c #DD90FF",
"fX c None",
/* pixels */
"fXfXfXfXfXfXfXfXfXfXfXfXfXfXfXfXfXfXfXfXfXfXfXfXfXfXfXfXfXfXfXfXfXfXfXfXfXfXfXfXfXfXfXfXfXfXfXfXfXfX",
"fXfXfXfXfXfXfXfXfXfXfXfXfXfXfXfXfXfXfXfXfXfXfXfXfXfXfXfXfXfXfXfXfXfXfXfXfXfXfXfXfXfXfXfXfXfXfXfXfXfX",
"fXfXfXfXfXfXfXfXfXfXfXfXfXfXfXfXfXfXfXfXfXfXfXfXfXfXfXfXfXfXfXfXfXfXfXfXfXfXfXfXfXfXfXfXfXfXfXfXfXfX",
"fXfXfXfXfXfXfXfXfXfXfXfXfXfXfXfXfXfXfXfXfXfXfXfXfXfXfXfXfXfXfXfXfXfXfXfXfXfXfXfXfXfXfXfXfXfXfXfXfXfX",
"fXfXfXfXfXfXfXfXfXfXfXfXfXfXfXfXfXfXfXfXfXfXfXfXfXfXfXfXfXfXfXfXfXfXfXfXfXfXfXfXfXfXfXfXfXfXfXfXfXfX",
"fXfXfXfXfXfXfXfXfXfXfXfXfXfXfXfXfXfXfXfXfXfXfXfXfXfXfXfXfXfXfXfXfXfXfXfXfXfXfXfXfXfXfXfXfXfXfXfXfXfX",
"fXfXfXfXfXfXfXfXfXfXfXfXfXfXfXfXfXfXfXfXfXfXfXfXfXfXfXfXfXfXfXfXfXfXfXfXfXfXfXfXfXfXfXfXfXfXfXfXfXfX",
"fXfXfXfXfXfXfXfXfXfXfXfXfXfXfXfXfXfXfXfXfXfXfXfXfXfXfXfXfXfXfXfXfXfXfXfXfXfXfXfXfXfXfXfXfXfXfXfXfXfX",
"fXfXfXfXfXfXfXfXfXfXfXfXfXfXfXfXfXfXfXfXfXfXfXfXfXfXfXfXfXfXfXfXfXfXfXfXfXfXfXfXfXfXfXfXfXfXfXfXfXfX",
"fXfXfXfXfXfXfXfXfXfXfXfXfXfXfXfXfXfXfXfXfXfXfXX  X9 fXfXfXfXfXfXfXfXfXfXfXfXfXfXfXfXfXfXfXfXfXfXfXfX",
"fXfXfXfXfXfXfXfXfXfXfXfXfXfXfXfXfXfXfXfXfXfXfXO ,Xc fXfXfXfXfXfXfXfXfXfXfXfXfXfXfXfXfXfXfXfXfXfXfXfX",
"fXfXfXfXfXfXfXfXfXfXfXfXfXfXfXfXfXfXfXfXfXfX% 1 4X2X  fXfXfXfXfXfXfXfXfXfXfXfXfXfXfXfXfXfXfXfXfXfXfX",
"fXfXfXfXfXfXfXfXfXfXfXfXfXfXfXfXfXfXfXfXfX, m > 4X9Xb.fXfXfXfXfXfXfXfXfXfXfXfXfXfXfXfXfXfXfXfXfXfXfX",
"fXfXfXfXfXfXfXfXfXfXfXfXfXfXfXfXfXfXfXfXfX3 ~ ; 4XpXXXfXfXfXfXfXfXfXfXfXfXfXfXfXfXfXfXfXfXfXfXfXfXfX",
"fXfXfXfXfXfXfXfXfXfXfXfXfXfXfXfXfXfXfXfX  ' ! ; 4XwXuXg.fXfXfXfXfXfXfXfXfXfXfXfXfXfXfXfXfXfXfXfXfXfX",
"fXfXfXfXfXfXfXfXfXfXfXfXfXfXfXfXfXfXfXfXg +.Q ; ;Xc.7X.XfXfXfXfXfXfXfXfXfXfXfXfXfXfXfXfXfXfXfXfXfXfX",
"fXfXfXfXfXfXfXfXfXfXfXfXfXfXfXfXfXfXfXfXE -.Q ; ;X5.}.dXv fXfXfXfXfXfXfXfXfXfXfXfXfXfXfXfXfXfXfXfXfX",
"fXfXfXfXfXfXfXfXfXfXfXfXfXfXfXfXfXfXfXM >.-.Q ; ;Xr.t.=X<X  fXfXfXfXfXfXfXfXfXfXfXfXfXfXfXfXfXfXfXfX",
"fXfXfXfXfXfXfXfXfXfXfXfXfXfXfXfXfXfXfXS I.w.Q ; ;Xr...*XeXY fXfXfXfXfXfXfXfXfXfXfXfXfXfXfXfXfXfXfXfX",
"fXfXfXfXfXfXfXfXfXfXfXfXfXfXfXfXfXfXi j.Q.0.! ; ;Xr.&.{.rX$XfXfXfXfXfXfXfXfXfXfXfXfXfXfXfXfXfXfXfXfX",
"fXfXfXfXfXfXfXfXfXfXfXfXfXfXfXfXfX$ ~ F.`.L.W ; ;Xr.-.o.wXqXn.fXfXfXfXfXfXfXfXfXfXfXfXfXfXfXfXfXfXfX",
"fXfXfXfXfXfXfXfXfXfXfXfXfXfXfXfXfX7 q.S.`.^.E ; ;Xr...%XyXaXN.fXfXfXfXfXfXfXfXfXfXfXfXfXfXfXfXfXfXfX",
"fXfXfXfXfXfXfXfXfXfXfXfXfXfXfXfX  #.W.J._.^.E ; ;Xr.| &XiXiXsXT fXfXfXfXfXfXfXfXfXfXfXfXfXfXfXfXfXfX",
"fXfXfXfXfXfXfXfXfXfXfXfXfXfXfXfXM ,._.`._.^.E ; ;X7.m.0XiXiXaX#X0 fXfXfXfXfXfXfXfXfXfXfXfXfXfXfXfXfX",
"fXfXfXfXfXfXfXfXfXfXfXfXfXfXfXfXK ;.B.`._.^.E : ;X6.|.aXiXiXiXtXx fXfXfXfXfXfXfXfXfXfXfXfXfXfXfXfXfX",
"fXfXfXfXfXfXfXfXfXfXfXfXfXfXfXk -.=.a.W.R.P.L : 1Xv.[.8X7X0XpXiX6X  fXfXfXfXfXfXfXfXfXfXfXfXfXfXfXfX",
"fXfXfXfXfXfXfXfXfXfXfXfXfXfXfXU A.Z.V. .+.Z A B 5XOXH J P f.+X@XoX. fXfXfXfXfXfXfXfXfXfXfXfXfXfXfXfX",
"fXfXfXfXfXfXfXfXfXfXfXfXfXfXfX9.'.).z.%.-.;.;.o.>X} 6 w u Z D _ ( @ fXfXfXfXfXfXfXfXfXfXfXfXfXfXfXfX",
"fXfXfXfXfXfXfXfXfXfXfXfXfXfXfX4._.k.l.D.*.-.-.] :X3.q t t b +.n ^   fXfXfXfXfXfXfXfXfXfXfXfXfXfXfXfX",
"fXfXfXfXfXfXfXfXfXfXfXfXfXfXfXfXx.u.Y.X.-.-.-.N -X3.8 e t e I F o fXfXfXfXfXfXfXfXfXfXfXfXfXfXfXfXfX",
"fXfXfXfXfXfXfXfXfXfXfXfXfXfXfXfXh @.C.*.-.-.i.{ -X2.z L a r b C fXfXfXfXfXfXfXfXfXfXfXfXfXfXfXfXfXfX",
"fXfXfXfXfXfXfXfXfXfXfXfXfXfXfXfX  ) *.-.-.w.!.s.-X2.A :.s t t + fXfXfXfXfXfXfXfXfXfXfXfXfXfXfXfXfXfX",
"fXfXfXfXfXfXfXfXfXfXfXfXfXfXfXfXfX- *.-.-.h.`.p.-X2.A ;.z t = fXfXfXfXfXfXfXfXfXfXfXfXfXfXfXfXfXfXfX",
"fXfXfXfXfXfXfXfXfXfXfXfXfXfXfXfXfX& -.-.$./.`.p.-X2.A ;.O.t * fXfXfXfXfXfXfXfXfXfXfXfXfXfXfXfXfXfXfX",
"fXfXfXfXfXfXfXfXfXfXfXfXfXfXfXfXfXfXV *.G.(.`.p.-X2.A ;. .5 # fXfXfXfXfXfXfXfXfXfXfXfXfXfXfXfXfXfXfX",
"fXfXfXfXfXfXfXfXfXfXfXfXfXfXfXfXfXfXp  .U._.`.p.-X2.A ;. .4 fXfXfXfXfXfXfXfXfXfXfXfXfXfXfXfXfXfXfXfX",
"fXfXfXfXfXfXfXfXfXfXfXfXfXfXfXfXfXfXfXR T._.`.p.-X2.A ;.[   fXfXfXfXfXfXfXfXfXfXfXfXfXfXfXfXfXfXfXfX",
"fXfXfXfXfXfXfXfXfXfXfXfXfXfXfXfXfXfXfX1.E._.`.p.-X2.A ;.F fXfXfXfXfXfXfXfXfXfXfXfXfXfXfXfXfXfXfXfXfX",
"fXfXfXfXfXfXfXfXfXfXfXfXfXfXfXfXfXfXfXfXK._.`.p.-X2.A ;.< fXfXfXfXfXfXfXfXfXfXfXfXfXfXfXfXfXfXfXfXfX",
"fXfXfXfXfXfXfXfXfXfXfXfXfXfXfXfXfXfXfXfXy ~.`.p.-X8.=.l fXfXfXfXfXfXfXfXfXfXfXfXfXfXfXfXfXfXfXfXfXfX",
"fXfXfXfXfXfXfXfXfXfXfXfXfXfXfXfXfXfXfXfXfXH.`.p.-Xr.` d fXfXfXfXfXfXfXfXfXfXfXfXfXfXfXfXfXfXfXfXfXfX",
"fXfXfXfXfXfXfXfXfXfXfXfXfXfXfXfXfXfXfXfXfXf ].p.-Xr.G fXfXfXfXfXfXfXfXfXfXfXfXfXfXfXfXfXfXfXfXfXfXfX",
"fXfXfXfXfXfXfXfXfXfXfXfXfXfXfXfXfXfXfXfXfXfXy.d.-X2.2 fXfXfXfXfXfXfXfXfXfXfXfXfXfXfXfXfXfXfXfXfXfXfX",
"fXfXfXfXfXfXfXfXfXfXfXfXfXfXfXfXfXfXfXfXfXfX<.e.3X/ fXfXfXfXfXfXfXfXfXfXfXfXfXfXfXfXfXfXfXfXfXfXfXfX",
"fXfXfXfXfXfXfXfXfXfXfXfXfXfXfXfXfXfXfXfXfXfXfXj M.fXfXfXfXfXfXfXfXfXfXfXfXfXfXfXfXfXfXfXfXfXfXfXfXfX",
"fXfXfXfXfXfXfXfXfXfXfXfXfXfXfXfXfXfXfXfXfXfXfXfXfXfXfXfXfXfXfXfXfXfXfXfXfXfXfXfXfXfXfXfXfXfXfXfXfXfX",
"fXfXfXfXfXfXfXfXfXfXfXfXfXfXfXfXfXfXfXfXfXfXfXfXfXfXfXfXfXfXfXfXfXfXfXfXfXfXfXfXfXfXfXfXfXfXfXfXfXfX",
"fXfXfXfXfXfXfXfXfXfXfXfXfXfXfXfXfXfXfXfXfXfXfXfXfXfXfXfXfXfXfXfXfXfXfXfXfXfXfXfXfXfXfXfXfXfXfXfXfXfX",
"fXfXfXfXfXfXfXfXfXfXfXfXfXfXfXfXfXfXfXfXfXfXfXfXfXfXfXfXfXfXfXfXfXfXfXfXfXfXfXfXfXfXfXfXfXfXfXfXfXfX",
"fXfXfXfXfXfXfXfXfXfXfXfXfXfXfXfXfXfXfXfXfXfXfXfXfXfXfXfXfXfXfXfXfXfXfXfXfXfXfXfXfXfXfXfXfXfXfXfXfXfX"
};
