/* XPM */
static char *result[] = {
/* columns rows colors chars-per-pixel */
"50 50 118 2 ",
"   c #000000",
".  c #010009",
"X  c #0C0017",
"o  c #03001B",
"O  c #0D0018",
"+  c #10001B",
"@  c #140021",
"#  c #1C0E23",
"$  c #17002E",
"%  c #1B002A",
"&  c #1C0031",
"*  c #210035",
"=  c #250039",
"-  c #29013D",
";  c #2B1835",
":  c #2C0042",
">  c #2E0048",
",  c #32004B",
"<  c #3A174F",
"1  c #350054",
"2  c #3B0356",
"3  c #3A0059",
"4  c #3F0060",
"5  c #411C55",
"6  c #4B2D59",
"7  c #460069",
"8  c #49006D",
"9  c #4C0A6C",
"0  c #4D0173",
"q  c #53007C",
"w  c #560B79",
"e  c #553464",
"r  c #663F78",
"t  c #570081",
"y  c #5B0186",
"u  c #5D0089",
"i  c #61008E",
"p  c #640E8C",
"a  c #64108C",
"s  c #640195",
"d  c #660B94",
"f  c #6B0E97",
"g  c #660099",
"h  c #6A009C",
"j  c #6C0C9A",
"k  c #671395",
"l  c #6A1396",
"z  c #6C149C",
"x  c #722D97",
"c  c #6F03A2",
"v  c #7205A5",
"b  c #7507AA",
"n  c #7708AC",
"m  c #7909AE",
"M  c #6F14A0",
"N  c #7614A4",
"B  c #731EA3",
"V  c #7D16AE",
"C  c #7D0CB1",
"Z  c #7F15B1",
"A  c #7F1AB4",
"S  c #7B2DA9",
"D  c #7F32AC",
"F  c #704982",
"G  c #784B8E",
"H  c #800DB4",
"J  c #830FBA",
"K  c #8017B2",
"L  c #8611BE",
"P  c #863CB2",
"I  c #893FB4",
"U  c #905CA9",
"Y  c #944DBE",
"T  c #9761B2",
"R  c #8909C3",
"E  c #8712C0",
"W  c #8A13C4",
"Q  c #8F1AC6",
"!  c #9519D1",
"~  c #9C1CDA",
"^  c #9624D1",
"/  c #A21EE2",
"(  c #A422E2",
")  c #AA22EB",
"_  c #AC2CEB",
"`  c #B03DEC",
"'  c #AF2AF1",
"]  c #B225F6",
"[  c #B526FA",
"{  c #BA27FF",
"}  c #BC28FF",
"|  c #C03DFF",
" . c #9A53C4",
".. c #A35CCB",
"X. c #A468C0",
"o. c #A966CE",
"O. c #AC6FC9",
"+. c #AD64D4",
"@. c #B26FD3",
"#. c #B168D8",
"$. c #B86FDF",
"%. c #B373D2",
"&. c #BB75DE",
"*. c #B247EB",
"=. c #B14CE8",
"-. c #BE74E4",
";. c #C077E6",
":. c #C37EE5",
">. c #C67EE9",
",. c #C97FEE",
"<. c #CF79FC",
"1. c #C780EA",
"2. c #C981EC",
"3. c #CC81F2",
"4. c #D387F8",
"5. c #D68AFB",
"6. c #DA8DFF",
"7. c None",
/* pixels */
"7.7.7.7.7.7.7.7.7.7.7.7.7.7.7.7.7.7.7.7.7.7.7.7.7.7.7.7.7.7.7.7.7.7.7.7.7.7.7.7.7.7.7.7.7.7.7.7.7.7.",
"7.7.7.7.7.7.7.7.7.7.7.7.7.7.7.7.7.7.7.7.7.7.7.7.7.7.7.7.7.7.7.7.7.7.7.7.7.7.7.7.7.7.7.7.7.7.7.7.7.7.",
"7.7.7.7.7.7.7.7.7.7.7.7.7.7.7.7.7.7.7.7.7.7.7.7.7.7.7.7.7.7.7.7.7.7.7.7.7.7.7.7.7.7.7.7.7.7.7.7.7.7.",
"7.7.7.7.7.7.7.7.7.7.7.7.7.7.7.7.7.7.7.7.7.7.7.7.7.7.7.7.7.7.7.7.7.7.7.7.7.7.7.7.7.7.7.7.7.7.7.7.7.7.",
"7.7.7.7.7.7.7.7.7.7.7.7.7.7.7.7.7.7.7.7.7.7.7.7.7.7.7.7.7.7.7.7.7.7.7.7.7.7.7.7.7.7.7.7.7.7.7.7.7.7.",
"7.7.7.7.7.7.7.7.7.7.7.7.7.7.7.7.7.7.7.7.7.7.7.7.7.7.7.7.7.7.7.7.7.7.7.7.7.7.7.7.7.7.7.7.7.7.7.7.7.7.",
"7.7.7.7.7.7.7.7.7.7.7.7.7.7.7.7.7.7.7.7.7.7.7.7.7.7.7.7.7.7.7.7.7.7.7.7.7.7.7.7.7.7.7.7.7.7.7.7.7.7.",
"7.7.7.7.7.7.7.7.7.7.7.7.7.7.7.7.7.7.7.7.7.7.7.. e 7.7.7.7.7.7.7.7.7.7.7.7.7.7.7.7.7.7.7.7.7.7.7.7.7.",
"7.7.7.7.7.7.7.7.7.7.7.7.7.7.7.7.7.7.7.7.7.7.7.o >.# 7.7.7.7.7.7.7.7.7.7.7.7.7.7.7.7.7.7.7.7.7.7.7.7.",
"7.7.7.7.7.7.7.7.7.7.7.7.7.7.7.7.7.7.7.7.7.7.@ $ 1.O.7.7.7.7.7.7.7.7.7.7.7.7.7.7.7.7.7.7.7.7.7.7.7.7.",
"7.7.7.7.7.7.7.7.7.7.7.7.7.7.7.7.7.7.7.7.7.7.& & 1.` % 7.7.7.7.7.7.7.7.7.7.7.7.7.7.7.7.7.7.7.7.7.7.7.",
"7.7.7.7.7.7.7.7.7.7.7.7.7.7.7.7.7.7.7.7.7.* u & 2.' Q 7.7.7.7.7.7.7.7.7.7.7.7.7.7.7.7.7.7.7.7.7.7.7.",
"7.7.7.7.7.7.7.7.7.7.7.7.7.7.7.7.7.7.7.7.7.0 u $ >.A =.F 7.7.7.7.7.7.7.7.7.7.7.7.7.7.7.7.7.7.7.7.7.7.",
"7.7.7.7.7.7.7.7.7.7.7.7.7.7.7.7.7.7.7.7.  g u * *.K | x 7.7.7.7.7.7.7.7.7.7.7.7.7.7.7.7.7.7.7.7.7.7.",
"7.7.7.7.7.7.7.7.7.7.7.7.7.7.7.7.7.7.7.7.y h y * / v ^ <.6 7.7.7.7.7.7.7.7.7.7.7.7.7.7.7.7.7.7.7.7.7.",
"7.7.7.7.7.7.7.7.7.7.7.7.7.7.7.7.7.7.7., u h u & ) c Y 4.U 7.7.7.7.7.7.7.7.7.7.7.7.7.7.7.7.7.7.7.7.7.",
"7.7.7.7.7.7.7.7.7.7.7.7.7.7.7.7.7.7.7.7 ! c y & ) #.s -.5.  7.7.7.7.7.7.7.7.7.7.7.7.7.7.7.7.7.7.7.7.",
"7.7.7.7.7.7.7.7.7.7.7.7.7.7.7.7.7.7.> g ) v y & _ 3.s -.6.%.7.7.7.7.7.7.7.7.7.7.7.7.7.7.7.7.7.7.7.7.",
"7.7.7.7.7.7.7.7.7.7.7.7.7.7.7.7.7.7.7 ! { J y & *.3.g h 5.:.e 7.7.7.7.7.7.7.7.7.7.7.7.7.7.7.7.7.7.7.",
"7.7.7.7.7.7.7.7.7.7.7.7.7.7.7.7.7.X s ! { [ y & 3.3.s  .5.6.T 7.7.7.7.7.7.7.7.7.7.7.7.7.7.7.7.7.7.7.",
"7.7.7.7.7.7.7.7.7.7.7.7.7.7.7.7.7.y ~ ! { [ y $ 2.5...;.6.6.2.r 7.7.7.7.7.7.7.7.7.7.7.7.7.7.7.7.7.7.",
"7.7.7.7.7.7.7.7.7.7.7.7.7.7.7.7.% g { [ { ] y $ 2.6.$.;.6.-.#.G 7.7.7.7.7.7.7.7.7.7.7.7.7.7.7.7.7.7.",
"7.7.7.7.7.7.7.7.7.7.7.7.7.7.7.7.f W { { { [ y & 2.5.3.,.-.h g 3.; 7.7.7.7.7.7.7.7.7.7.7.7.7.7.7.7.7.",
"7.7.7.7.7.7.7.7.7.7.7.7.7.7.7.a ) } { { { [ y & 2.3.P D s g  .+.X.7.7.7.7.7.7.7.7.7.7.7.7.7.7.7.7.7.",
"7.7.7.7.7.7.7.7.7.7.7.7.7.7.7.N } { { { { p 3 & ,.P h h h h S B 1.  7.7.7.7.7.7.7.7.7.7.7.7.7.7.7.7.",
"7.7.7.7.7.7.7.7.7.7.7.7.7.7.7.N { { [ ) C , , 3 &.k i s d I P I 2.  7.7.7.7.7.7.7.7.7.7.7.7.7.7.7.7.",
"7.7.7.7.7.7.7.7.7.7.7.7.7.7.7.N } ( ! K K K q h R 0 - - 5 @.$.@.o.  7.7.7.7.7.7.7.7.7.7.7.7.7.7.7.7.",
"7.7.7.7.7.7.7.7.7.7.7.7.7.7.7.w ( C ) { { W h q ) s : : : > y 3 1 7.7.7.7.7.7.7.7.7.7.7.7.7.7.7.7.7.",
"7.7.7.7.7.7.7.7.7.7.7.7.7.7.7.7.t c [ { [ v h 8 ) g : : : : q s @ 7.7.7.7.7.7.7.7.7.7.7.7.7.7.7.7.7.",
"7.7.7.7.7.7.7.7.7.7.7.7.7.7.7.7.  s C { L h h 8 ) s : : : : : + 7.7.7.7.7.7.7.7.7.7.7.7.7.7.7.7.7.7.",
"7.7.7.7.7.7.7.7.7.7.7.7.7.7.7.7.7.0 ( ) n h H l ) s : : : : = O 7.7.7.7.7.7.7.7.7.7.7.7.7.7.7.7.7.7.",
"7.7.7.7.7.7.7.7.7.7.7.7.7.7.7.7.7.= { ~ h / W K ) s : : u : % 7.7.7.7.7.7.7.7.7.7.7.7.7.7.7.7.7.7.7.",
"7.7.7.7.7.7.7.7.7.7.7.7.7.7.7.7.7.@ h c b ) W Z ) s - : i : % 7.7.7.7.7.7.7.7.7.7.7.7.7.7.7.7.7.7.7.",
"7.7.7.7.7.7.7.7.7.7.7.7.7.7.7.7.7.7.: h ) c W K ) s : : s = 7.7.7.7.7.7.7.7.7.7.7.7.7.7.7.7.7.7.7.7.",
"7.7.7.7.7.7.7.7.7.7.7.7.7.7.7.7.7.7.7.q ) m ) Z ) g : : s @ 7.7.7.7.7.7.7.7.7.7.7.7.7.7.7.7.7.7.7.7.",
"7.7.7.7.7.7.7.7.7.7.7.7.7.7.7.7.7.7.7.V W b { Z _ g - > i   7.7.7.7.7.7.7.7.7.7.7.7.7.7.7.7.7.7.7.7.",
"7.7.7.7.7.7.7.7.7.7.7.7.7.7.7.7.7.7.7.7.y L } H 1.k , i * 7.7.7.7.7.7.7.7.7.7.7.7.7.7.7.7.7.7.7.7.7.",
"7.7.7.7.7.7.7.7.7.7.7.7.7.7.7.7.7.7.7.7.7 [ { m 1.z i t * 7.7.7.7.7.7.7.7.7.7.7.7.7.7.7.7.7.7.7.7.7.",
"7.7.7.7.7.7.7.7.7.7.7.7.7.7.7.7.7.7.7.7.  [ { C 1.M h 2 7.7.7.7.7.7.7.7.7.7.7.7.7.7.7.7.7.7.7.7.7.7.",
"7.7.7.7.7.7.7.7.7.7.7.7.7.7.7.7.7.7.7.7.7.9 { C 1.z q 7.7.7.7.7.7.7.7.7.7.7.7.7.7.7.7.7.7.7.7.7.7.7.",
"7.7.7.7.7.7.7.7.7.7.7.7.7.7.7.7.7.7.7.7.7.2 ( H 1.z 7 7.7.7.7.7.7.7.7.7.7.7.7.7.7.7.7.7.7.7.7.7.7.7.",
"7.7.7.7.7.7.7.7.7.7.7.7.7.7.7.7.7.7.7.7.7.7.f K 1.k   7.7.7.7.7.7.7.7.7.7.7.7.7.7.7.7.7.7.7.7.7.7.7.",
"7.7.7.7.7.7.7.7.7.7.7.7.7.7.7.7.7.7.7.7.7.7.7.t >.< 7.7.7.7.7.7.7.7.7.7.7.7.7.7.7.7.7.7.7.7.7.7.7.7.",
"7.7.7.7.7.7.7.7.7.7.7.7.7.7.7.7.7.7.7.7.7.7.7.7.# 7.7.7.7.7.7.7.7.7.7.7.7.7.7.7.7.7.7.7.7.7.7.7.7.7.",
"7.7.7.7.7.7.7.7.7.7.7.7.7.7.7.7.7.7.7.7.7.7.7.7.7.7.7.7.7.7.7.7.7.7.7.7.7.7.7.7.7.7.7.7.7.7.7.7.7.7.",
"7.7.7.7.7.7.7.7.7.7.7.7.7.7.7.7.7.7.7.7.7.7.7.7.7.7.7.7.7.7.7.7.7.7.7.7.7.7.7.7.7.7.7.7.7.7.7.7.7.7.",
"7.7.7.7.7.7.7.7.7.7.7.7.7.7.7.7.7.7.7.7.7.7.7.7.7.7.7.7.7.7.7.7.7.7.7.7.7.7.7.7.7.7.7.7.7.7.7.7.7.7.",
"7.7.7.7.7.7.7.7.7.7.7.7.7.7.7.7.7.7.7.7.7.7.7.7.7.7.7.7.7.7.7.7.7.7.7.7.7.7.7.7.7.7.7.7.7.7.7.7.7.7.",
"7.7.7.7.7.7.7.7.7.7.7.7.7.7.7.7.7.7.7.7.7.7.7.7.7.7.7.7.7.7.7.7.7.7.7.7.7.7.7.7.7.7.7.7.7.7.7.7.7.7.",
"7.7.7.7.7.7.7.7.7.7.7.7.7.7.7.7.7.7.7.7.7.7.7.7.7.7.7.7.7.7.7.7.7.7.7.7.7.7.7.7.7.7.7.7.7.7.7.7.7.7."
};
