/* XPM */
static char *_4abfeba47be42f8d8b08e59e9d0049btx0AOMdpSDVn3wQ8[] = {
/* columns rows colors chars-per-pixel */
"46 50 122 2 ",
"   c None",
".  c #010101",
"X  c #0B0D0F",
"o  c gray9",
"O  c #2D3336",
"+  c #333A3D",
"@  c #7D3929",
"#  c #2E3841",
"$  c #3F464B",
"%  c #4C4C4C",
"&  c #5F5F5F",
"*  c #525B61",
"=  c #686868",
"-  c #717171",
";  c #7C7D7D",
":  c #C54D25",
">  c #CA4F26",
",  c #CE5127",
"<  c #CA512A",
"1  c #D4542A",
"2  c #DA572B",
"3  c #C25536",
"4  c #C4573A",
"5  c #DC5D36",
"6  c #E25B2D",
"7  c #EA6237",
"8  c #C36654",
"9  c #CD6B57",
"0  c #DD6B53",
"q  c #F1714F",
"w  c #F88D75",
"e  c #627787",
"r  c #6F7C83",
"t  c #6A7F90",
"y  c #7D8C94",
"u  c #848484",
"i  c gray54",
"p  c #83929A",
"a  c #979898",
"s  c #9A9A9A",
"d  c #8998A1",
"f  c #87A1B6",
"g  c #9AACB6",
"h  c #A2B4BE",
"j  c #D59A8F",
"k  c #E3A29D",
"l  c #D8A8A1",
"z  c #D0ADAD",
"x  c #D0BFBB",
"c  c #EBBBBC",
"v  c #F7C3BA",
"b  c #9CBBD3",
"n  c #A6BDCD",
"m  c #ABBEC9",
"M  c #A2BCD0",
"N  c #ADC0CC",
"B  c #B5C4D4",
"V  c #B5C9D5",
"C  c #B9CEDA",
"Z  c #BDD2DE",
"A  c #ABCCE7",
"S  c #AFD1EC",
"D  c #B3D3ED",
"F  c #B9D6EE",
"G  c #BDD8EF",
"H  c #BBDAF1",
"J  c gray76",
"K  c #CACBCB",
"L  c #C0CED5",
"P  c #D5CAD0",
"I  c #CBD2D6",
"U  c #D4D5D6",
"Y  c #DAD0D4",
"T  c #DCDCDC",
"R  c #CAD9E1",
"E  c #C7DCE9",
"W  c #C9DFEC",
"Q  c #C1DDF3",
"!  c #C9DFF2",
"~  c #FFC9E2",
"^  c #FEDCEC",
"/  c #D5E2EB",
"(  c #C5E1F5",
")  c #CBE2F4",
"_  c #CBE6F8",
"`  c #CFE9FA",
"'  c #D2E4F4",
"]  c #D1E8F6",
"[  c #DFECF7",
"{  c #D4ECFC",
"}  c #D9EDFA",
"|  c #D7F0FE",
" . c #DAF1FF",
".. c gray90",
"X. c #E4E9EE",
"o. c #ECEDED",
"O. c #ECE1F3",
"+. c #E1EDF7",
"@. c #E3EEF8",
"#. c #FFE6F1",
"$. c #E3F5FF",
"%. c #EBF5FD",
"&. c #EDF8FF",
"*. c #F4F3F3",
"=. c #FDF5FA",
"-. c #F4FBFF",
";. c #FAFDFF",
":. c #FBFEFF",
">. c #F8FCFF",
",. c gray99",
"<. c #FDFDFD",
"1. c #FCFDFE",
"2. c #FCFEFE",
"3. c #FDFEFE",
"4. c #FCFEFF",
"5. c #FDFEFF",
"6. c #FEFEFE",
"7. c #FFFEFE",
"8. c #FEFEFF",
"9. c #FEFFFF",
"0. c white",
"q. c #FEFEFF",
/* pixels */
"                                          <.<.<.<.<.                                        ",
"                                    <.<.<.<.<.<.<.<.<.<.                                    ",
"                                  <.<.<.<.<.<.<.<.<.<.<.<.<.                                ",
"                                <.<.<.<.<.<.<.7.<.<.<.<.<.<.<.                              ",
"                              <.<.<.<.<.<.<.7.7.<.<.<.<.<.<.<.<.                            ",
"                            <.<.<.<.<.<.<.<.7.7.<.<.<.<.o.u J <.                            ",
"                            <.<.<.<.<.<.<.J = *.<.<.<.<...K % <.%.                          ",
"                            <.<.<.<.<.<.o.,.= h <.<.<.<.s - s <.[                           ",
"                          <.<.<.<.<.<.<...- s K >.-.7.7.x @ l v k 0 2 , >                   ",
"                          <.<.<.<.<.<.<.<.i i *.$.c w q 7 6 2 , < 4                         ",
"                          <.<.<.<.<.<.#.~ ^ <.-.+.5 2 1 , > 8 z B                           ",
"                          <.<.<.<.<.<.=.O.=.>. .} 9 : 3 j Y } N t                           ",
"                            <.<.-.%.<.K R >.%. . ./ P *.<.$.V n b                           ",
"                            +.<.-.%.<.J U ; d | B W } / L E X e D                           ",
"                            F $. . .$.-.%.p g m . * { $ . n f b                             ",
"                              D _  . .|  . . .Z + y | r # b S D                             ",
"                                D F ` |  . . . .{  .` F A D D                               ",
"                              <.+.D S F Q ( ( ( Q D S S S D %.!                             ",
"                              <.<.%.H S S S S S D S S D ! >.<.)                             ",
"                              <.<.<.,.$.! D D D S F ' %.>.<. .Q D                           ",
"                            -.<.&.<.<.<.<.<.>.-.>.<.<.<.-.<. .Q S                           ",
"                            ' -.<.<.<.<.<.<.<.<.<.<.=.<.%.$. .H D                           ",
"                            D {  .$.>.<.<.<.<.<.<.U o I  . . .D D                           ",
"                            D Q  . .%.<.<.<.<.<.<.o.a X. . ._ D D                           ",
"                            F D ` | &.<.<.<.<.<.>.&./ ]  .| D S D                           ",
"                            >.) D { -.$.>.<.<.<.&.{ O y  .( S S D                           ",
"                          <.<.<.%.) +.-.<.<.<.<.>. .h C ( S S F                             ",
"                        <.<.<.<.<.<.>.-.<.<.<.<.&. .{ F S D ' >.<.                          ",
"                        <.<.<.<.<.<.<.<.<.<.<.<.%.( Q ' +.>.<.<.<.<.<.                      ",
"                      <.<.<.<.<.<.<.<.<.<.<.<.<.<.<.<.<.<.<.<.<.<.<.<.>.                    ",
"                    <.<.<.<.<.<.<.<.<.<.<.<.<.<.<.<.<.<.<.<.<.<.<.<.<.<.'                   ",
"                  $.<.%.<.<.<.<.<.<.<.<.<.<.<.<.<.<.<.<.<.<.<.<.<.<.<.<.@.                  ",
"                  { >.<.<.<.<.<.<.<.<.<.<.<.<.<.<.<.<.<.<.<.<.<.<.<.<.<.<.H                 ",
"                F { -.%.$.<.<.<.<.<.<.<.<.<.<.<.<.<.<.<.<.<.<.<.<.<.<.<.<.'                 ",
"                H  .-.>.-.<.<.<.<.<.<.<.<.<.<.<.<.<.<.<.<.<.<.<.<.<.<.<.<.%.D               ",
"              D H  .>.<.<.<.<.<.>.<.<.<.<.<.<.<.<.<.<.<.<.<.<.<.<.<.<.<.<.,.D               ",
"              D (  .$.<.<.<.<.>.$.<.<.<.<.<.<.<.<.<.<.<.<.<.<.<.<.<.<.<.<.<.F D             ",
"              S (  . .<.$.$.<.<.<.<.<.<.<.<.<.<.<.<.<.<.<.<.<.<.<.<.<.-.$.>.Q D             ",
"              S H  . .<.&.-.<.-.$.%.<.<.<.<.<.<.<.<.<.<.<.<.<.<.<.<.<. . . .H D             ",
"              D F  . .$.$.-.-.$. . .>.<.<.&.<.<.<.<.<.<.<.<.<.<.<.<.<.-. . .F D             ",
"            H S S {  . . . . .|  . . .&.>.$.<.<.<.<.<.<.<.<.<.<.<.<.<.<. .{ S S             ",
"            F S S Q  .| |  . . . . . .| &.<.<.<.<.<.<.<.<.<.<.<.<.<.<.<.$.` S S             ",
"              S S S ` | |  . . . .|  . . .$. .-.<.<.<.<.<.<.<.<.<.<.<.<.<.( S D             ",
"           .| ` Q F D {  . . .|  . .|  . . . . .<.<.<.<.<.&.&.<.<.<. .&.%.S D D             ",
"         . . .| |  .| |  .|  . .|  . . . . . .$.<.<.<.<.<.$. .<.<.<.-.$.F S S D             ",
"       . . . . . . . . . . .|  . . . .|  .$.%.>.<.<.<.<.<.<.<.<.<.-. ._ ( _ {  .            ",
"       .|  . . . . . . . . . . . . . .|  .&.<.<.<.<.<.%.&.>.-. . . . . . . . . . .          ",
"   . . . . . . .|  . .|  .|  . .|  . . . . .-.<.<.<. . . . . . . . . . . . . . . . . . .    ",
" . . . . . . . . . . . . . . . . . . . . . .$.-.-.&. . . . . . . . . . . . . . . . . . . .  ",
" . . . . . . . . . . . . . . . . . . . . . . . . . . . . . . . . . . . . . . . . . . . . . ."
};
