/* XPM */
static char *result[] = {
/* columns rows colors chars-per-pixel */
"46 50 100 2 ",
"   c black",
".  c #0B0D0F",
"X  c #1B1C1E",
"o  c #2B3134",
"O  c #36434C",
"+  c #5D5D5D",
"@  c #5E6A70",
"#  c #6C6C6C",
"$  c #727272",
"%  c #7B7B7B",
"&  c #84463A",
"*  c #C44C25",
"=  c #CA4F26",
"-  c #CE5127",
";  c #C9512C",
":  c #D45429",
">  c #DA572B",
",  c #C4563A",
"<  c #C3593D",
"1  c #E25A2D",
"2  c #E96135",
"3  c #CB5D40",
"4  c #DE6649",
"5  c #C46C5C",
"6  c #F1704D",
"7  c #F7886E",
"8  c #6C7980",
"9  c #75838A",
"0  c #6E8496",
"q  c #738A9C",
"w  c #8D8D8D",
"e  c #929393",
"r  c #979899",
"t  c gray62",
"y  c #8B9BA4",
"u  c #8F9FA8",
"i  c #839DB2",
"p  c #94A2AA",
"a  c #9BACB6",
"s  c #A0A0A0",
"d  c #BCBCBC",
"f  c #E19F9B",
"g  c #D8A097",
"h  c #DDAEA6",
"j  c #C4B1AD",
"k  c #D1B0B0",
"l  c #EEB4B1",
"z  c #F7C1B8",
"x  c #9FBACF",
"c  c #9FBED6",
"v  c #A3B6C1",
"b  c #ABC4D5",
"n  c #A3C3DD",
"m  c #B1C5D1",
"M  c #B4C2D8",
"N  c #ACCDE8",
"B  c #AFD1EC",
"V  c #BFD5E1",
"C  c #B3D4ED",
"Z  c #BAD7EE",
"A  c #BCD9EF",
"S  c #B7D7F0",
"D  c #BDDBF2",
"F  c #C4C6C7",
"G  c gray80",
"H  c #D7CCD1",
"J  c #C2D1D9",
"K  c #D3D3D3",
"L  c #D9D3D9",
"P  c #D3DCE4",
"I  c #C2DDF2",
"U  c #FFC9E2",
"Y  c #E4DFE3",
"T  c #FED7E9",
"R  c #D1E1EA",
"E  c #C6E2F6",
"W  c #CCE3F4",
"Q  c #CBE7F9",
"!  c #CDE8F9",
"~  c #D2E5F4",
"^  c #D9E6F2",
"/  c #DDEBF7",
"(  c #D3ECFB",
")  c #D9EEFB",
"_  c #D9F1FF",
"`  c #E4E4E4",
"'  c #EDE2F3",
"]  c #E5EEF5",
"[  c #E4EFF8",
"{  c #FFEBF4",
"}  c #E4F4FE",
"|  c #EAF7FE",
" . c #EDF8FF",
".. c #F3F3F3",
"X. c #FAF4F3",
"o. c #F1F7FC",
"O. c #FAF0F8",
"+. c #F4FBFF",
"@. c #FFFFFF",
"#. c None",
/* pixels */
"#.#.#.#.#.#.#.#.#.#.#.#.#.#.#.#.#.#.#.#.@.@.@.@.@.#.#.#.#.#.#.#.#.#.#.#.#.#.#.#.#.#.#.#.#.#.",
"#.#.#.#.#.#.#.#.#.#.#.#.#.#.#.#.#.#.@.@.@.@.@.@.@.@.@.@.#.#.#.#.#.#.#.#.#.#.#.#.#.#.#.#.#.#.",
"#.#.#.#.#.#.#.#.#.#.#.#.#.#.#.#.@.@.@.@.@.@.@.@.@.@.@.@.@.#.#.#.#.#.#.#.#.#.#.#.#.#.#.#.#.#.",
"#.#.#.#.#.#.#.#.#.#.#.#.#.#.#.@.@.@.@.@.@.@.@.@.@.@.@.@.@.@.#.#.#.#.#.#.#.#.#.#.#.#.#.#.#.#.",
"#.#.#.#.#.#.#.#.#.#.#.#.#.#.@.@.@.@.@.@.@.@.@.@.@.@.@.@.@.@.@.#.#.#.#.#.#.#.#.#.#.#.#.#.#.#.",
"#.#.#.#.#.#.#.#.#.#.#.#.#.#.@.G % ` @.@.@.@.@.+.@.@.@.@.@.@.@.#.#.#.#.#.#.#.#.#.#.#.#.#.#.#.",
"#.#.#.#.#.#.#.#.#.#.#.#.#.} @.# d ` @.@.@.@.X.+ K @.@.@.@.@.@.@.#.#.#.#.#.#.#.#.#.#.#.#.#.#.",
"#.#.#.#.#.#.#.#.#.#.#.#.#.^ @.s $ w @.@.@.@.K w ....@.@.@.@.@.@.#.#.#.#.#.#.#.#.#.#.#.#.#.#.",
"#.#.#.#.#.#.#.#.#.= - : 4 f z h & j @.@.+.+.K w # ..@.@.@.@.@.@.#.#.#.#.#.#.#.#.#.#.#.#.#.#.",
"#.#.#.#.#.#.#.#.#.#.#.#., ; : > 1 2 6 7 l } +.% r @.@.@.@.@.@.@.@.#.#.#.#.#.#.#.#.#.#.#.#.#.",
"#.#.#.#.#.#.#.#.#.#.#.#.#.M k 5 * - > > > Y +.@.T U { @.@.@.@.@.@.#.#.#.#.#.#.#.#.#.#.#.#.#.",
"#.#.#.#.#.#.#.#.#.#.#.#.#.q v ) L g < * < ^ _ @.O.' @.@.@.@.@.@.@.#.#.#.#.#.#.#.#.#.#.#.#.#.",
"#.#.#.#.#.#.#.#.#.#.#.#.#.c x m } @.X.H R _ _ | +.V K @.} +.@.@.#.#.#.#.#.#.#.#.#.#.#.#.#.#.",
"#.#.#.#.#.#.#.#.#.#.#.#.#.C 0   V J P ) W b ) 9 e K G @.} @.@./ #.#.#.#.#.#.#.#.#.#.#.#.#.#.",
"#.#.#.#.#.#.#.#.#.#.#.#.#.#.c i b . o W $   a y p  . .} _ } [ C #.#.#.#.#.#.#.#.#.#.#.#.#.#.",
"#.#.#.#.#.#.#.#.#.#.#.#.#.#.C C n O @ ( u o m _ _ ) _ _ _ E C #.#.#.#.#.#.#.#.#.#.#.#.#.#.#.",
"#.#.#.#.#.#.#.#.#.#.#.#.#.#.#.C B N C ! _ ( _ _ _ _ _ Q Z C #.#.#.#.#.#.#.#.#.#.#.#.#.#.#.#.",
"#.#.#.#.#.#.#.#.#.#.#.#.#.#.I +.Z C B B C D E E E D C B C } @.#.#.#.#.#.#.#.#.#.#.#.#.#.#.#.",
"#.#.#.#.#.#.#.#.#.#.#.#.#.#.I @.@.R C B B B C N C B B I o.@.@.#.#.#.#.#.#.#.#.#.#.#.#.#.#.#.",
"#.#.#.#.#.#.#.#.#.#.#.#.#.C D _ +.+.o.~ Z C B C C W ] @.@.@.@.#.#.#.#.#.#.#.#.#.#.#.#.#.#.#.",
"#.#.#.#.#.#.#.#.#.#.#.#.#.C D _ @. .@.@.@.@.+.+.@.@.@.@.@.} @.+.#.#.#.#.#.#.#.#.#.#.#.#.#.#.",
"#.#.#.#.#.#.#.#.#.#.#.#.#.B S _ | } @.X.@.@.@.@.@.@.@.@.@.@.@.I #.#.#.#.#.#.#.#.#.#.#.#.#.#.",
"#.#.#.#.#.#.#.#.#.#.#.#.#.C C ( _ _ P X F @.@.@.@.@.@.+.} _ ( C #.#.#.#.#.#.#.#.#.#.#.#.#.#.",
"#.#.#.#.#.#.#.#.#.#.#.#.#.C B E _ _ ] r ` @.@.@.@.@.@.} _ ) D C #.#.#.#.#.#.#.#.#.#.#.#.#.#.",
"#.#.#.#.#.#.#.#.#.#.#.#.#.C B C ( _ ( R | @.@.@.@.@.@.| _ Q B C #.#.#.#.#.#.#.#.#.#.#.#.#.#.",
"#.#.#.#.#.#.#.#.#.#.#.#.#.C B B D _ u X W } @.@.@.+.} } ( C W @.#.#.#.#.#.#.#.#.#.#.#.#.#.#.",
"#.#.#.#.#.#.#.#.#.#.#.#.#.#.A C B D V a _ +.@.@.@.@.o./ I  .@.@.@.#.#.#.#.#.#.#.#.#.#.#.#.#.",
"#.#.#.#.#.#.#.#.#.#.#.#.#.@.+.^ C B C ( _ | @.@.@.@.+.@.@.@.@.@.@.@.#.#.#.#.#.#.#.#.#.#.#.#.",
"#.#.#.#.#.#.#.#.#.#.#.@.@.@.@.@.@.[ W I I } @.@.@.@.@.@.@.@.@.@.@.@.#.#.#.#.#.#.#.#.#.#.#.#.",
"#.#.#.#.#.#.#.#.#.#.+.@.@.@.@.@.@.@.@.@.@.@.@.@.@.@.@.@.@.@.@.@.@.@.@.#.#.#.#.#.#.#.#.#.#.#.",
"#.#.#.#.#.#.#.#.#.#.@.@.@.@.@.@.@.@.@.@.@.@.@.@.@.@.@.@.@.@.@.@.@.@.@.@.#.#.#.#.#.#.#.#.#.#.",
"#.#.#.#.#.#.#.#.#.[ @.@.@.@.@.@.@.@.@.@.@.@.@.@.@.@.@.@.@.@.@.@.@.@.} @./ #.#.#.#.#.#.#.#.#.",
"#.#.#.#.#.#.#.#.Z @.@.@.@.@.@.@.@.@.@.@.@.@.@.@.@.@.@.@.@.@.@.@.@.@.@.@.Q #.#.#.#.#.#.#.#.#.",
"#.#.#.#.#.#.#.#.W @.@.@.@.@.@.@.@.@.@.@.@.@.@.@.@.@.@.@.@.@.@.@.@.} | | ( C #.#.#.#.#.#.#.#.",
"#.#.#.#.#.#.#.C [ @.@.@.@.@.@.@.@.@.@.@.@.@.@.@.@.@.@.@.@.@.@.@.@.+.+.+._ D #.#.#.#.#.#.#.#.",
"#.#.#.#.#.#.#.C +.@.@.@.@.@.@.@.@.@.@.@.@.@.@.@.@.@.@.@.@.+.@.@.@.@.@.+._ D C #.#.#.#.#.#.#.",
"#.#.#.#.#.#.#.C @.@.@.@.@.@.@.@.@.@.@.@.@.@.@.@.@.@.@.@.@._ @.@.@.@.@.} _ I C #.#.#.#.#.#.#.",
"#.#.#.#.#.#.C A +.} +.@.@.@.@.@.@.@.@.@.@.@.@.@.@.@.@.@.@.@.@.@.} _ @._ _ I C #.#.#.#.#.#.#.",
"#.#.#.#.#.#.C D _ _ _ @.@.@.@.@.@.@.@.@.@.@.@.@.@.@.@.@.| _ @.@.+.+.@._ _ D B #.#.#.#.#.#.#.",
"#.#.#.#.#.#.C C _ _  .@.@.@.@.@.@.@.@.@.@.@.@.@. .@.@.+._ _ _ +. .} } _ _ C B #.#.#.#.#.#.#.",
"#.#.#.#.#.#.B B _ _ @.@.@.@.@.@.@.@.@.@.@.@.@.+._ @.| _ _ _ ( _ _ _ _ _ Q B B S #.#.#.#.#.#.",
"#.#.#.#.#.#.B B Q } @.@.@.@.@.@.@.@.@.@.@.@.@.@.@.| _ ( _ _ _ _ _ _ _ _ D B B Z #.#.#.#.#.#.",
"#.#.#.#.#.#.C B I @.@.@.@.@.@.@.@.@.@.@.@.@.+.} } _ _ _ _ _ _ _ _ _ _ Q C B B #.#.#.#.#.#.#.",
"#.#.#.#.#.#.C B C }  ._ @.@.@. .| @.@.@.@.@._ _ _ _ _ _ _ _ _ _ _ _ Q S Z D Q _ _ #.#.#.#.#.",
"#.#.#.#.#.#.C C B Z }  .@.@.@.} _ @.@.@.@.@._ _ _ _ _ _ _ _ _ _ _ _ _ _ _ _ _ _ _ _ #.#.#.#.",
"#.#.#.#.#.#._ ( Q E E _ +.@.@.@.@.@.@.@.@.@.@.| } _ _ _ _ _ _ _ _ _ _ _ _ _ _ _ _ _ #.#.#.#.",
"#.#.#.#.#._ _ _ _ _ _ _ _ _ _  .@. .| +.@.@.@.@.| _ _ _ _ _ _ _ _ _ _ _ _ _ _ _ _ _ _ #.#.#.",
"#.#._ _ _ _ _ _ _ _ _ _ _ _ _ _ _ _ _ _ @.@.@.| _ _ _ _ _ _ _ _ _ ( _ _ _ _ _ _ _ _ _ _ _ #.",
"#._ _ _ _ _ _ _ _ _ _ _ _ _ _ _ _ _ _ _  .+.+.} _ ) _ _ _ _ _ _ _ _ _ _ _ _ _ _ _ _ _ _ _ _ ",
"_ _ _ _ _ _ _ _ _ _ _ _ _ _ _ _ _ _ _ _ _ _ _ _ _ _ _ _ _ _ _ _ _ _ _ _ _ _ _ _ _ _ _ _ _ _ "
};
